<?xml version="1.0" standalone="no"?>
<!DOCTYPE svg PUBLIC "-//W3C//DTD SVG 1.1//EN" "http://www.w3.org/Graphics/SVG/1.1/DTD/svg11.dtd" >
<svg>
<metadata>
Created by FontForge 20090914 at Tue Aug 20 06:54:00 2013
 By www-data
[c] Copyright 2000-2003, The Font Bureau, Inc. Designed by Cyrus Highsmith, Tobias Frere-Jones, and Font Bureau. All rights reserved.
</metadata>
<defs>
<font id="BentonSans-Thin" horiz-adv-x="500" >
  <font-face 
    font-family="BentonSans"
    font-weight="100"
    font-stretch="normal"
    units-per-em="1000"
    panose-1="2 0 2 3 0 0 0 0 0 0"
    ascent="800"
    descent="-200"
    x-height="525"
    cap-height="740"
    bbox="-73 -204 1259 943"
    underline-thickness="20"
    underline-position="-133"
    unicode-range="U+0020-U+FFFD"
  />
<missing-glyph 
 />
    <glyph glyph-name=".notdef" unicode="&#xfffd;" 
 />
    <glyph glyph-name="space" unicode=" " horiz-adv-x="201" 
 />
    <glyph glyph-name="exclam" unicode="!" horiz-adv-x="295" 
d="M139 153l-5 587h27l-5 -587h-17zM126 0v52h43v-52h-43z" />
    <glyph glyph-name="quotedbl" unicode="&#x22;" horiz-adv-x="377" 
d="M264 493l-7 196v51h24v-51l-7 -196h-10zM103 493l-7 196v51h24v-51l-7 -196h-10z" />
    <glyph glyph-name="numbersign" unicode="#" horiz-adv-x="689" 
d="M512 509h127v-23h-132l-48 -229h135v-23h-140l-49 -234h-23l49 234h-232l-49 -234h-23l49 234h-125v23h130l48 229h-133v23h138l48 231h23l-48 -231h232l48 231h23zM484 486h-232l-48 -229h232z" />
    <glyph glyph-name="dollar" unicode="$" horiz-adv-x="633" 
d="M305 -93l0.000976562 79c-110.667 4 -186.334 53.333 -227.001 148l23 10c19.333 -43.333 44.333 -76.166 75 -98.499s73.667 -34.833 129 -37.5v376c-78.667 26 -132 52.667 -160 80s-42 68 -42 122c0 45.333 18.333 84.333 55 117s85.667 50 147 52v64h25v-64
c87.333 -4.66699 152.333 -43.334 195 -116.001l-21 -13c-40 66 -98 101.333 -174 106v-331c88.667 -28.667 150.167 -58.167 184.5 -88.5s51.5 -76.5 51.5 -138.5c0 -56.667 -22 -102.167 -66 -136.5s-100.667 -51.833 -170 -52.5v-78h-25zM305.001 410v322.001
c-54.667 -2 -97.834 -17 -129.501 -45s-47.5 -61.667 -47.5 -101c0 -47.333 12.333 -82.833 37 -106.5s71.334 -46.834 140.001 -69.501zM330.001 8.00098c64 0.666992 115.167 16 153.5 46s57.5 70 57.5 120c0 52 -15 92 -45 120s-85.333 55 -166 81v-367z" />
    <glyph glyph-name="percent" unicode="%" horiz-adv-x="935" 
d="M228 311c-47.333 0 -84.832 19.333 -112.499 58s-41.5 91.667 -41.5 159s14.167 120.5 42.5 159.5s66.166 58.5 113.499 58.5s85.333 -19.5 114 -58.5s43 -92.167 43 -159.5s-14.5 -120.333 -43.5 -159s-67.5 -58 -115.5 -58zM698.001 740l-441 -740h-25l441 740h25z
M702.001 -6c-47.333 0 -84.832 19.333 -112.499 58s-41.5 91.667 -41.5 159s14.167 120.5 42.5 159.5s66.166 58.5 113.499 58.5s85.333 -19.5 114 -58.5s43 -92.167 43 -159.5s-14.5 -120.333 -43.5 -159s-67.5 -58 -115.5 -58zM230.002 723
c-40.667 0 -72.667 -17.667 -96 -53s-35 -82.666 -35 -141.999s11.333 -106.5 34 -141.5s54.334 -52.5 95.001 -52.5s73.167 17.5 97.5 52.5s36.5 82.167 36.5 141.5s-11.833 106.666 -35.5 141.999s-55.834 53 -96.501 53zM704.002 406c-40.667 0 -72.667 -17.667 -96 -53
s-35 -82.666 -35 -141.999s11.333 -106.5 34 -141.5s54.334 -52.5 95.001 -52.5s73.167 17.5 97.5 52.5s36.5 82.167 36.5 141.5s-11.833 106.666 -35.5 141.999s-55.834 53 -96.501 53z" />
    <glyph glyph-name="ampersand" unicode="&#x26;" horiz-adv-x="711" 
d="M274 -11c-64.667 0 -117.832 16.166 -159.499 48.499s-62.5 79.166 -62.5 140.499c0 51.333 16.333 95 49 131s76 68.667 130 98c-38.667 66.667 -58 128.334 -58 185.001c0 48.667 16 88 48 118s69.667 45 113 45c42.667 0 76.834 -12 102.501 -36
s38.5 -58.333 38.5 -103c0 -24.667 -4.16699 -46.834 -12.5 -66.501s-24.333 -38.667 -48 -57s-41.834 -31.333 -54.501 -39s-37.667 -21.167 -75 -40.5l-22 -12c9.33301 -16 20.666 -33.667 33.999 -53c64 -95.333 134.333 -172.666 211 -231.999
c47.333 59.333 76.666 142 87.999 248h25c-12 -111.333 -43.333 -198.666 -94 -261.999c52.667 -39.333 103.667 -65 153 -77v-26c-55.333 14 -111.666 42.333 -168.999 85c-60 -63.333 -139 -95 -237 -95zM252.002 418.999c68 35.333 111.667 60.667 131 76
c44.667 34.667 67 75 67 121c0 37.333 -10.667 66 -32 86s-49.333 30 -84 30c-36.667 0 -68.5 -13 -95.5 -39s-40.5 -59.667 -40.5 -101c0 -52 18 -109.667 54 -173zM274.002 12c92 0 165 28.666 219 85.999c-80 61.333 -152 140 -216 236
c-18.667 28.667 -30.334 47 -35.001 55c-49.333 -26.667 -89.166 -56.667 -119.499 -90s-45.5 -73.666 -45.5 -120.999c0 -54 18.5 -95.167 55.5 -123.5s84.167 -42.5 141.5 -42.5z" />
    <glyph glyph-name="quotesingle" unicode="'" horiz-adv-x="216" 
d="M103 493l-7 196v51h24v-51l-7 -196h-10z" />
    <glyph glyph-name="parenleft" unicode="(" horiz-adv-x="391" 
d="M337 728c-74 -58.667 -131.834 -128.333 -173.501 -209s-62.5 -163.667 -62.5 -249c0 -86 21 -169.667 63 -251s99.667 -150.333 173 -207l-12 -16c-80 62.667 -141.5 134.834 -184.5 216.501s-64.5 167.5 -64.5 257.5c0 89.333 21.333 174.666 64 255.999
s104.334 154 185.001 218z" />
    <glyph glyph-name="parenright" unicode=")" horiz-adv-x="391" 
d="M54 -188c74 58.667 131.834 128.333 173.501 209s62.5 163.667 62.5 249c0 86 -21 169.667 -63 251s-99.667 150.333 -173 207l12 16c80 -62.667 141.5 -134.834 184.5 -216.501s64.5 -167.5 64.5 -257.5c0 -89.333 -21.333 -174.666 -64 -255.999
s-104.334 -154 -185.001 -218z" />
    <glyph glyph-name="asterisk" unicode="*" horiz-adv-x="506" 
d="M242 555l-186 -4v20l186 -4l-96 160l17 10l90 -163l90 163l17 -10l-96 -160l186 4v-20l-186 4l96 -160l-17 -10l-90 163l-90 -163l-17 10z" />
    <glyph glyph-name="plus" unicode="+" horiz-adv-x="624" 
d="M300 76v237h-235v23h235v236h25v-236h234v-23h-234v-237h-25z" />
    <glyph glyph-name="comma" unicode="," horiz-adv-x="255" 
d="M109 -83l16 83h-19v52h43v-46l-24 -89h-16z" />
    <glyph glyph-name="hyphen" unicode="-" horiz-adv-x="350" 
d="M74 304v23h202v-23h-202z" />
    <glyph glyph-name="period" unicode="." horiz-adv-x="255" 
d="M106 0v52h43v-52h-43z" />
    <glyph glyph-name="slash" unicode="/" horiz-adv-x="519" 
d="M39 0l416 740h25l-416 -740h-25z" />
    <glyph glyph-name="zero" unicode="0" horiz-adv-x="641" 
d="M321 755c82 0 145.5 -35.333 190.5 -106s67.5 -163.667 67.5 -279s-22.5 -208.333 -67.5 -279s-108.5 -106 -190.5 -106s-145.667 35.5 -191 106.5s-68 163.833 -68 278.5s22.667 207.5 68 278.5s109 106.5 191 106.5zM321 9c76 0 133.833 33.167 173.5 99.5
s59.5 153.5 59.5 261.5s-19.833 195.333 -59.5 262s-97.5 100 -173.5 100s-134 -33.333 -174 -100s-60 -154 -60 -262s20 -195.167 60 -261.5s98 -99.5 174 -99.5z" />
    <glyph glyph-name="one" unicode="1" horiz-adv-x="421" 
d="M217 24v685c-37.333 -27.333 -85.666 -41 -144.999 -41v25c57.333 0 106.666 15.667 147.999 47h22v-716h131v-24h-305v24h149z" />
    <glyph glyph-name="two" unicode="2" horiz-adv-x="576" 
d="M84 24l424 0.00488281v-24h-450l1 26c2 45.333 9.5 82.166 22.5 110.499s37 57.666 72 87.999s90.167 68.5 165.5 114.5c59.333 36.667 101.833 71.334 127.5 104.001s38.5 69.667 38.5 111c0 54.667 -16.833 98 -50.5 130s-78.834 48 -135.501 48
c-50.667 0 -93.167 -13 -127.5 -39s-60.833 -59 -79.5 -99l-22 10c19.333 42.667 49 78.5 89 107.5s86.667 43.5 140 43.5c65.333 0 116.833 -17.833 154.5 -53.5s56.5 -84.834 56.5 -147.501c0 -46.667 -14.167 -87.834 -42.5 -123.501s-74.5 -72.834 -138.5 -111.501
c-72 -44 -124.833 -80.667 -158.5 -110s-56.167 -56.833 -67.5 -82.5s-17.666 -59.834 -18.999 -102.501z" />
    <glyph glyph-name="three" unicode="3" horiz-adv-x="581" 
d="M320 397c61.333 -6.66699 108.504 -27.5 141.504 -62.5s49.5 -81.833 49.5 -140.5c0 -61.333 -21.5 -111.5 -64.5 -150.5s-98.5 -58.5 -166.5 -58.5c-112.667 0 -194 47 -244 141l20 13c45.333 -87.333 120 -131 224 -131c60 0 109.333 17.333 148 52
s58 79.334 58 134.001c0 59.333 -19.333 106 -58 140s-97.334 51 -176.001 51h-47v23h45c64.667 0 117.667 12.833 159 38.5s62 65.5 62 119.5c0 52 -15.833 92.667 -47.5 122s-77.834 44 -138.501 44c-81.333 0 -144.333 -35.333 -189 -106l-20 13
c19.333 32 47.166 59.333 83.499 82s78.166 34 125.499 34c69.333 0 121.833 -16.833 157.5 -50.5s53.5 -79.834 53.5 -138.501c0 -46 -16.167 -84.333 -48.5 -115s-74.833 -48.667 -127.5 -54z" />
    <glyph glyph-name="four" unicode="4" horiz-adv-x="584" 
d="M402 203h-357v23l357 514h25v-514h131v-23h-131v-203h-25v203zM402 226v476l-330 -476h330z" />
    <glyph glyph-name="five" unicode="5" horiz-adv-x="571" 
d="M476 716l-336.001 -0.00195312l-27 -328c14 22.667 37.833 43.5 71.5 62.5s71.5 28.5 113.5 28.5c64.667 0 118 -20.833 160 -62.5s63 -99.5 63 -173.5s-21.333 -135.5 -64 -184.5s-103.334 -73.5 -182.001 -73.5c-32 0 -62 5 -90 15s-51.167 22.667 -69.5 38
s-33.333 30.333 -45 45s-20.167 28.667 -25.5 42l23 11c12 -28.667 36.167 -57 72.5 -85s81.166 -42 134.499 -42c70.667 0 125.167 22.333 163.5 67s57.5 100.334 57.5 167.001s-18.667 118.834 -56 156.501s-84.666 56.5 -141.999 56.5
c-41.333 0 -78.666 -10 -111.999 -30s-58.666 -45 -75.999 -75l-23 7l31 382h358v-24z" />
    <glyph glyph-name="six" unicode="6" horiz-adv-x="596" 
d="M316 -15c-32 0 -62.498 6.66797 -91.498 20.001s-55.833 33.833 -80.5 61.5s-44.334 66.5 -59.001 116.5s-22 108 -22 174c0 120 23.833 216.333 71.5 289s114.5 109 200.5 109c65.333 0 125.666 -23 180.999 -69l-16 -19c-50.667 43.333 -105.667 65 -165 65
c-78.667 0 -139.667 -33.833 -183 -101.5s-65 -158.834 -65 -273.501v-18c25.333 29.333 59 56.333 101 81s85 37 129 37c78.667 0 137.5 -22 176.5 -66s58.5 -98 58.5 -162c0 -68 -21.5 -125.667 -64.5 -173s-100.167 -71 -171.5 -71zM316.002 8.00098
c64 0 115.168 21.5 153.501 64.5s57.5 95.167 57.5 156.5c0 57.333 -17.333 105.833 -52 145.5s-87.334 59.5 -158.001 59.5c-47.333 0 -91.5 -13.167 -132.5 -39.5s-73.167 -55.166 -96.5 -86.499c6.66699 -100.667 32.167 -175.834 76.5 -225.501
s94.833 -74.5 151.5 -74.5z" />
    <glyph glyph-name="seven" unicode="7" horiz-adv-x="546" 
d="M64 740h438v-23l-335 -717h-26l336 717h-413v23z" />
    <glyph glyph-name="eight" unicode="8" horiz-adv-x="596" 
d="M302 -15c-74.667 0 -136.002 17.498 -184.002 52.498s-72 82.167 -72 141.5c0 28 6 53.5 18 76.5s29.833 43 53.5 60s46.834 31.167 69.501 42.5s50.667 23.333 84 36c-28.667 10.667 -52.167 20.667 -70.5 30s-37 21 -56 35s-33.167 30.5 -42.5 49.5
s-14 40.833 -14 65.5c0 53.333 20.5 96.833 61.5 130.5s91.833 50.5 152.5 50.5s111.667 -16.833 153 -50.5s62 -77.167 62 -130.5c0 -24 -4.83301 -45.333 -14.5 -64s-24.167 -35 -43.5 -49s-38.333 -25.667 -57 -35s-42.667 -19.666 -72 -30.999
c32.667 -12.667 60.334 -24.667 83.001 -36s45.5 -25.666 68.5 -42.999s40.5 -37.5 52.5 -60.5s18 -48.5 18 -76.5c0 -59.333 -23.167 -106.5 -69.5 -141.5s-106.5 -52.5 -180.5 -52.5zM302.998 405.998c26 10 45.667 17.832 59 23.499s29.833 13.834 49.5 24.501
s34.167 21 43.5 31s17.833 22.667 25.5 38s11.5 32.333 11.5 51c0 46.667 -18.333 84.667 -55 114s-81.667 44 -135 44s-98.166 -14.667 -134.499 -44s-54.5 -67.333 -54.5 -114c0 -18 3.83301 -34.667 11.5 -50s16.167 -28 25.5 -38s24.166 -20.5 44.499 -31.5
s36.833 -19.167 49.5 -24.5zM301.998 8.99707c66.667 0 120.833 15.1689 162.5 45.502s62.5 71.833 62.5 124.5c0 21.333 -4.66699 41.333 -14 60s-20.333 34.5 -33 47.5s-30.334 26 -53.001 39s-42.667 23.167 -60 30.5s-40 16.333 -68 27
c-27.333 -10.667 -50 -19.834 -68 -27.501s-38.167 -17.834 -60.5 -30.501s-40 -25.5 -53 -38.5s-24 -28.833 -33 -47.5s-13.5 -38.667 -13.5 -60c0 -52 21.833 -93.333 65.5 -124s98.834 -46 165.501 -46z" />
    <glyph glyph-name="nine" unicode="9" horiz-adv-x="596" 
d="M509 401c-25.333 -29.333 -59.002 -56.334 -101.002 -81.001s-85 -37 -129 -37c-78.667 0 -137.5 22 -176.5 66s-58.5 98 -58.5 162c0 68 21.5 125.667 64.5 173s100.167 71 171.5 71c32 0 62.5 -6.66699 91.5 -20s55.833 -33.833 80.5 -61.5s44.334 -66.5 59.001 -116.5
s22 -108 22 -174c0 -120 -23.833 -216.333 -71.5 -289s-114.5 -109 -200.5 -109c-65.333 0 -125.666 23 -180.999 69l16 19c50.667 -43.333 105.667 -65 165 -65c78.667 0 139.667 33.833 183 101.5s65 158.834 65 273.501v18zM507.998 431.999
c-6.66699 100.667 -32.168 175.834 -76.501 225.501s-94.833 74.5 -151.5 74.5c-64 0 -115.167 -21.5 -153.5 -64.5s-57.5 -95.167 -57.5 -156.5c0 -57.333 17.333 -105.833 52 -145.5s87.334 -59.5 158.001 -59.5c47.333 0 91.5 13.167 132.5 39.5
s73.167 55.166 96.5 86.499z" />
    <glyph glyph-name="colon" unicode=":" horiz-adv-x="255" 
d="M106 473v52h43v-52h-43zM106 0v52h43v-52h-43z" />
    <glyph glyph-name="semicolon" unicode=";" horiz-adv-x="255" 
d="M106 473v52h43v-52h-43zM109 -83l16 83h-19v52h43v-46l-24 -89h-16z" />
    <glyph glyph-name="less" unicode="&#x3c;" horiz-adv-x="667" 
d="M578 92l-509 222v23l509 219v-24l-484 -207l484 -209v-24z" />
    <glyph glyph-name="equal" unicode="=" horiz-adv-x="669" 
d="M97 427v23h475v-23h-475zM97 202v23h475v-23h-475z" />
    <glyph glyph-name="greater" unicode="&#x3e;" horiz-adv-x="667" 
d="M89 556l509 -222v-23l-509 -219v24l484 207l-484 209v24z" />
    <glyph glyph-name="question" unicode="?" horiz-adv-x="521" 
d="M47 631c18.667 32.667 46.834 61.5 84.501 86.5s80.167 37.5 127.5 37.5c62 0 111.333 -16.167 148 -48.5s55 -76.166 55 -131.499c0 -23.333 -2.83301 -43.666 -8.5 -60.999s-15.5 -33.333 -29.5 -48s-27.333 -26.834 -40 -36.501s-31.334 -22.167 -56.001 -37.5
c-43.333 -27.333 -70 -54.333 -80 -81s-15 -76.334 -15 -149.001h-25c0 78 5.66699 131.333 17 160s41.333 58 90 88c44 27.333 75.333 51.833 94 73.5s28 52.167 28 91.5c0 48 -16.333 86.167 -49 114.5s-75.667 42.5 -129 42.5c-42.667 0 -81.167 -11.5 -115.5 -34.5
s-59.5 -49.167 -75.5 -78.5zM199 0v52h43v-52h-43z" />
    <glyph glyph-name="at" unicode="@" horiz-adv-x="868" 
d="M430 -12c-60 0 -114.167 10.334 -162.5 31.001s-87.666 48.5 -117.999 83.5s-53.5 75.167 -69.5 120.5s-24 93.666 -24 144.999c0 114.667 36 207.5 108 278.5s162.667 106.5 272 106.5c108.667 0 199.167 -34.667 271.5 -104s108.5 -159 108.5 -269
c0 -72.667 -15.167 -127.167 -45.5 -163.5s-67.5 -54.5 -111.5 -54.5c-30 0 -55 6.5 -75 19.5s-33 30.5 -39 52.5c-53.333 -50 -111 -75 -173 -75c-42.667 0 -77.5 14 -104.5 42s-40.5 69.333 -40.5 124c0 74.667 18.167 137.5 54.5 188.5s83.833 76.5 142.5 76.5
c60.667 0 112.667 -19.667 156 -59l7 51h25l-44 -301c-4.66699 -30 1.16602 -53.5 17.499 -70.5s40.833 -25.5 73.5 -25.5c38 0 69.5 16.5 94.5 49.5s37.5 81.5 37.5 145.5c0 102.667 -33.667 186.667 -101 252s-152 98 -254 98s-186.667 -33.667 -254 -101
s-101 -154.333 -101 -261c0 -102.667 31.167 -187.667 93.5 -255s147.5 -101 255.5 -101c78.667 0 151.667 16.333 219 49l10 -20c-74.667 -35.333 -151 -53 -229 -53zM372 182.001c58 0 114.669 25.667 170.002 77c0 10 0.333008 17.667 1 23l33 223
c-38.667 41.333 -89.334 62 -152.001 62c-52.667 0 -94.5 -24 -125.5 -72s-46.5 -104.667 -46.5 -170c0 -46.667 11.167 -82.167 33.5 -106.5s51.166 -36.5 86.499 -36.5z" />
    <glyph glyph-name="A" unicode="A" horiz-adv-x="647" 
d="M41 0l269 744h27l269 -744h-27l-96 266h-320l-96 -266h-26zM171 289h304l-152 421z" />
    <glyph glyph-name="B" unicode="B" horiz-adv-x="666" 
d="M105 0v740h203c89.333 0 155.833 -14.167 199.5 -42.5s65.5 -76.5 65.5 -144.5c0 -51.333 -16 -91 -48 -119s-68.333 -45.667 -109 -53c21.333 -2.66699 41.5 -7.33398 60.5 -14.001s39.167 -16.667 60.5 -30s38.5 -32.666 51.5 -57.999s19.5 -55 19.5 -89
c0 -59.333 -21.333 -105.833 -64 -139.5s-104 -50.5 -184 -50.5h-255zM130 391l205 -0.000976562c64 0 115.5 13.833 154.5 41.5s58.5 67.834 58.5 120.501c0 60 -19.333 102.333 -58 127s-98.667 37 -180 37h-180v-326zM130 21.999l232 -0.000976562
c72 0 126.833 14.833 164.5 44.5s56.5 70.834 56.5 123.501c0 58 -21.5 102.167 -64.5 132.5s-104.167 45.5 -183.5 45.5h-205v-346z" />
    <glyph glyph-name="C" unicode="C" horiz-adv-x="692" 
d="M368 -15c-88.667 0 -161.004 36.833 -217.004 110.5s-84 167.167 -84 280.5c0 109.333 28 199.833 84 271.5s126.333 107.5 211 107.5c36.667 0 69.667 -6 99 -18s54 -29 74 -51s36.333 -45.333 49 -70s24 -52.667 34 -84l-24 -8c-19.333 62.667 -46.833 113 -82.5 151
s-85.5 57 -149.5 57c-78 0 -142.5 -33.667 -193.5 -101s-76.5 -152.333 -76.5 -255c0 -105.333 25.667 -193 77 -263s117.666 -105 198.999 -105c117.333 0 197 72 239 216l24 -6c-5.33301 -19.333 -11.666 -38 -18.999 -56s-18.166 -38.333 -32.499 -61
s-30.666 -42 -48.999 -58s-41.666 -29.667 -69.999 -41s-59.166 -17 -92.499 -17z" />
    <glyph glyph-name="D" unicode="D" horiz-adv-x="686" 
d="M104 0v740h135c253.333 0 380 -123.333 380 -370s-126.667 -370 -380 -370h-135zM129 23h112c235.333 0 353 115.667 353 347s-117.667 347 -353 347h-112v-694z" />
    <glyph glyph-name="E" unicode="E" horiz-adv-x="580" 
d="M104 0v740h418v-23h-393v-312h298v-23h-298v-359h400v-23h-425z" />
    <glyph glyph-name="F" unicode="F" horiz-adv-x="559" 
d="M104 0v740h409v-23h-384v-313h289v-23h-289v-381h-25z" />
    <glyph glyph-name="G" unicode="G" horiz-adv-x="702" 
d="M362 -15c-82 0 -152.164 34.332 -210.497 102.999s-87.5 165.334 -87.5 290.001c0 103.333 26.667 192 80 266s124.666 111 213.999 111c123.333 0 209.333 -75.333 258 -226l-24 -8c-22.667 68 -51.834 120.167 -87.501 156.5s-84.5 54.5 -146.5 54.5
c-55.333 0 -103.833 -17 -145.5 -51s-72.667 -77.5 -93 -130.5s-30.5 -110.5 -30.5 -172.5c0 -116.667 26.5 -207.5 79.5 -272.5s117.5 -97.5 193.5 -97.5c70 0 126.5 27.333 169.5 82s63.167 126 60.5 214h-197v23h222v-327h-25v163
c-12.667 -47.333 -39.834 -88.833 -81.501 -124.5s-91.167 -53.5 -148.5 -53.5z" />
    <glyph glyph-name="H" unicode="H" horiz-adv-x="722" 
d="M104 0v740h25v-335h464v335h25v-740h-25v382h-464v-382h-25z" />
    <glyph glyph-name="I" unicode="I" horiz-adv-x="245" 
d="M110 0v740h25v-740h-25z" />
    <glyph glyph-name="J" unicode="J" horiz-adv-x="486" 
d="M388 740v-556c0 -66 -15.667 -115.667 -47 -149s-75.333 -50 -132 -50c-76.667 0 -134 37 -172 111l22 11c34.667 -66 84.667 -99 150 -99c102.667 0 154 58.667 154 176v556h25z" />
    <glyph glyph-name="K" unicode="K" horiz-adv-x="640" 
d="M129 257v-257h-25v740h25v-450l415 450h30l-258 -280l298 -460h-29l-285 442z" />
    <glyph glyph-name="L" unicode="L" horiz-adv-x="559" 
d="M104 0v740h25v-717h385v-23h-410z" />
    <glyph glyph-name="M" unicode="M" horiz-adv-x="858" 
d="M416 0l-288 677v-677h-24v740h23l302 -709l302 709h23v-740h-25v677l-288 -677h-25z" />
    <glyph glyph-name="N" unicode="N" horiz-adv-x="730" 
d="M104 0v740h27l471 -694v694h24v-740h-24l-474 700v-700h-24z" />
    <glyph glyph-name="O" unicode="O" horiz-adv-x="731" 
d="M365 -15c-86.667 0 -158 35.833 -214 107.5s-84 164.167 -84 277.5s28 205.833 84 277.5s127.333 107.5 214 107.5c86 0 157.333 -36 214 -108s85 -164.333 85 -277s-28.333 -205 -85 -277s-128 -108 -214 -108zM365 8c79.333 0 144.833 34 196.5 102
s77.5 154.667 77.5 260s-25.833 192 -77.5 260s-117.167 102 -196.5 102c-80 0 -145.5 -33.833 -196.5 -101.5s-76.5 -154.5 -76.5 -260.5s25.5 -192.833 76.5 -260.5s116.5 -101.5 196.5 -101.5z" />
    <glyph glyph-name="P" unicode="P" horiz-adv-x="610" 
d="M104 0v740h219c80 0 141.333 -17.5 184 -52.5s64 -81.167 64 -138.5c0 -56.667 -21.333 -102.167 -64 -136.5s-104 -51.5 -184 -51.5h-194v-361h-25zM129 384l194.999 -0.00195312c72 0 127 14.833 165 44.5s57 69.834 57 120.501s-19.167 91.334 -57.5 122.001
s-93.166 46 -164.499 46h-195v-333z" />
    <glyph glyph-name="Q" unicode="Q" horiz-adv-x="731" 
d="M376 -14c0.666992 -90 58.333 -135.001 173 -135.001h46v-23h-46c-131.333 0 -197.333 52.667 -198 158c-83.333 4 -151.5 41.5 -204.5 112.5s-79.5 161.5 -79.5 271.5c0 113.333 28 205.833 84 277.5s127.333 107.5 214 107.5c86 0 157.333 -36 214 -108
s85 -164.333 85 -277c0 -110 -27 -200.667 -81 -272s-123 -108.666 -207 -111.999zM364.999 7.99902c79.333 0 144.833 34 196.5 102s77.5 154.667 77.5 260s-25.833 192 -77.5 260s-117.167 102 -196.5 102c-80 0 -145.5 -33.833 -196.5 -101.5s-76.5 -154.5 -76.5 -260.5
s25.5 -192.833 76.5 -260.5s116.5 -101.5 196.5 -101.5z" />
    <glyph glyph-name="R" unicode="R" horiz-adv-x="655" 
d="M104 0v740h219c80 0 141.333 -17.5 184 -52.5s64 -81.167 64 -138.5c0 -51.333 -17.833 -93.5 -53.5 -126.5s-87.167 -52.5 -154.5 -58.5l210 -364h-29l-209 362h-206v-362h-25zM129 384l194.999 -0.00195312c72 0 127 14.833 165 44.5s57 69.834 57 120.501
s-19.167 91.334 -57.5 122.001s-93.166 46 -164.499 46h-195v-333z" />
    <glyph glyph-name="S" unicode="S" horiz-adv-x="633" 
d="M327 -15c-78.667 0 -138.171 17.3311 -178.504 51.998s-70.166 83.667 -89.499 147l24 8c18.667 -60 46.5 -105.667 83.5 -137s90.5 -47 160.5 -47c65.333 0 117.333 15 156 45s58 70.333 58 121c0 52.667 -15.167 92.834 -45.5 120.501s-87.166 55.167 -170.499 82.5
c-87.333 28.667 -146.166 56.5 -176.499 83.5s-45.5 68.833 -45.5 125.5c0 46.667 19.167 86.5 57.5 119.5s89.5 49.5 153.5 49.5c62.667 0 113.167 -15.667 151.5 -47s66.5 -72.666 84.5 -123.999l-24 -8c-38 104 -108.667 156 -212 156
c-57.333 0 -102.666 -14.167 -135.999 -42.5s-50 -62.833 -50 -103.5c0 -48.667 14.333 -85.334 43 -110.001s83 -50 163 -76c84.667 -27.333 144.5 -56.166 179.5 -86.499s52.5 -76.833 52.5 -139.5c0 -58 -22.167 -104 -66.5 -138s-101.833 -51 -172.5 -51z" />
    <glyph glyph-name="T" unicode="T" horiz-adv-x="608" 
d="M292 0v717h-253v23h530v-23h-252v-717h-25z" />
    <glyph glyph-name="U" unicode="U" horiz-adv-x="710" 
d="M354 -15c-78 0 -140 24 -186 72s-69 108 -69 180v503h25v-503c0 -64.667 20.833 -119 62.5 -163s97.5 -66 167.5 -66c68.667 0 124.5 21.5 167.5 64.5s64.5 95.167 64.5 156.5v511h25v-511c0 -68 -23.833 -125.667 -71.5 -173s-109.5 -71 -185.5 -71z" />
    <glyph glyph-name="V" unicode="V" horiz-adv-x="653" 
d="M313 -4l-271 744h27l258 -710l258 710h26l-271 -744h-27z" />
    <glyph glyph-name="W" unicode="W" horiz-adv-x="908" 
d="M455 691l-176 -691h-27l-206 740h27l193 -695l176 695h26l193 -695l176 695h25l-188 -740h-27z" />
    <glyph glyph-name="X" unicode="X" horiz-adv-x="639" 
d="M332 399l270 -399h-28l-257 379l-256 -379h-27l270 398l-231 342h28l218 -322l217 322h27z" />
    <glyph glyph-name="Y" unicode="Y" horiz-adv-x="597" 
d="M286 0v337l-252 403h27l238 -380l239 380h26l-253 -403v-337h-25z" />
    <glyph glyph-name="Z" unicode="Z" horiz-adv-x="613" 
d="M556 0h-509v23l484 695h-458v22h486v-23l-482 -695h479v-22z" />
    <glyph glyph-name="bracketleft" unicode="[" horiz-adv-x="371" 
d="M100 -200v940h211v-23h-186v-894h186v-23h-211z" />
    <glyph glyph-name="backslash" unicode="\" horiz-adv-x="519" 
d="M480 0h-25l-416 740h25z" />
    <glyph glyph-name="bracketright" unicode="]" horiz-adv-x="371" 
d="M271 740v-940h-211v23h186v894h-186v23h211z" />
    <glyph glyph-name="asciicircum" unicode="^" 
d="M105 577l137 156h16l137 -156h-21l-125 124l-123 -124h-21z" />
    <glyph glyph-name="underscore" unicode="_" 
d="M0 -100v25h500v-25h-500z" />
    <glyph glyph-name="grave" unicode="`" 
d="M285 582h-16l-133 151h43z" />
    <glyph glyph-name="a" unicode="a" horiz-adv-x="528" 
d="M427 338l-0.000976562 43.001c0 42 -10.5 74.667 -31.5 98s-52.833 35 -95.5 35c-80 0 -149.667 -29.667 -209 -89l-15 15c61.333 64 136 96 224 96c50.667 0 88.334 -13.333 113.001 -40s37 -64.334 37 -113.001v-269c0 -50 4 -88 12 -114h-23
c-7.33301 20 -11.333 51 -12 93c-26.667 -28 -60 -52.667 -100 -74s-81.667 -32 -125 -32c-46 0 -81.833 11 -107.5 33s-38.5 53.667 -38.5 95c0 60 30.833 107.5 92.5 142.5s154.5 61.833 278.5 80.5zM426.999 120.001l-0.000976562 198.002
c-125.333 -19.333 -214.666 -45.833 -267.999 -79.5s-80 -74.834 -80 -123.501c0 -34 10.833 -60.167 32.5 -78.5s51.834 -27.5 90.501 -27.5c43.333 0 85.666 11.667 126.999 35s74 48.666 98 75.999z" />
    <glyph glyph-name="b" unicode="b" horiz-adv-x="576" 
d="M86 0l-0.000976562 739.999h23v-302c22 26 49.333 48.833 82 68.5s68.334 29.5 107.001 29.5c66 0 118.833 -23.167 158.5 -69.5s59.5 -114.166 59.5 -203.499s-19.833 -157.333 -59.5 -204s-92.5 -70 -158.5 -70c-67.333 0 -130.333 33.333 -189 100v-89h-23z
M297.999 10.999c58.667 0 105.834 21.168 141.501 63.501s53.5 105.166 53.5 188.499c0 82.667 -18.333 145.167 -55 187.5s-84 63.5 -142 63.5c-68 0 -130.333 -34.333 -187 -103v-294c34 -37.333 65.167 -64.333 93.5 -81s60.166 -25 95.499 -25z" />
    <glyph glyph-name="c" unicode="c" horiz-adv-x="526" 
d="M470 137c-24.667 -50.667 -51.8291 -88.002 -81.4961 -112.002s-67.834 -36 -114.501 -36c-63.333 0 -115 26.333 -155 79s-60 117.334 -60 194.001c0 88.667 21.667 156.5 65 203.5s95.333 70.5 156 70.5c46.667 0 84.167 -11.833 112.5 -35.5s52.5 -59.5 72.5 -107.5
l-20 -10c-18.667 44 -40.334 76.833 -65.001 98.5s-58 32.5 -100 32.5c-54.667 0 -101.334 -21.667 -140.001 -65s-58 -105.666 -58 -186.999c0 -70 17.667 -129.333 53 -178s81.666 -73 138.999 -73c42 0 76.167 11 102.5 33s50.833 56.333 73.5 103z" />
    <glyph glyph-name="d" unicode="d" horiz-adv-x="576" 
d="M279 -11c-66 0 -118.832 23.168 -158.499 69.501s-59.5 114.166 -59.5 203.499s19.833 157.333 59.5 204s92.5 70 158.5 70c67.333 0 130.333 -33.333 189 -100v304h23v-626c0 -50 4 -88 12 -114h-23c-8 22.667 -12 51.667 -12 87c-22 -26 -49.333 -48.833 -82 -68.5
s-68.334 -29.5 -107.001 -29.5zM281.001 11.001c68 0 130.333 34.332 187 102.999v294c-34 37.333 -65.167 64.333 -93.5 81s-60.166 25 -95.499 25c-58.667 0 -105.834 -21.167 -141.501 -63.5s-53.5 -105.166 -53.5 -188.499c0 -82.667 18.333 -145.167 55 -187.5
s84 -63.5 142 -63.5z" />
    <glyph glyph-name="e" unicode="e" horiz-adv-x="534" 
d="M81 268v-7.00098c0 -67.333 17 -125.833 51 -175.5s80.667 -74.5 140 -74.5c66.667 0 128.667 40.333 186 121l18 -13c-61.333 -86.667 -129.333 -130 -204 -130c-66.667 0 -119 27 -157 81s-57 117.667 -57 191c0 88.667 21.667 156.834 65 204.501s94 71.5 152 71.5
s106 -23.167 144 -69.5s57 -111.833 57 -196.5v-3h-395zM82 288.999h369.999c-2.66699 71.333 -20.5 126.833 -53.5 166.5s-74.167 59.5 -123.5 59.5s-92.666 -19.667 -129.999 -59s-58.333 -95 -63 -167z" />
    <glyph glyph-name="f" unicode="f" horiz-adv-x="305" 
d="M128 503h-91.999v22h92v103c0 40 12.167 68.833 36.5 86.5s63.166 26.834 116.499 27.501v-22c-46.667 0 -80 -6.83301 -100 -20.5s-30 -36.834 -30 -69.501v-105h126v-22h-126v-503h-23v503z" />
    <glyph glyph-name="g" unicode="g" horiz-adv-x="554" 
d="M384 496c49.333 30 92.333 48.001 129 54.001v-24c-39.333 -6 -76.333 -21 -111 -45c35.333 -34 53 -77 53 -129c0 -51.333 -18 -94.333 -54 -129s-83 -52 -141 -52c-35.333 0 -66.333 6.66699 -93 20c-40.667 -20.667 -61 -43.667 -61 -69
c0 -20.667 10.667 -34.5 32 -41.5s66.333 -12.5 135 -16.5c74.667 -4.66699 130.5 -15.834 167.5 -33.501s55.5 -48.167 55.5 -91.5c0 -39.333 -20.833 -72.333 -62.5 -99s-99.5 -40 -173.5 -40c-155.333 0 -233 41.667 -233 125c0 30 11.5 56.333 34.5 79
s48.833 40.667 77.5 54c-37.333 10 -56 31.333 -56 64c0 30 21.667 56.333 65 79c-54 34.667 -81 85 -81 151c0 51.333 17.833 94.833 53.5 130.5s82.167 53.5 139.5 53.5c48.667 0 90 -13.333 124 -40zM260 514.001c-50.667 0 -91.667 -15.6689 -123 -47.002
s-47 -69.666 -47 -114.999s15.667 -83.166 47 -113.499s72.333 -45.5 123 -45.5s92 15.333 124 46s48 68.334 48 113.001c0 45.333 -16 83.666 -48 114.999s-73.333 47 -124 47zM167 51.999c-32 -12 -59.5 -29.166 -82.5 -51.499s-34.5 -47.5 -34.5 -75.5
c0 -68.667 70 -103 210 -103c67.333 0 119.666 11.167 156.999 33.5s56 50.166 56 83.499c0 19.333 -5.33301 35.833 -16 49.5s-26.167 24 -46.5 31s-41.166 12.167 -62.499 15.5s-47 6 -77 8c-50 2.66699 -84.667 5.66699 -104 9z" />
    <glyph glyph-name="h" unicode="h" horiz-adv-x="563" 
d="M86 0v740h23v-307c76.667 68.667 148.667 103 216 103c107.333 0 161 -55.333 161 -166v-370h-23v370c0 96 -46 144 -138 144c-68.667 0 -140.667 -35.667 -216 -107v-407h-23z" />
    <glyph glyph-name="i" unicode="i" horiz-adv-x="205" 
d="M87 662v42h32v-42h-32zM91 0v525h23v-525h-23z" />
    <glyph glyph-name="j" unicode="j" horiz-adv-x="205" 
d="M87 662v42h32v-42h-32zM17 -176c10.667 -2.66699 19.667 -4 27 -4c31.333 0 47 18.333 47 55v650h23v-645c0 -54 -22.667 -81 -68 -81c-7.33301 0 -17 1 -29 3v22z" />
    <glyph glyph-name="k" unicode="k" horiz-adv-x="512" 
d="M109 161v-161h-23v740h23v-550l310 335h26l-174 -188l199 -337h-25l-189 320z" />
    <glyph glyph-name="l" unicode="l" horiz-adv-x="205" 
d="M91 0v740h23v-740h-23z" />
    <glyph glyph-name="m" unicode="m" horiz-adv-x="908" 
d="M464 427c82.667 72.667 153.999 109.001 213.999 109.001c102 0 153 -55.333 153 -166v-370h-23v370c0 96 -43.333 144 -130 144c-64.667 0 -134.667 -36.333 -210 -109c1.33301 -14.667 2 -26.334 2 -35.001v-370h-23v370c0 96 -43.333 144 -130 144
c-63.333 0 -132.666 -35.667 -207.999 -107v-407h-23v525h23v-92c76.667 68.667 146 103 208 103c81.333 0 130.333 -36.333 147 -109z" />
    <glyph glyph-name="n" unicode="n" horiz-adv-x="563" 
d="M86 0v525h23v-92c76.667 68.667 148.667 103 216 103c107.333 0 161 -55.333 161 -166v-370h-23v370c0 96 -46 144 -138 144c-68.667 0 -140.667 -35.667 -216 -107v-407h-23z" />
    <glyph glyph-name="o" unicode="o" horiz-adv-x="567" 
d="M283 -11c-62 0 -114.833 25.832 -158.5 77.499s-65.5 116.834 -65.5 195.501c0 80.667 21.667 146.5 65 197.5s96.333 76.5 159 76.5c61.333 0 114.166 -25.667 158.499 -77s66.5 -117 66.5 -197c0 -78 -22.167 -143 -66.5 -195s-97.166 -78 -158.499 -78zM283 10.999
c56 0 103.668 23.833 143.001 71.5s59 107.5 59 179.5c0 73.333 -19.667 133.666 -59 180.999s-87 71 -143 71c-56.667 0 -104.334 -23.667 -143.001 -71s-58 -107.666 -58 -180.999c0 -72 19.5 -131.833 58.5 -179.5s86.5 -71.5 142.5 -71.5z" />
    <glyph glyph-name="p" unicode="p" horiz-adv-x="576" 
d="M86 -200l-0.000976562 724.999h23v-87c22 26 49.333 48.833 82 68.5s68.334 29.5 107.001 29.5c66 0 118.833 -23.167 158.5 -69.5s59.5 -114.166 59.5 -203.499s-19.833 -157.333 -59.5 -204s-92.5 -70 -158.5 -70c-67.333 0 -130.333 33.333 -189 100v-289h-23z
M297.999 10.999c58.667 0 105.834 21.168 141.501 63.501s53.5 105.166 53.5 188.499c0 82.667 -18.333 145.167 -55 187.5s-84 63.5 -142 63.5c-68 0 -130.333 -34.333 -187 -103v-294c34 -37.333 65.167 -64.333 93.5 -81s60.166 -25 95.499 -25z" />
    <glyph glyph-name="q" unicode="q" horiz-adv-x="576" 
d="M490 525l0.000976562 -724.999h-23v287c-22 -26 -49.333 -48.833 -82 -68.5s-68.334 -29.5 -107.001 -29.5c-66 0 -118.833 23.167 -158.5 69.5s-59.5 114.166 -59.5 203.499s19.833 157.333 59.5 204s92.5 70 158.5 70c67.333 0 130.333 -33.333 189 -100v89h23z
M278.001 514.001c-58.667 0 -105.834 -21.168 -141.501 -63.501s-53.5 -105.166 -53.5 -188.499c0 -82.667 18.333 -145.167 55 -187.5s84 -63.5 142 -63.5c68 0 130.333 34.333 187 103v294c-34 37.333 -65.167 64.333 -93.5 81s-60.166 25 -95.499 25z" />
    <glyph glyph-name="r" unicode="r" horiz-adv-x="385" 
d="M109 405c62.667 94.667 137.332 137.667 223.999 129l19 -2l-4 -20l-19 2c-85.333 8.66699 -158.666 -39 -219.999 -143v-371h-23v525h23v-120z" />
    <glyph glyph-name="s" unicode="s" 
d="M74 99c46.667 -58.667 104.332 -88 172.999 -88c51.333 0 92.166 11 122.499 33s45.5 52 45.5 90s-13.5 66.333 -40.5 85s-71.167 35.667 -132.5 51c-60.667 15.333 -104.167 32.833 -130.5 52.5s-39.5 49.834 -39.5 90.501c0 35.333 14.333 64.666 43 87.999
s68.667 35 120 35c76 0 137 -26.333 183 -79l-18 -14c-41.333 47.333 -96.333 71 -165 71c-46.667 0 -81.667 -9.66699 -105 -29s-35 -43.333 -35 -72c0 -34.667 11.833 -60.167 35.5 -76.5s63.167 -31.5 118.5 -45.5c32 -8 57.833 -15.5 77.5 -22.5
s38.834 -16.5 57.501 -28.5s32.334 -26.667 41.001 -44s13 -38 13 -62c0 -44 -17.5 -79.167 -52.5 -105.5s-81.167 -39.5 -138.5 -39.5c-79.333 0 -143 32 -191 96z" />
    <glyph glyph-name="t" unicode="t" horiz-adv-x="350" 
d="M128 503l-92 -0.000976562v22h92v191h23v-191h147v-22h-147v-392c0 -32.667 6.5 -56.667 19.5 -72s36.5 -23 70.5 -23c17.333 0 37 2 59 6v-22c-22.667 -4 -43.667 -6 -63 -6c-40.667 0 -69 9.83301 -85 29.5s-24 49.834 -24 90.501v389z" />
    <glyph glyph-name="u" unicode="u" horiz-adv-x="563" 
d="M477 525v-525h-23v92c-76.667 -68.667 -148.667 -103 -216 -103c-107.333 0 -161 55.333 -161 166v370h23v-370c0 -96 46 -144 138 -144c68.667 0 140.667 35.667 216 107v407h23z" />
    <glyph glyph-name="v" unicode="v" horiz-adv-x="501" 
d="M238 -4l-201 529h24l190 -500l190 500h23l-201 -529h-25z" />
    <glyph glyph-name="w" unicode="w" horiz-adv-x="744" 
d="M373 489l-143 -493h-22l-171 529h23l159 -493l142 493h23l159 -493l142 493h22l-153 -529h-22z" />
    <glyph glyph-name="x" unicode="x" horiz-adv-x="499" 
d="M237 268l-180 257h25l167 -238l167 238h24l-180 -254l190 -271h-25l-177 252l-177 -252h-24z" />
    <glyph glyph-name="y" unicode="y" horiz-adv-x="499" 
d="M251 27l188.001 498h23l-234 -619c-14 -38 -32.833 -65.667 -56.5 -83s-54.834 -26 -93.501 -26c-24.667 0 -53 4 -85 12l6 22c30 -8 56.333 -12 79 -12c34 0 61.167 7.66699 81.5 23s36.5 39.333 48.5 72l31 81l-202 530h24z" />
    <glyph glyph-name="z" unicode="z" horiz-adv-x="499" 
d="M443 0h-384v20l345 484h-327v21h354v-20l-345 -484h357v-21z" />
    <glyph glyph-name="braceleft" unicode="{" horiz-adv-x="361" 
d="M126 270c24 -6.66699 40.333 -17.5 49 -32.5s13 -38.833 13 -71.5v-260c0 -55.333 27.667 -83 83 -83h41v-23h-41c-38 0 -65.5 9 -82.5 27s-25.5 44.333 -25.5 79v260c0 35.333 -6.5 59.5 -19.5 72.5s-42.833 19.5 -89.5 19.5v24c47.333 0 77.333 6.33301 90 19
s19 37 19 73v260c0 34.667 8.5 61 25.5 79s44.5 27 82.5 27h41v-23h-41c-55.333 0 -83 -27.667 -83 -83v-260c0 -32 -4.5 -56 -13.5 -72s-25.167 -26.667 -48.5 -32z" />
    <glyph glyph-name="bar" unicode="|" horiz-adv-x="331" 
d="M153 -200v940h25v-940h-25z" />
    <glyph glyph-name="braceright" unicode="}" horiz-adv-x="361" 
d="M235 270c-24 6.66699 -40.333 17.5 -49 32.5s-13 38.833 -13 71.5v260c0 55.333 -27.667 83 -83 83h-41v23h41c38 0 65.5 -9 82.5 -27s25.5 -44.333 25.5 -79v-260c0 -35.333 6.5 -59.5 19.5 -72.5s42.833 -19.5 89.5 -19.5v-24c-47.333 0 -77.333 -6.33301 -90 -19
s-19 -37 -19 -73v-260c0 -34.667 -8.5 -61 -25.5 -79s-44.5 -27 -82.5 -27h-41v23h41c55.333 0 83 27.667 83 83v260c0 32 4.5 56 13.5 72s25.167 26.667 48.5 32z" />
    <glyph glyph-name="asciitilde" unicode="~" 
d="M399 512c0 -29.333 -5.66797 -50.666 -17.001 -63.999s-29 -20 -53 -20c-18 0 -46.333 11 -85 33c-34.667 19.333 -59 29 -73 29c-16.667 0 -28.667 -4.83301 -36 -14.5s-11 -25.5 -11 -47.5h-23c0 29.333 5.66699 50.666 17 63.999s29 20 53 20
c19.333 0 47.333 -10.667 84 -32c34.667 -20 59.334 -30 74.001 -30c16.667 0 28.667 4.83301 36 14.5s11 25.5 11 47.5h23z" />
    <glyph glyph-name="nbspace" unicode="&#xa0;" horiz-adv-x="100" 
 />
    <glyph glyph-name="exclamdown" unicode="&#xa1;" horiz-adv-x="295" 
d="M126 688v52h43v-52h-43zM134 0l5 587h17l5 -587h-27z" />
    <glyph glyph-name="cent" unicode="&#xa2;" horiz-adv-x="526" 
d="M196 5l-33.998 -133.001h-21l37 143c-36.667 21.333 -65.667 54.333 -87 99s-32 94 -32 148c0 88.667 21.667 156.5 65 203.5s95.333 70.5 156 70.5c8 0 19.333 -0.666992 34 -2l27 104h21l-28 -108c30.667 -8 56.167 -23.333 76.5 -46s38.5 -53 54.5 -91l-20 -10
c-14.667 34.667 -31 62.334 -49 83.001s-40.667 34.667 -68 42l-126 -481c23.333 -10.667 47.333 -16 72 -16c42 0 76.167 11 102.5 33s50.833 56.333 73.5 103l20 -10c-24.667 -50.667 -51.834 -88 -81.501 -112s-67.834 -36 -114.501 -36
c-26.667 0 -52.667 5.33301 -78 16zM184.002 36.999l124.001 474.999c-10.667 1.33301 -20 2 -28 2c-54.667 0 -101.334 -21.667 -140.001 -65s-58 -105.666 -58 -186.999c0 -48.667 9 -93.167 27 -133.5s43 -70.833 75 -91.5z" />
    <glyph glyph-name="sterling" unicode="&#xa3;" horiz-adv-x="586" 
d="M211 382l-124.002 -0.000976562v23h111c-38.667 68 -58 130 -58 186c0 52.667 17 93.167 51 121.5s75.333 42.5 124 42.5c58 0 101.833 -18.5 131.5 -55.5s45.5 -79.833 47.5 -128.5h-24c-2 42 -15.833 79.333 -41.5 112s-63.5 49 -113.5 49c-42 0 -77.5 -12 -106.5 -36
s-43.5 -59 -43.5 -105c0 -52 20.333 -114 61 -186h176v-23h-163c36.667 -66 55 -132.333 55 -199c0 -32 -4.33301 -60.667 -13 -86c16 -18.667 29.167 -33.167 39.5 -43.5s25 -20.333 44 -30s39.167 -14.5 60.5 -14.5c67.333 0 102 56 104 168h24
c-2 -127.333 -44.667 -191 -128 -191c-32 0 -59.5 7.5 -82.5 22.5s-46.5 36.5 -70.5 64.5c-28 -58.667 -69.333 -88 -124 -88c-31.333 0 -56.666 8.83301 -75.999 26.5s-29 40.834 -29 69.501c0 33.333 9.33301 59 28 77s43.334 27 74.001 27
c39.333 0 78.333 -21.667 117 -65c4.66699 18 7 39 7 63c0 64.667 -19.333 131 -58 199zM253.998 92.999l-3.00098 2.99902c-12.667 14 -23.167 25 -31.5 33s-19.166 15.5 -32.499 22.5s-27.333 10.5 -42 10.5c-23.333 0 -42 -7.16699 -56 -21.5s-21 -34.166 -21 -59.499
c0 -22 7.33301 -39.667 22 -53s34 -20 58 -20c48.667 0 84 28.333 106 85z" />
    <glyph glyph-name="currency" unicode="&#xa4;" horiz-adv-x="722" 
d="M130 436h-110v23h113c13.333 88.667 45 160.167 95 214.5s109.667 81.5 179 81.5c34.667 0 65.834 -6 93.501 -18s50.667 -29.167 69 -51.5s33.5 -45.5 45.5 -69.5s23 -52 33 -84l-24 -8c-9.33301 30 -19.166 56 -29.499 78s-23.833 43.667 -40.5 65
s-37.334 37.5 -62.001 48.5s-53 16.5 -85 16.5c-63.333 0 -117.5 -25.167 -162.5 -75.5s-73.833 -116.166 -86.5 -197.499h255v-23h-258c-2 -18.667 -3 -38.667 -3 -60c0 -25.333 1.33301 -47.666 4 -66.999h257v-23h-254c13.333 -82.667 42.666 -149.667 87.999 -201
s100.666 -77 165.999 -77c34.667 0 65.167 6.33301 91.5 19s48 30.667 65 54s30.333 45.833 40 67.5s18.834 46.834 27.501 75.501l24 -6c-6.66699 -25.333 -15.167 -49.333 -25.5 -72s-24.833 -47.334 -43.5 -74.001s-43.334 -47.834 -74.001 -63.501
s-65.667 -23.5 -105 -23.5c-72 0 -133.167 27.667 -183.5 83s-82.166 128 -95.499 218h-114v23h111c-2.66699 19.333 -4 41.666 -4 66.999c0 21.333 1 41.333 3 60z" />
    <glyph glyph-name="yen" unicode="&#xa5;" horiz-adv-x="597" 
d="M286 312v25l-252 403h27l238 -380l239 380h26l-253 -403v-25h205v-23h-205v-127h205v-23h-205v-139h-25v139h-203v23h203v127h-203v23h203z" />
    <glyph glyph-name="brokenbar" unicode="&#xa6;" horiz-adv-x="331" 
d="M153 368v372h25v-372h-25zM153 -200v372h25v-372h-25z" />
    <glyph glyph-name="section" unicode="&#xa7;" horiz-adv-x="512" 
d="M198 457c-38.667 24 -66.667 47.833 -84 71.5s-26 54.167 -26 91.5s15.333 69 46 95s71.667 39 123 39c54 0 96.167 -13.5 126.5 -40.5s50.166 -62.5 59.499 -106.5l-24 -6c-18.667 86.667 -72.667 130 -162 130c-44.667 0 -79.834 -10.667 -105.501 -32
s-38.5 -47.666 -38.5 -78.999c0 -41.333 12.167 -73.5 36.5 -96.5s68.833 -52.167 133.5 -87.5c30 -16.667 52.833 -29.834 68.5 -39.501s32.334 -21.834 50.001 -36.501s30.167 -29.667 37.5 -45s11 -32.666 11 -51.999c0 -69.333 -45.333 -124.666 -136 -165.999
c38.667 -24 66.667 -47.833 84 -71.5s26 -54.167 26 -91.5s-15.333 -69 -46 -95s-71.667 -39 -123 -39c-54 0 -96.167 13.5 -126.5 40.5s-50.166 62.5 -59.499 106.5l24 6c18.667 -86.667 72.667 -130 162 -130c44.667 0 79.834 10.667 105.501 32s38.5 47.666 38.5 78.999
c0 41.333 -12.167 73.5 -36.5 96.5s-68.833 52.167 -133.5 87.5c-30 16.667 -52.833 29.834 -68.5 39.501s-32.334 21.834 -50.001 36.501s-30.167 29.667 -37.5 45s-11 32.666 -11 51.999c0 69.333 45.333 124.666 136 165.999zM290 111
c90 36.667 134.999 87.332 134.999 151.999c0 20.667 -7.5 40.5 -22.5 59.5s-29.833 33.167 -44.5 42.5s-39 23.333 -73 42l-14 8l-49 28c-39.333 -16 -71.666 -37 -96.999 -63s-38 -55.667 -38 -89c0 -20.667 7.5 -40.5 22.5 -59.5s29.833 -33.167 44.5 -42.5
s39 -23.333 73 -42l14 -8c20.667 -11.333 37 -20.666 49 -27.999z" />
    <glyph glyph-name="dieresis" unicode="&#xa8;" 
d="M307 582v49h33v-49h-33zM160 582v49h33v-49h-33z" />
    <glyph glyph-name="copyright" unicode="&#xa9;" horiz-adv-x="862" 
d="M431 -14c-106 0 -196 37.5 -270 112.5s-111 165.5 -111 271.5s37 196.5 111 271.5s164 112.5 270 112.5s196 -37.5 270 -112.5s111 -165.5 111 -271.5s-37 -196.5 -111 -271.5s-164 -112.5 -270 -112.5zM431 8c100 0 184.833 35.333 254.5 106s104.5 156 104.5 256
s-34.833 185.333 -104.5 256s-154.5 106 -254.5 106s-184.833 -35.333 -254.5 -106s-104.5 -156 -104.5 -256s34.833 -185.333 104.5 -256s154.5 -106 254.5 -106zM429 156c-52.667 0 -94.667 20.5 -126 61.5s-47 94.5 -47 160.5c0 62.667 15.833 114.667 47.5 156
s73.5 62 125.5 62c78.667 0 130 -44.667 154 -134l-22 -6c-20 78.667 -64 118 -132 118c-46 0 -82.667 -18.667 -110 -56s-41 -84 -41 -140c0 -59.333 13.667 -107.5 41 -144.5s64 -55.5 110 -55.5c72 0 118 41 138 123l22 -6c-11.333 -44.667 -30.833 -79 -58.5 -103
s-61.5 -36 -101.5 -36z" />
    <glyph glyph-name="ordfeminine" unicode="&#xaa;" horiz-adv-x="400" 
d="M321 615l0.00292969 27.998c0 59.333 -27.667 89 -83 89c-58.667 0 -108.334 -21.667 -149.001 -65l-16 16c47.333 47.333 102.333 71 165 71c70.667 0 106 -37 106 -111v-182c0 -39.333 4 -66.666 12 -81.999h-25c-6 16 -9.33301 36.667 -10 62
c-48.667 -46 -99.334 -69 -152.001 -69c-34 0 -60.167 7.66699 -78.5 23s-27.5 37 -27.5 65c0 38.667 18.167 70.334 54.5 95.001s104.166 44.667 203.499 60zM321.003 466.998l-0.000976562 127c-89.333 -14 -150.833 -31.5 -184.5 -52.5s-50.5 -48.167 -50.5 -81.5
c0 -44 27.667 -66 83 -66c54.667 0 105.334 24.333 152.001 73z" />
    <glyph glyph-name="guillemotleft" unicode="&#xab;" horiz-adv-x="481" 
d="M383 0l-143 263l143 262h25l-144 -262l144 -263h-25zM205 0l-143 263l143 262h25l-144 -262l144 -263h-25z" />
    <glyph glyph-name="logicalnot" unicode="&#xac;" horiz-adv-x="780" 
d="M378 0l2 199l-141 -2l1 -43h-23v43h-43v23l43 -1l2 141l-199 -3v25l199 -2l-2 141l-43 -1v23h43v43h23l-1 -44l141 -1l-2 199h25l-3 -199l141 1l-1 44h23l-1 -44l44 1v-23h-44l-1 -140l199 2v-25l-199 3l1 -141l44 1v-23h-44l1 -43h-23v44l-140 1l3 -199h-25zM400 380
h142l-2 140l-140 2v-142zM238 380h142v142l-141 -1zM400 218l140 1l2 141h-142v-142zM380 218v142h-142l1 -141z" />
    <glyph glyph-name="registered" unicode="&#xae;" horiz-adv-x="862" 
d="M431 -14c-106 0 -196 37.5 -270 112.5s-111 165.5 -111 271.5s37 196.5 111 271.5s164 112.5 270 112.5s196 -37.5 270 -112.5s111 -165.5 111 -271.5s-37 -196.5 -111 -271.5s-164 -112.5 -270 -112.5zM431 8c100 0 184.833 35.333 254.5 106s104.5 156 104.5 256
s-34.833 185.333 -104.5 256s-154.5 106 -254.5 106s-184.833 -35.333 -254.5 -106s-104.5 -156 -104.5 -256s34.833 -185.333 104.5 -256s154.5 -106 254.5 -106zM309 158v425h140c46.667 0 82.5 -9.83301 107.5 -29.5s37.5 -47.5 37.5 -83.5
c0 -72.667 -43.333 -111.667 -130 -117l119 -188h-24l-118 187h-110v-194h-22zM331 373h113.999c84.667 0 127 32.333 127 97c0 30 -10.667 52.833 -32 68.5s-51.666 23.5 -90.999 23.5h-118v-189z" />
    <glyph glyph-name="macron" unicode="&#xaf;" 
d="M114 629v24h272v-24h-272z" />
    <glyph glyph-name="degree" unicode="&#xb0;" horiz-adv-x="400" 
d="M200 484c-38 0 -69.833 12.833 -95.5 38.5s-38.5 57.834 -38.5 96.501s12.833 70.834 38.5 96.501s57.5 38.5 95.5 38.5s69.833 -12.833 95.5 -38.5s38.5 -57.834 38.5 -96.501s-12.833 -70.834 -38.5 -96.501s-57.5 -38.5 -95.5 -38.5zM200 732
c-32 0 -58.333 -10.667 -79 -32s-31 -48.333 -31 -81s10.333 -59.667 31 -81s47 -32 79 -32s58.333 10.667 79 32s31 48.333 31 81s-10.333 59.667 -31 81s-47 32 -79 32z" />
    <glyph glyph-name="plusminus" unicode="&#xb1;" horiz-adv-x="791" 
d="M400 525l0.00195312 103c0 40 12.167 68.833 36.5 86.5s63.166 26.834 116.499 27.501v-22c-46.667 0 -80 -6.83301 -100 -20.5s-30 -36.834 -30 -69.501v-105h126v-22h-126v-503h-23v503h-249v-503h-23v503h-92v22h92v103c0 40 12.167 68.833 36.5 86.5
s63.166 26.834 116.499 27.501v-22c-46.667 0 -80 -6.83301 -100 -20.5s-30 -36.834 -30 -69.501v-105h249zM672.002 0v740h23v-740h-23z" />
    <glyph glyph-name="twosuperior" unicode="&#xb2;" horiz-adv-x="433" 
d="M74 319v16.999c0 30.667 11.333 60.167 34 88.5s65.667 59.833 129 94.5c32.667 18 56.5 35.833 71.5 53.5s22.5 37.834 22.5 60.501c0 27.333 -9.33301 50 -28 68s-44.334 27 -77.001 27c-28.667 0 -53 -6 -73 -18s-38.333 -32 -55 -60l-18 12
c34 58.667 82.667 88 146 88c39.333 0 70.5 -11.167 93.5 -33.5s34.5 -50.166 34.5 -83.499c0 -28 -8.33301 -52 -25 -72s-44.334 -40.333 -83.001 -61c-55.333 -30 -93.666 -57.333 -114.999 -82s-32.666 -50.334 -33.999 -77.001h258v-22h-281z" />
    <glyph glyph-name="threesuperior" unicode="&#xb3;" horiz-adv-x="433" 
d="M250 546c73.333 -7.33301 110 -45.333 110 -114c0 -34 -12.833 -62.5 -38.5 -85.5s-60.834 -34.5 -105.501 -34.5c-66 0 -117 29 -153 87l18 12c32.667 -51.333 77.667 -77 135 -77c37.333 0 66.833 9.16699 88.5 27.5s32.5 41.833 32.5 70.5
c0 34.667 -11.667 60.5 -35 77.5s-60.333 25.5 -111 25.5h-28v22h32c88.667 0 133 29.667 133 89c0 24 -9 43.667 -27 59s-45.333 23 -82 23c-46 0 -84 -20.667 -114 -62l-18 12c34 48 78 72 132 72c44.667 0 77.834 -9.83301 99.501 -29.5s32.5 -44.5 32.5 -74.5
c0 -54.667 -33.667 -88 -101 -100z" />
    <glyph glyph-name="acute" unicode="&#xb4;" 
d="M215 582l106 151h43l-133 -151h-16z" />
    <glyph glyph-name="paragraph" unicode="&#xb6;" horiz-adv-x="591" 
d="M287 -200l-0.000976562 596.001c-67.333 -1.33301 -119.166 12.667 -155.499 42s-54.5 72.666 -54.5 129.999c0 51.333 17.5 92.833 52.5 124.5s83.833 47.5 146.5 47.5h213v-940h-25v917h-152v-917h-25z" />
    <glyph glyph-name="periodcentered" unicode="&#xb7;" horiz-adv-x="255" 
d="M106 288v52h43v-52h-43z" />
    <glyph glyph-name="cedilla" unicode="&#xb8;" 
d="M144 -139c31.333 -22.667 67.667 -34 109 -34c26 0 47.333 5.5 64 16.5s25 27.167 25 48.5c0 10.667 -4.5 19.667 -13.5 27s-20.5 11 -34.5 11c-18.667 0 -41 -9.33301 -67 -28l-16 12l25 86h22l-22 -73c16 16 35.333 24 58 24c20.667 0 37.667 -5.66699 51 -17
s20 -25.333 20 -42c0 -27.333 -10.5 -48.5 -31.5 -63.5s-47.833 -22.5 -80.5 -22.5c-46 0 -86.333 12.667 -121 38z" />
    <glyph glyph-name="onesuperior" unicode="&#xb9;" horiz-adv-x="414" 
d="M115 318l-0.000976562 22h90v377c-7.33301 -6 -20.166 -11.167 -38.499 -15.5s-34.833 -6.5 -49.5 -6.5v22c46 0 75.667 7.66699 89 23h22v-400h81v-22h-194z" />
    <glyph glyph-name="ordmasculine" unicode="&#xba;" horiz-adv-x="416" 
d="M208 754c44.667 0 82.667 -17.667 114 -53s47 -81.666 47 -138.999c0 -55.333 -15.833 -101 -47.5 -137s-69.5 -54 -113.5 -54s-81.833 18 -113.5 54s-47.5 81.667 -47.5 137c0 57.333 15.667 103.666 47 138.999s69.333 53 114 53zM208 393
c39.333 0 72.166 15.833 98.499 47.5s39.5 72.167 39.5 121.5c0 51.333 -13.167 92.5 -39.5 123.5s-59.166 46.5 -98.499 46.5s-72.166 -15.5 -98.499 -46.5s-39.5 -72.167 -39.5 -123.5c0 -49.333 13.167 -89.833 39.5 -121.5s59.166 -47.5 98.499 -47.5z" />
    <glyph glyph-name="guillemotright" unicode="&#xbb;" horiz-adv-x="481" 
d="M276 525l143 -263l-143 -262h-25l144 262l-144 263h25zM98 525l143 -263l-143 -262h-25l144 262l-144 263h25z" />
    <glyph glyph-name="onequarter" unicode="&#xbc;" horiz-adv-x="849" 
d="M115 318l-0.000976562 22h90v377c-7.33301 -6 -20.166 -11.167 -38.499 -15.5s-34.833 -6.5 -49.5 -6.5v22c46 0 75.667 7.66699 89 23h22v-400h81v-22h-194zM180.999 0l486 740h25l-486 -740h-25zM675.999 0v113h-218v14l223 295h18v-288h79v-21h-79v-113h-23z
M486.999 134h189v250z" />
    <glyph glyph-name="onehalf" unicode="&#xbd;" horiz-adv-x="918" 
d="M115 318l-0.000976562 22h90v377c-7.33301 -6 -20.166 -11.167 -38.499 -15.5s-34.833 -6.5 -49.5 -6.5v22c46 0 75.667 7.66699 89 23h22v-400h81v-22h-194zM180.999 0l486 740h25l-486 -740h-25zM549.999 22l258 -0.000976562v-22h-281v17
c0 30.667 11.333 60.167 34 88.5s65.667 59.833 129 94.5c32.667 18 56.5 35.833 71.5 53.5s22.5 37.834 22.5 60.501c0 27.333 -9.33301 50 -28 68s-44.334 27 -77.001 27c-28.667 0 -53 -6 -73 -18s-38.333 -32 -55 -60l-18 12c34 58.667 82.667 88 146 88
c39.333 0 70.5 -11.167 93.5 -33.5s34.5 -50.166 34.5 -83.499c0 -28 -8.33301 -52 -25 -72s-44.334 -40.333 -83.001 -61c-55.333 -30 -93.666 -57.333 -114.999 -82s-32.666 -50.334 -33.999 -77.001z" />
    <glyph glyph-name="threequarters" unicode="&#xbe;" horiz-adv-x="873" 
d="M250 546c73.333 -7.33301 110 -45.333 110 -114c0 -34 -12.833 -62.5 -38.5 -85.5s-60.834 -34.5 -105.501 -34.5c-66 0 -117 29 -153 87l18 12c32.667 -51.333 77.667 -77 135 -77c37.333 0 66.833 9.16699 88.5 27.5s32.5 41.833 32.5 70.5
c0 34.667 -11.667 60.5 -35 77.5s-60.333 25.5 -111 25.5h-28v22h32c88.667 0 133 29.667 133 89c0 24 -9 43.667 -27 59s-45.333 23 -82 23c-46 0 -84 -20.667 -114 -62l-18 12c34 48 78 72 132 72c44.667 0 77.834 -9.83301 99.501 -29.5s32.5 -44.5 32.5 -74.5
c0 -54.667 -33.667 -88 -101 -100zM214 0l486 740h25l-486 -740h-25zM709 0v113h-218v14l223 295h18v-288h79v-21h-79v-113h-23zM520 134h189v250z" />
    <glyph glyph-name="questiondown" unicode="&#xbf;" horiz-adv-x="521" 
d="M322 740v-52h-43v52h43zM474 109c-18.667 -32.667 -46.834 -61.5 -84.501 -86.5s-80.167 -37.5 -127.5 -37.5c-62 0 -111.333 16.167 -148 48.5s-55 76.166 -55 131.499c0 23.333 2.83301 43.666 8.5 60.999s15.5 33.333 29.5 48s27.333 26.834 40 36.501
s31.334 22.167 56.001 37.5c43.333 27.333 70 54.333 80 81s15 76.334 15 149.001h25c0 -78 -5.66699 -131.333 -17 -160s-41.333 -58 -90 -88c-44 -27.333 -75.333 -51.833 -94 -73.5s-28 -52.167 -28 -91.5c0 -48 16.333 -86.167 49 -114.5s75.667 -42.5 129 -42.5
c42.667 0 81.167 11.5 115.5 34.5s59.5 49.167 75.5 78.5z" />
    <glyph glyph-name="Agrave" unicode="&#xc0;" horiz-adv-x="647" 
d="M41 0l269 744h27l269 -744h-27l-96 266h-320l-96 -266h-26zM171 289h304l-152 421zM358 787h-16l-133 151h43z" />
    <glyph glyph-name="Aacute" unicode="&#xc1;" horiz-adv-x="647" 
d="M41 0l269 744h27l269 -744h-27l-96 266h-320l-96 -266h-26zM171 289h304l-152 421zM288 787l106 151h43l-133 -151h-16z" />
    <glyph glyph-name="Acircumflex" unicode="&#xc2;" horiz-adv-x="647" 
d="M41 0l269 744h27l269 -744h-27l-96 266h-320l-96 -266h-26zM171 289h304l-152 421zM178 772l137 156h16l137 -156h-21l-125 124l-123 -124h-21z" />
    <glyph glyph-name="Atilde" unicode="&#xc3;" horiz-adv-x="647" 
d="M41 0l269 744h27l269 -744h-27l-96 266h-320l-96 -266h-26zM171 289h304l-152 421zM472 871c0 -29.333 -5.66797 -50.666 -17.001 -63.999s-29 -20 -53 -20c-18 0 -46.333 11 -85 33c-34.667 19.333 -59 29 -73 29c-16.667 0 -28.667 -4.83301 -36 -14.5
s-11 -25.5 -11 -47.5h-23c0 29.333 5.66699 50.666 17 63.999s29 20 53 20c19.333 0 47.333 -10.667 84 -32c34.667 -20 59.334 -30 74.001 -30c16.667 0 28.667 4.83301 36 14.5s11 25.5 11 47.5h23z" />
    <glyph glyph-name="Adieresis" unicode="&#xc4;" horiz-adv-x="647" 
d="M41 0l269 744h27l269 -744h-27l-96 266h-320l-96 -266h-26zM171 289h304l-152 421zM380 787v49h33v-49h-33zM233 787v49h33v-49h-33z" />
    <glyph glyph-name="Aring" unicode="&#xc5;" horiz-adv-x="647" 
d="M41 0l260 717.001c-20 5.33301 -36 15.666 -48 30.999s-18 33.333 -18 54c0 24.667 8.33301 45.167 25 61.5s37.667 24.5 63 24.5s46.333 -8.16699 63 -24.5s25 -36.833 25 -61.5c0 -20.667 -6 -38.667 -18 -54s-27.667 -25.333 -47 -30l260 -718h-27l-96 266h-320
l-96 -266h-26zM323 737.001c19.333 0 35 6.16699 47 18.5s18 27.833 18 46.5s-6.16699 34 -18.5 46s-27.833 18 -46.5 18s-34.167 -6 -46.5 -18s-18.5 -27.333 -18.5 -46s6 -34.167 18 -46.5s27.667 -18.5 47 -18.5zM171 289.001h304l-152 421z" />
    <glyph glyph-name="AE" unicode="&#xc6;" horiz-adv-x="972" 
d="M227 267l-158 -267h-26l439 740h432v-23h-393v-313h298v-23h-298v-358h400v-23h-425v267h-269zM496 290v430l-255 -430h255z" />
    <glyph glyph-name="Ccedilla" unicode="&#xc7;" horiz-adv-x="692" 
d="M328 -12c-78 11.333 -141.003 52.833 -189.003 124.5s-72 159.5 -72 263.5c0 109.333 28 199.833 84 271.5s126.333 107.5 211 107.5c36.667 0 69.667 -6 99 -18s54 -29 74 -51s36.333 -45.333 49 -70s24 -52.667 34 -84l-24 -8c-19.333 62.667 -46.833 113 -82.5 151
s-85.5 57 -149.5 57c-78 0 -142.5 -33.667 -193.5 -101s-76.5 -152.333 -76.5 -255c0 -105.333 25.667 -193 77 -263s117.666 -105 198.999 -105c117.333 0 197 72 239 216l24 -6c-5.33301 -19.333 -11.666 -38 -18.999 -56s-18.166 -38.333 -32.499 -61
s-30.666 -42 -48.999 -58s-41.666 -29.667 -69.999 -41s-59.166 -17 -92.499 -17c-8 0 -14 0.333008 -18 1l-18 -59c16 16 35.333 24 58 24c20.667 0 37.667 -5.66699 51 -17s20 -25.333 20 -42c0 -27.333 -10.5 -48.5 -31.5 -63.5s-47.833 -22.5 -80.5 -22.5
c-46 0 -86.333 12.667 -121 38l12 17c31.333 -22.667 67.666 -34 108.999 -34c26 0 47.333 5.5 64 16.5s25 27.167 25 48.5c0 10.667 -4.5 19.667 -13.5 27s-20.5 11 -34.5 11c-18.667 0 -41 -9.33301 -67 -28l-16 12z" />
    <glyph glyph-name="Egrave" unicode="&#xc8;" horiz-adv-x="580" 
d="M104 0v740h418v-23h-393v-312h298v-23h-298v-359h400v-23h-425zM355 787h-16l-133 151h43z" />
    <glyph glyph-name="Eacute" unicode="&#xc9;" horiz-adv-x="580" 
d="M104 0v740h418v-23h-393v-312h298v-23h-298v-359h400v-23h-425zM255 787l106 151h43l-133 -151h-16z" />
    <glyph glyph-name="Ecircumflex" unicode="&#xca;" horiz-adv-x="580" 
d="M104 0v740h418v-23h-393v-312h298v-23h-298v-359h400v-23h-425zM175 782l137 156h16l137 -156h-21l-125 124l-123 -124h-21z" />
    <glyph glyph-name="Edieresis" unicode="&#xcb;" horiz-adv-x="580" 
d="M104 0v740h418v-23h-393v-312h298v-23h-298v-359h400v-23h-425zM377 787v49h33v-49h-33zM230 787v49h33v-49h-33z" />
    <glyph glyph-name="Igrave" unicode="&#xcc;" horiz-adv-x="245" 
d="M110 0v740h25v-740h-25zM132 787h-16l-133 151h43z" />
    <glyph glyph-name="Iacute" unicode="&#xcd;" horiz-adv-x="245" 
d="M110 0v740h25v-740h-25zM112 787l106 151h43l-133 -151h-16z" />
    <glyph glyph-name="Icircumflex" unicode="&#xce;" horiz-adv-x="245" 
d="M110 0v740h25v-740h-25zM-23 782l137 156h16l137 -156h-21l-125 124l-123 -124h-21z" />
    <glyph glyph-name="Idieresis" unicode="&#xcf;" horiz-adv-x="245" 
d="M110 0v740h25v-740h-25zM179 787v49h33v-49h-33zM32 787v49h33v-49h-33z" />
    <glyph glyph-name="Eth" unicode="&#xd0;" horiz-adv-x="686" 
d="M104 374h-80v23h80v343h135c253.333 0 380 -123.333 380 -370s-126.667 -370 -380 -370h-135v374zM129 397h137v-23h-137v-351h112c235.333 0 353 115.667 353 347s-117.667 347 -353 347h-112v-320z" />
    <glyph glyph-name="Ntilde" unicode="&#xd1;" horiz-adv-x="730" 
d="M104 0v740h27l471 -694v694h24v-740h-24l-474 700v-700h-24zM514 871c0 -29.333 -5.66797 -50.666 -17.001 -63.999s-29 -20 -53 -20c-18 0 -46.333 11 -85 33c-34.667 19.333 -59 29 -73 29c-16.667 0 -28.667 -4.83301 -36 -14.5s-11 -25.5 -11 -47.5h-23
c0 29.333 5.66699 50.666 17 63.999s29 20 53 20c19.333 0 47.333 -10.667 84 -32c34.667 -20 59.334 -30 74.001 -30c16.667 0 28.667 4.83301 36 14.5s11 25.5 11 47.5h23z" />
    <glyph glyph-name="Ograve" unicode="&#xd2;" horiz-adv-x="731" 
d="M365 -15c-86.667 0 -158 35.833 -214 107.5s-84 164.167 -84 277.5s28 205.833 84 277.5s127.333 107.5 214 107.5c86 0 157.333 -36 214 -108s85 -164.333 85 -277s-28.333 -205 -85 -277s-128 -108 -214 -108zM365 8c79.333 0 144.833 34 196.5 102
s77.5 154.667 77.5 260s-25.833 192 -77.5 260s-117.167 102 -196.5 102c-80 0 -145.5 -33.833 -196.5 -101.5s-76.5 -154.5 -76.5 -260.5s25.5 -192.833 76.5 -260.5s116.5 -101.5 196.5 -101.5zM400 787h-16l-133 151h43z" />
    <glyph glyph-name="Oacute" unicode="&#xd3;" horiz-adv-x="731" 
d="M365 -15c-86.667 0 -158 35.833 -214 107.5s-84 164.167 -84 277.5s28 205.833 84 277.5s127.333 107.5 214 107.5c86 0 157.333 -36 214 -108s85 -164.333 85 -277s-28.333 -205 -85 -277s-128 -108 -214 -108zM365 8c79.333 0 144.833 34 196.5 102
s77.5 154.667 77.5 260s-25.833 192 -77.5 260s-117.167 102 -196.5 102c-80 0 -145.5 -33.833 -196.5 -101.5s-76.5 -154.5 -76.5 -260.5s25.5 -192.833 76.5 -260.5s116.5 -101.5 196.5 -101.5zM330 787l106 151h43l-133 -151h-16z" />
    <glyph glyph-name="Ocircumflex" unicode="&#xd4;" horiz-adv-x="731" 
d="M365 -15c-86.667 0 -158 35.833 -214 107.5s-84 164.167 -84 277.5s28 205.833 84 277.5s127.333 107.5 214 107.5c86 0 157.333 -36 214 -108s85 -164.333 85 -277s-28.333 -205 -85 -277s-128 -108 -214 -108zM365 8c79.333 0 144.833 34 196.5 102
s77.5 154.667 77.5 260s-25.833 192 -77.5 260s-117.167 102 -196.5 102c-80 0 -145.5 -33.833 -196.5 -101.5s-76.5 -154.5 -76.5 -260.5s25.5 -192.833 76.5 -260.5s116.5 -101.5 196.5 -101.5zM220 782l137 156h16l137 -156h-21l-125 124l-123 -124h-21z" />
    <glyph glyph-name="Otilde" unicode="&#xd5;" horiz-adv-x="731" 
d="M365 -15c-86.667 0 -158 35.833 -214 107.5s-84 164.167 -84 277.5s28 205.833 84 277.5s127.333 107.5 214 107.5c86 0 157.333 -36 214 -108s85 -164.333 85 -277s-28.333 -205 -85 -277s-128 -108 -214 -108zM365 8c79.333 0 144.833 34 196.5 102
s77.5 154.667 77.5 260s-25.833 192 -77.5 260s-117.167 102 -196.5 102c-80 0 -145.5 -33.833 -196.5 -101.5s-76.5 -154.5 -76.5 -260.5s25.5 -192.833 76.5 -260.5s116.5 -101.5 196.5 -101.5zM514 871c0 -29.333 -5.66797 -50.666 -17.001 -63.999s-29 -20 -53 -20
c-18 0 -46.333 11 -85 33c-34.667 19.333 -59 29 -73 29c-16.667 0 -28.667 -4.83301 -36 -14.5s-11 -25.5 -11 -47.5h-23c0 29.333 5.66699 50.666 17 63.999s29 20 53 20c19.333 0 47.333 -10.667 84 -32c34.667 -20 59.334 -30 74.001 -30
c16.667 0 28.667 4.83301 36 14.5s11 25.5 11 47.5h23z" />
    <glyph glyph-name="Odieresis" unicode="&#xd6;" horiz-adv-x="731" 
d="M365 -15c-86.667 0 -158 35.833 -214 107.5s-84 164.167 -84 277.5s28 205.833 84 277.5s127.333 107.5 214 107.5c86 0 157.333 -36 214 -108s85 -164.333 85 -277s-28.333 -205 -85 -277s-128 -108 -214 -108zM365 8c79.333 0 144.833 34 196.5 102
s77.5 154.667 77.5 260s-25.833 192 -77.5 260s-117.167 102 -196.5 102c-80 0 -145.5 -33.833 -196.5 -101.5s-76.5 -154.5 -76.5 -260.5s25.5 -192.833 76.5 -260.5s116.5 -101.5 196.5 -101.5zM422 787v49h33v-49h-33zM275 787v49h33v-49h-33z" />
    <glyph glyph-name="multiply" unicode="&#xd7;" horiz-adv-x="624" 
d="M143 141l-15 15l167 168l-167 168l16 16l168 -168l167 168l16 -16l-168 -167l168 -168l-16 -16l-168 167z" />
    <glyph glyph-name="Oslash" unicode="&#xd8;" horiz-adv-x="731" 
d="M581 645c55.333 -72.667 82.999 -164.333 82.999 -275c0 -112.667 -28.333 -205 -85 -277s-128 -108 -214 -108c-77.333 0 -143.666 29.667 -198.999 89l-65 -89l-18 12l69 94c-56.667 72.667 -85 165.667 -85 279s28 205.833 84 277.5s127.333 107.5 214 107.5
c78.667 0 146 -31 202 -93l68 93l18 -12zM166.999 112.001l385 530c-50.667 60 -113 90 -187 90c-80 0 -145.5 -33.833 -196.5 -101.5s-76.5 -154.5 -76.5 -260.5c0 -105.333 25 -191.333 75 -258zM565.999 624.001l-385 -530c50 -57.333 111.333 -86 184 -86
c79.333 0 144.833 34 196.5 102s77.5 154.667 77.5 260c0 101.333 -24.333 186 -73 254z" />
    <glyph glyph-name="Ugrave" unicode="&#xd9;" horiz-adv-x="710" 
d="M354 -15c-78 0 -140 24 -186 72s-69 108 -69 180v503h25v-503c0 -64.667 20.833 -119 62.5 -163s97.5 -66 167.5 -66c68.667 0 124.5 21.5 167.5 64.5s64.5 95.167 64.5 156.5v511h25v-511c0 -68 -23.833 -125.667 -71.5 -173s-109.5 -71 -185.5 -71zM390 787h-16
l-133 151h43z" />
    <glyph glyph-name="Uacute" unicode="&#xda;" horiz-adv-x="710" 
d="M354 -15c-78 0 -140 24 -186 72s-69 108 -69 180v503h25v-503c0 -64.667 20.833 -119 62.5 -163s97.5 -66 167.5 -66c68.667 0 124.5 21.5 167.5 64.5s64.5 95.167 64.5 156.5v511h25v-511c0 -68 -23.833 -125.667 -71.5 -173s-109.5 -71 -185.5 -71zM320 787l106 151h43
l-133 -151h-16z" />
    <glyph glyph-name="Ucircumflex" unicode="&#xdb;" horiz-adv-x="710" 
d="M354 -15c-78 0 -140 24 -186 72s-69 108 -69 180v503h25v-503c0 -64.667 20.833 -119 62.5 -163s97.5 -66 167.5 -66c68.667 0 124.5 21.5 167.5 64.5s64.5 95.167 64.5 156.5v511h25v-511c0 -68 -23.833 -125.667 -71.5 -173s-109.5 -71 -185.5 -71zM210 782l137 156h16
l137 -156h-21l-125 124l-123 -124h-21z" />
    <glyph glyph-name="Udieresis" unicode="&#xdc;" horiz-adv-x="710" 
d="M354 -15c-78 0 -140 24 -186 72s-69 108 -69 180v503h25v-503c0 -64.667 20.833 -119 62.5 -163s97.5 -66 167.5 -66c68.667 0 124.5 21.5 167.5 64.5s64.5 95.167 64.5 156.5v511h25v-511c0 -68 -23.833 -125.667 -71.5 -173s-109.5 -71 -185.5 -71zM412 787v49h33v-49
h-33zM265 787v49h33v-49h-33z" />
    <glyph glyph-name="Yacute" unicode="&#xdd;" horiz-adv-x="597" 
d="M286 0v337l-252 403h27l238 -380l239 380h26l-253 -403v-337h-25zM263 787l106 151h43l-133 -151h-16z" />
    <glyph glyph-name="Thorn" unicode="&#xde;" horiz-adv-x="610" 
d="M104 0v740h25v-134h194c80 0 141.333 -17.5 184 -52.5s64 -81.167 64 -138.5c0 -56.667 -21.333 -102.167 -64 -136.5s-104 -51.5 -184 -51.5h-194v-227h-25zM129 250l194.999 -0.00195312c72 0 127 14.833 165 44.5s57 69.834 57 120.501s-19.167 91.334 -57.5 122.001
s-93.166 46 -164.499 46h-195v-333z" />
    <glyph glyph-name="germandbls" unicode="&#xdf;" horiz-adv-x="580" 
d="M329 420c60.667 -7.33301 108.835 -30.334 144.502 -69.001s53.5 -87.667 53.5 -147c0 -68 -16 -120.5 -48 -157.5s-75 -55.5 -129 -55.5s-102 18.667 -144 56l14 16c38 -33.333 81.333 -50 130 -50c47.333 0 84.833 16.667 112.5 50s41.5 80.333 41.5 141
c0 65.333 -21.667 115.333 -65 150s-99 52.667 -167 54v22c55.333 0 96.833 13.667 124.5 41s41.5 59.333 41.5 96c0 48 -15.333 85 -46 111s-69.334 39 -116.001 39c-52 0 -92.833 -16.667 -122.5 -50s-44.5 -81 -44.5 -143v-524h-23v524c0 69.333 17 122.5 51 159.5
s80.333 55.5 139 55.5c52.667 0 96.667 -15 132 -45s53 -72.333 53 -127c0 -34 -11.333 -65.167 -34 -93.5s-55.334 -46.166 -98.001 -53.499z" />
    <glyph glyph-name="agrave" unicode="&#xe0;" horiz-adv-x="528" 
d="M427 338l-0.000976562 43.001c0 42 -10.5 74.667 -31.5 98s-52.833 35 -95.5 35c-80 0 -149.667 -29.667 -209 -89l-15 15c61.333 64 136 96 224 96c50.667 0 88.334 -13.333 113.001 -40s37 -64.334 37 -113.001v-269c0 -50 4 -88 12 -114h-23
c-7.33301 20 -11.333 51 -12 93c-26.667 -28 -60 -52.667 -100 -74s-81.667 -32 -125 -32c-46 0 -81.833 11 -107.5 33s-38.5 53.667 -38.5 95c0 60 30.833 107.5 92.5 142.5s154.5 61.833 278.5 80.5zM426.999 120.001l-0.000976562 198.002
c-125.333 -19.333 -214.666 -45.833 -267.999 -79.5s-80 -74.834 -80 -123.501c0 -34 10.833 -60.167 32.5 -78.5s51.834 -27.5 90.501 -27.5c43.333 0 85.666 11.667 126.999 35s74 48.666 98 75.999zM298.998 582.003h-16l-133 151h43z" />
    <glyph glyph-name="aacute" unicode="&#xe1;" horiz-adv-x="528" 
d="M427 338l-0.000976562 43.001c0 42 -10.5 74.667 -31.5 98s-52.833 35 -95.5 35c-80 0 -149.667 -29.667 -209 -89l-15 15c61.333 64 136 96 224 96c50.667 0 88.334 -13.333 113.001 -40s37 -64.334 37 -113.001v-269c0 -50 4 -88 12 -114h-23
c-7.33301 20 -11.333 51 -12 93c-26.667 -28 -60 -52.667 -100 -74s-81.667 -32 -125 -32c-46 0 -81.833 11 -107.5 33s-38.5 53.667 -38.5 95c0 60 30.833 107.5 92.5 142.5s154.5 61.833 278.5 80.5zM426.999 120.001l-0.000976562 198.002
c-125.333 -19.333 -214.666 -45.833 -267.999 -79.5s-80 -74.834 -80 -123.501c0 -34 10.833 -60.167 32.5 -78.5s51.834 -27.5 90.501 -27.5c43.333 0 85.666 11.667 126.999 35s74 48.666 98 75.999zM228.998 582.003l106 151h43l-133 -151h-16z" />
    <glyph glyph-name="acircumflex" unicode="&#xe2;" horiz-adv-x="528" 
d="M427 338l-0.000976562 43.001c0 42 -10.5 74.667 -31.5 98s-52.833 35 -95.5 35c-80 0 -149.667 -29.667 -209 -89l-15 15c61.333 64 136 96 224 96c50.667 0 88.334 -13.333 113.001 -40s37 -64.334 37 -113.001v-269c0 -50 4 -88 12 -114h-23
c-7.33301 20 -11.333 51 -12 93c-26.667 -28 -60 -52.667 -100 -74s-81.667 -32 -125 -32c-46 0 -81.833 11 -107.5 33s-38.5 53.667 -38.5 95c0 60 30.833 107.5 92.5 142.5s154.5 61.833 278.5 80.5zM426.999 120.001l-0.000976562 198.002
c-125.333 -19.333 -214.666 -45.833 -267.999 -79.5s-80 -74.834 -80 -123.501c0 -34 10.833 -60.167 32.5 -78.5s51.834 -27.5 90.501 -27.5c43.333 0 85.666 11.667 126.999 35s74 48.666 98 75.999zM118.998 577.003l137 156h16l137 -156h-21l-125 124l-123 -124h-21z
" />
    <glyph glyph-name="atilde" unicode="&#xe3;" horiz-adv-x="528" 
d="M427 338l-0.000976562 43.001c0 42 -10.5 74.667 -31.5 98s-52.833 35 -95.5 35c-80 0 -149.667 -29.667 -209 -89l-15 15c61.333 64 136 96 224 96c50.667 0 88.334 -13.333 113.001 -40s37 -64.334 37 -113.001v-269c0 -50 4 -88 12 -114h-23
c-7.33301 20 -11.333 51 -12 93c-26.667 -28 -60 -52.667 -100 -74s-81.667 -32 -125 -32c-46 0 -81.833 11 -107.5 33s-38.5 53.667 -38.5 95c0 60 30.833 107.5 92.5 142.5s154.5 61.833 278.5 80.5zM426.999 120.001l-0.000976562 198.002
c-125.333 -19.333 -214.666 -45.833 -267.999 -79.5s-80 -74.834 -80 -123.501c0 -34 10.833 -60.167 32.5 -78.5s51.834 -27.5 90.501 -27.5c43.333 0 85.666 11.667 126.999 35s74 48.666 98 75.999zM412.998 666.003c0 -29.333 -5.66797 -50.666 -17.001 -63.999
s-29 -20 -53 -20c-18 0 -46.333 11 -85 33c-34.667 19.333 -59 29 -73 29c-16.667 0 -28.667 -4.83301 -36 -14.5s-11 -25.5 -11 -47.5h-23c0 29.333 5.66699 50.666 17 63.999s29 20 53 20c19.333 0 47.333 -10.667 84 -32c34.667 -20 59.334 -30 74.001 -30
c16.667 0 28.667 4.83301 36 14.5s11 25.5 11 47.5h23z" />
    <glyph glyph-name="adieresis" unicode="&#xe4;" horiz-adv-x="528" 
d="M427 338l-0.000976562 43.001c0 42 -10.5 74.667 -31.5 98s-52.833 35 -95.5 35c-80 0 -149.667 -29.667 -209 -89l-15 15c61.333 64 136 96 224 96c50.667 0 88.334 -13.333 113.001 -40s37 -64.334 37 -113.001v-269c0 -50 4 -88 12 -114h-23
c-7.33301 20 -11.333 51 -12 93c-26.667 -28 -60 -52.667 -100 -74s-81.667 -32 -125 -32c-46 0 -81.833 11 -107.5 33s-38.5 53.667 -38.5 95c0 60 30.833 107.5 92.5 142.5s154.5 61.833 278.5 80.5zM426.999 120.001l-0.000976562 198.002
c-125.333 -19.333 -214.666 -45.833 -267.999 -79.5s-80 -74.834 -80 -123.501c0 -34 10.833 -60.167 32.5 -78.5s51.834 -27.5 90.501 -27.5c43.333 0 85.666 11.667 126.999 35s74 48.666 98 75.999zM320.998 582.003v49h33v-49h-33zM173.998 582.003v49h33v-49h-33z" />
    <glyph glyph-name="aring" unicode="&#xe5;" horiz-adv-x="528" 
d="M264 584c-25.333 0 -46.333 8.33301 -63 25s-25 37.334 -25 62.001s8.33301 45.167 25 61.5s37.667 24.5 63 24.5s46.333 -8.16699 63 -24.5s25 -36.833 25 -61.5s-8.33301 -45.334 -25 -62.001s-37.667 -25 -63 -25zM427 338l-0.000976562 43.001
c0 42 -10.5 74.667 -31.5 98s-52.833 35 -95.5 35c-80 0 -149.667 -29.667 -209 -89l-15 15c61.333 64 136 96 224 96c50.667 0 88.334 -13.333 113.001 -40s37 -64.334 37 -113.001v-269c0 -50 4 -88 12 -114h-23c-7.33301 20 -11.333 51 -12 93
c-26.667 -28 -60 -52.667 -100 -74s-81.667 -32 -125 -32c-46 0 -81.833 11 -107.5 33s-38.5 53.667 -38.5 95c0 60 30.833 107.5 92.5 142.5s154.5 61.833 278.5 80.5zM426.999 120.001l-0.000976562 198.002c-125.333 -19.333 -214.666 -45.833 -267.999 -79.5
s-80 -74.834 -80 -123.501c0 -34 10.833 -60.167 32.5 -78.5s51.834 -27.5 90.501 -27.5c43.333 0 85.666 11.667 126.999 35s74 48.666 98 75.999zM263.998 735.003c-18.667 0 -34.167 -6 -46.5 -18s-18.5 -27.333 -18.5 -46c0 -19.333 6.16699 -35 18.5 -47
s27.833 -18 46.5 -18s34.167 6 46.5 18s18.5 27.667 18.5 47c0 18.667 -6.16699 34 -18.5 46s-27.833 18 -46.5 18z" />
    <glyph glyph-name="ae" unicode="&#xe6;" horiz-adv-x="903" 
d="M427 338l-0.00195312 43c0 42 -10.5 74.667 -31.5 98s-52.833 35 -95.5 35c-80 0 -149.667 -29.667 -209 -89l-15 15c61.333 64 136 96 224 96c96 0 145.667 -49.333 149 -148c18 48 44.833 84.833 80.5 110.5s73.834 38.5 114.501 38.5c58 0 106 -23.167 144 -69.5
s57 -111.833 57 -196.5v-3h-395v-7c0 -67.333 17 -125.833 51 -175.5s80.667 -74.5 140 -74.5c66.667 0 128.667 40.333 186 121l18 -13c-61.333 -86.667 -129.333 -130 -204 -130c-43.333 0 -80.666 11.833 -111.999 35.5s-55.666 55.5 -72.999 95.5
c-32.667 -37.333 -71.334 -68.833 -116.001 -94.5s-90.667 -38.5 -138 -38.5c-46 0 -81.833 11 -107.5 33s-38.5 53.667 -38.5 95c0 60 30.833 107.5 92.5 142.5s154.5 61.833 278.5 80.5zM450.998 289h369.999c-2.66699 71.333 -20.5 126.833 -53.5 166.5
s-74.167 59.5 -123.5 59.5s-92.666 -19.667 -129.999 -59s-58.333 -95 -63 -167zM426.997 318c-126 -19.333 -215.502 -45.832 -268.502 -79.499s-79.5 -74.834 -79.5 -123.501c0 -34 10.833 -60.167 32.5 -78.5s51.834 -27.5 90.501 -27.5c45.333 0 89.333 12.167 132 36.5
s80.334 55.833 113.001 94.5c-13.333 38 -20 78.333 -20 121v57z" />
    <glyph glyph-name="ccedilla" unicode="&#xe7;" horiz-adv-x="526" 
d="M246 -9c-56 8 -101.161 37.499 -135.494 88.499s-51.5 111.833 -51.5 182.5c0 88.667 21.667 156.5 65 203.5s95.333 70.5 156 70.5c46.667 0 84.167 -11.833 112.5 -35.5s52.5 -59.5 72.5 -107.5l-20 -10c-18.667 44 -40.334 76.833 -65.001 98.5s-58 32.5 -100 32.5
c-54.667 0 -101.334 -21.667 -140.001 -65s-58 -105.666 -58 -186.999c0 -70 17.667 -129.333 53 -178s81.666 -73 138.999 -73c42 0 76.167 11 102.5 33s50.833 56.333 73.5 103l20 -10c-24.667 -50.667 -51.834 -88 -81.501 -112s-67.834 -36 -114.501 -36h-6l-19 -62
c16 16 35.333 24 58 24c20.667 0 37.667 -5.66699 51 -17s20 -25.333 20 -42c0 -27.333 -10.5 -48.5 -31.5 -63.5s-47.833 -22.5 -80.5 -22.5c-46 0 -86.333 12.667 -121 38l12 17c31.333 -22.667 67.666 -34 108.999 -34c26 0 47.333 5.5 64 16.5s25 27.167 25 48.5
c0 10.667 -4.5 19.667 -13.5 27s-20.5 11 -34.5 11c-18.667 0 -41 -9.33301 -67 -28l-16 12z" />
    <glyph glyph-name="egrave" unicode="&#xe8;" horiz-adv-x="534" 
d="M81 268v-7.00098c0 -67.333 17 -125.833 51 -175.5s80.667 -74.5 140 -74.5c66.667 0 128.667 40.333 186 121l18 -13c-61.333 -86.667 -129.333 -130 -204 -130c-66.667 0 -119 27 -157 81s-57 117.667 -57 191c0 88.667 21.667 156.834 65 204.501s94 71.5 152 71.5
s106 -23.167 144 -69.5s57 -111.833 57 -196.5v-3h-395zM82 288.999h369.999c-2.66699 71.333 -20.5 126.833 -53.5 166.5s-74.167 59.5 -123.5 59.5s-92.666 -19.667 -129.999 -59s-58.333 -95 -63 -167zM301.999 581.999h-16l-133 151h43z" />
    <glyph glyph-name="eacute" unicode="&#xe9;" horiz-adv-x="534" 
d="M81 268v-7.00098c0 -67.333 17 -125.833 51 -175.5s80.667 -74.5 140 -74.5c66.667 0 128.667 40.333 186 121l18 -13c-61.333 -86.667 -129.333 -130 -204 -130c-66.667 0 -119 27 -157 81s-57 117.667 -57 191c0 88.667 21.667 156.834 65 204.501s94 71.5 152 71.5
s106 -23.167 144 -69.5s57 -111.833 57 -196.5v-3h-395zM82 288.999h369.999c-2.66699 71.333 -20.5 126.833 -53.5 166.5s-74.167 59.5 -123.5 59.5s-92.666 -19.667 -129.999 -59s-58.333 -95 -63 -167zM231.999 581.999l106 151h43l-133 -151h-16z" />
    <glyph glyph-name="ecircumflex" unicode="&#xea;" horiz-adv-x="534" 
d="M81 268v-7.00098c0 -67.333 17 -125.833 51 -175.5s80.667 -74.5 140 -74.5c66.667 0 128.667 40.333 186 121l18 -13c-61.333 -86.667 -129.333 -130 -204 -130c-66.667 0 -119 27 -157 81s-57 117.667 -57 191c0 88.667 21.667 156.834 65 204.501s94 71.5 152 71.5
s106 -23.167 144 -69.5s57 -111.833 57 -196.5v-3h-395zM82 288.999h369.999c-2.66699 71.333 -20.5 126.833 -53.5 166.5s-74.167 59.5 -123.5 59.5s-92.666 -19.667 -129.999 -59s-58.333 -95 -63 -167zM121.999 576.999l137 156h16l137 -156h-21l-125 124l-123 -124h-21z
" />
    <glyph glyph-name="edieresis" unicode="&#xeb;" horiz-adv-x="534" 
d="M81 268v-7.00098c0 -67.333 17 -125.833 51 -175.5s80.667 -74.5 140 -74.5c66.667 0 128.667 40.333 186 121l18 -13c-61.333 -86.667 -129.333 -130 -204 -130c-66.667 0 -119 27 -157 81s-57 117.667 -57 191c0 88.667 21.667 156.834 65 204.501s94 71.5 152 71.5
s106 -23.167 144 -69.5s57 -111.833 57 -196.5v-3h-395zM82 288.999h369.999c-2.66699 71.333 -20.5 126.833 -53.5 166.5s-74.167 59.5 -123.5 59.5s-92.666 -19.667 -129.999 -59s-58.333 -95 -63 -167zM323.999 581.999v49h33v-49h-33zM176.999 581.999v49h33v-49h-33z
" />
    <glyph glyph-name="igrave" unicode="&#xec;" horiz-adv-x="205" 
d="M91 0v525h23v-525h-23zM112 582h-16l-133 151h43z" />
    <glyph glyph-name="iacute" unicode="&#xed;" horiz-adv-x="205" 
d="M91 0v525h23v-525h-23zM92 582l106 151h43l-133 -151h-16z" />
    <glyph glyph-name="icircumflex" unicode="&#xee;" horiz-adv-x="205" 
d="M91 0v525h23v-525h-23zM-43 567l137 156h16l137 -156h-21l-125 124l-123 -124h-21z" />
    <glyph glyph-name="idieresis" unicode="&#xef;" horiz-adv-x="205" 
d="M91 0v525h23v-525h-23zM159 582v49h33v-49h-33zM12 582v49h33v-49h-33z" />
    <glyph glyph-name="eth" unicode="&#xf0;" horiz-adv-x="567" 
d="M283 -11c-62 0 -114.833 25.832 -158.5 77.499s-65.5 116.834 -65.5 195.501c0 80.667 21.667 146.5 65 197.5s96.333 76.5 159 76.5c35.333 0 69.166 -9.33301 101.499 -28s58.166 -45 77.499 -79c-24 74.667 -63.333 144 -118 208l-96 -45l-9 19l90 42
c-23.333 25.333 -50.666 50.333 -81.999 75l12 16c35.333 -28 65 -55.333 89 -82l111 51l8 -19l-104 -48c96.667 -112.667 145 -240.667 145 -384c0 -78 -22.167 -143 -66.5 -195s-97.166 -78 -158.499 -78zM283 10.999c56 0 103.668 23.833 143.001 71.5s59 107.5 59 179.5
c0 73.333 -19.667 133.666 -59 180.999s-87 71 -143 71c-56.667 0 -104.334 -23.667 -143.001 -71s-58 -107.666 -58 -180.999c0 -72 19.5 -131.833 58.5 -179.5s86.5 -71.5 142.5 -71.5z" />
    <glyph glyph-name="ntilde" unicode="&#xf1;" horiz-adv-x="563" 
d="M86 0v525h23v-92c76.667 68.667 148.667 103 216 103c107.333 0 161 -55.333 161 -166v-370h-23v370c0 96 -46 144 -138 144c-68.667 0 -140.667 -35.667 -216 -107v-407h-23zM430 666c0 -29.333 -5.66797 -50.666 -17.001 -63.999s-29 -20 -53 -20
c-18 0 -46.333 11 -85 33c-34.667 19.333 -59 29 -73 29c-16.667 0 -28.667 -4.83301 -36 -14.5s-11 -25.5 -11 -47.5h-23c0 29.333 5.66699 50.666 17 63.999s29 20 53 20c19.333 0 47.333 -10.667 84 -32c34.667 -20 59.334 -30 74.001 -30
c16.667 0 28.667 4.83301 36 14.5s11 25.5 11 47.5h23z" />
    <glyph glyph-name="ograve" unicode="&#xf2;" horiz-adv-x="567" 
d="M283 -11c-62 0 -114.833 25.832 -158.5 77.499s-65.5 116.834 -65.5 195.501c0 80.667 21.667 146.5 65 197.5s96.333 76.5 159 76.5c61.333 0 114.166 -25.667 158.499 -77s66.5 -117 66.5 -197c0 -78 -22.167 -143 -66.5 -195s-97.166 -78 -158.499 -78zM283 10.999
c56 0 103.668 23.833 143.001 71.5s59 107.5 59 179.5c0 73.333 -19.667 133.666 -59 180.999s-87 71 -143 71c-56.667 0 -104.334 -23.667 -143.001 -71s-58 -107.666 -58 -180.999c0 -72 19.5 -131.833 58.5 -179.5s86.5 -71.5 142.5 -71.5zM318.001 581.999h-16l-133 151
h43z" />
    <glyph glyph-name="oacute" unicode="&#xf3;" horiz-adv-x="567" 
d="M283 -11c-62 0 -114.833 25.832 -158.5 77.499s-65.5 116.834 -65.5 195.501c0 80.667 21.667 146.5 65 197.5s96.333 76.5 159 76.5c61.333 0 114.166 -25.667 158.499 -77s66.5 -117 66.5 -197c0 -78 -22.167 -143 -66.5 -195s-97.166 -78 -158.499 -78zM283 10.999
c56 0 103.668 23.833 143.001 71.5s59 107.5 59 179.5c0 73.333 -19.667 133.666 -59 180.999s-87 71 -143 71c-56.667 0 -104.334 -23.667 -143.001 -71s-58 -107.666 -58 -180.999c0 -72 19.5 -131.833 58.5 -179.5s86.5 -71.5 142.5 -71.5zM248.001 581.999l106 151h43
l-133 -151h-16z" />
    <glyph glyph-name="ocircumflex" unicode="&#xf4;" horiz-adv-x="567" 
d="M283 -11c-62 0 -114.833 25.832 -158.5 77.499s-65.5 116.834 -65.5 195.501c0 80.667 21.667 146.5 65 197.5s96.333 76.5 159 76.5c61.333 0 114.166 -25.667 158.499 -77s66.5 -117 66.5 -197c0 -78 -22.167 -143 -66.5 -195s-97.166 -78 -158.499 -78zM283 10.999
c56 0 103.668 23.833 143.001 71.5s59 107.5 59 179.5c0 73.333 -19.667 133.666 -59 180.999s-87 71 -143 71c-56.667 0 -104.334 -23.667 -143.001 -71s-58 -107.666 -58 -180.999c0 -72 19.5 -131.833 58.5 -179.5s86.5 -71.5 142.5 -71.5zM138.001 576.999l137 156h16
l137 -156h-21l-125 124l-123 -124h-21z" />
    <glyph glyph-name="otilde" unicode="&#xf5;" horiz-adv-x="567" 
d="M283 -11c-62 0 -114.833 25.832 -158.5 77.499s-65.5 116.834 -65.5 195.501c0 80.667 21.667 146.5 65 197.5s96.333 76.5 159 76.5c61.333 0 114.166 -25.667 158.499 -77s66.5 -117 66.5 -197c0 -78 -22.167 -143 -66.5 -195s-97.166 -78 -158.499 -78zM283 10.999
c56 0 103.668 23.833 143.001 71.5s59 107.5 59 179.5c0 73.333 -19.667 133.666 -59 180.999s-87 71 -143 71c-56.667 0 -104.334 -23.667 -143.001 -71s-58 -107.666 -58 -180.999c0 -72 19.5 -131.833 58.5 -179.5s86.5 -71.5 142.5 -71.5zM432.001 665.999
c0 -29.333 -5.66797 -50.666 -17.001 -63.999s-29 -20 -53 -20c-18 0 -46.333 11 -85 33c-34.667 19.333 -59 29 -73 29c-16.667 0 -28.667 -4.83301 -36 -14.5s-11 -25.5 -11 -47.5h-23c0 29.333 5.66699 50.666 17 63.999s29 20 53 20c19.333 0 47.333 -10.667 84 -32
c34.667 -20 59.334 -30 74.001 -30c16.667 0 28.667 4.83301 36 14.5s11 25.5 11 47.5h23z" />
    <glyph glyph-name="odieresis" unicode="&#xf6;" horiz-adv-x="567" 
d="M283 -11c-62 0 -114.833 25.832 -158.5 77.499s-65.5 116.834 -65.5 195.501c0 80.667 21.667 146.5 65 197.5s96.333 76.5 159 76.5c61.333 0 114.166 -25.667 158.499 -77s66.5 -117 66.5 -197c0 -78 -22.167 -143 -66.5 -195s-97.166 -78 -158.499 -78zM283 10.999
c56 0 103.668 23.833 143.001 71.5s59 107.5 59 179.5c0 73.333 -19.667 133.666 -59 180.999s-87 71 -143 71c-56.667 0 -104.334 -23.667 -143.001 -71s-58 -107.666 -58 -180.999c0 -72 19.5 -131.833 58.5 -179.5s86.5 -71.5 142.5 -71.5zM340.001 581.999v49h33v-49
h-33zM193.001 581.999v49h33v-49h-33z" />
    <glyph glyph-name="divide" unicode="&#xf7;" horiz-adv-x="627" 
d="M292 465v57h42v-57h-42zM65 313v23h497v-23h-497zM292 126v57h42v-57h-42z" />
    <glyph glyph-name="oslash" unicode="&#xf8;" horiz-adv-x="567" 
d="M419 482c59.333 -52.667 88.999 -126 88.999 -220c0 -78 -22.167 -143 -66.5 -195s-97.166 -78 -158.499 -78c-42.667 0 -81.667 13 -117 39l-39 -71l-18 10l41 74c-60.667 54 -91 127.667 -91 221c0 80.667 21.667 146.5 65 197.5s96.333 76.5 159 76.5
c44.667 0 84.667 -13.667 120 -41l36 66l18 -10zM160.999 61l231.001 414.999c-34 25.333 -70.333 38 -109 38c-56.667 0 -104.334 -23.667 -143.001 -71s-58 -107.666 -58 -180.999c0 -86 26.333 -153 79 -201zM408 462.999l-231 -416c32.667 -24 68 -36 106 -36
c56 0 103.667 23.833 143 71.5s59 107.5 59 179.5c0 84.667 -25.667 151.667 -77 201z" />
    <glyph glyph-name="ugrave" unicode="&#xf9;" horiz-adv-x="563" 
d="M477 525v-525h-23v92c-76.667 -68.667 -148.667 -103 -216 -103c-107.333 0 -161 55.333 -161 166v370h23v-370c0 -96 46 -144 138 -144c68.667 0 140.667 35.667 216 107v407h23zM316 582h-16l-133 151h43z" />
    <glyph glyph-name="uacute" unicode="&#xfa;" horiz-adv-x="563" 
d="M477 525v-525h-23v92c-76.667 -68.667 -148.667 -103 -216 -103c-107.333 0 -161 55.333 -161 166v370h23v-370c0 -96 46 -144 138 -144c68.667 0 140.667 35.667 216 107v407h23zM246 582l106 151h43l-133 -151h-16z" />
    <glyph glyph-name="ucircumflex" unicode="&#xfb;" horiz-adv-x="563" 
d="M477 525v-525h-23v92c-76.667 -68.667 -148.667 -103 -216 -103c-107.333 0 -161 55.333 -161 166v370h23v-370c0 -96 46 -144 138 -144c68.667 0 140.667 35.667 216 107v407h23zM136 577l137 156h16l137 -156h-21l-125 124l-123 -124h-21z" />
    <glyph glyph-name="udieresis" unicode="&#xfc;" horiz-adv-x="563" 
d="M477 525v-525h-23v92c-76.667 -68.667 -148.667 -103 -216 -103c-107.333 0 -161 55.333 -161 166v370h23v-370c0 -96 46 -144 138 -144c68.667 0 140.667 35.667 216 107v407h23zM338 582v49h33v-49h-33zM191 582v49h33v-49h-33z" />
    <glyph glyph-name="yacute" unicode="&#xfd;" horiz-adv-x="499" 
d="M251 27l188.001 498h23l-234 -619c-14 -38 -32.833 -65.667 -56.5 -83s-54.834 -26 -93.501 -26c-24.667 0 -53 4 -85 12l6 22c30 -8 56.333 -12 79 -12c34 0 61.167 7.66699 81.5 23s36.5 39.333 48.5 72l31 81l-202 530h24zM221.001 582l106 151h43l-133 -151h-16z" />
    <glyph glyph-name="thorn" unicode="&#xfe;" horiz-adv-x="576" 
d="M86 -200l-0.000976562 939.999h23v-302c22 26 49.333 48.833 82 68.5s68.334 29.5 107.001 29.5c66 0 118.833 -23.167 158.5 -69.5s59.5 -114.166 59.5 -203.499s-19.833 -157.333 -59.5 -204s-92.5 -70 -158.5 -70c-67.333 0 -130.333 33.333 -189 100v-289h-23z
M297.999 10.999c58.667 0 105.834 21.168 141.501 63.501s53.5 105.166 53.5 188.499c0 82.667 -18.333 145.167 -55 187.5s-84 63.5 -142 63.5c-68 0 -130.333 -34.333 -187 -103v-294c34 -37.333 65.167 -64.333 93.5 -81s60.166 -25 95.499 -25z" />
    <glyph glyph-name="ydieresis" unicode="&#xff;" horiz-adv-x="499" 
d="M251 27l188.001 498h23l-234 -619c-14 -38 -32.833 -65.667 -56.5 -83s-54.834 -26 -93.501 -26c-24.667 0 -53 4 -85 12l6 22c30 -8 56.333 -12 79 -12c34 0 61.167 7.66699 81.5 23s36.5 39.333 48.5 72l31 81l-202 530h24zM306.001 582v49h33v-49h-33zM159.001 582v49
h33v-49h-33z" />
    <glyph glyph-name="dotlessi" unicode="&#x131;" horiz-adv-x="205" 
d="M91 0v525h23v-525h-23z" />
    <glyph glyph-name="Lslash" unicode="&#x141;" horiz-adv-x="559" 
d="M104 350l-80 -26v23l80 26v367h25v-359l137 46v-23l-137 -45v-336h385v-23h-410v350z" />
    <glyph glyph-name="lslash" unicode="&#x142;" horiz-adv-x="254" 
d="M115 360l-109 -36v23l109 36v357h23v-349l110 36v-23l-110 -36v-368h-23v360z" />
    <glyph glyph-name="OE" unicode="&#x152;" horiz-adv-x="1115" 
d="M639 527v213h418v-23h-393v-312h298v-23h-298v-359h400v-23h-425v213c-22 -70 -57.333 -125.5 -106 -166.5s-104.667 -61.5 -168 -61.5c-86.667 0 -158 35.833 -214 107.5s-84 164.167 -84 277.5s28 205.833 84 277.5s127.333 107.5 214 107.5
c63.333 0 119.333 -20.5 168 -61.5s84 -96.5 106 -166.5zM365 8c79.333 0 144.833 34 196.5 102s77.5 154.667 77.5 260s-25.833 192 -77.5 260s-117.167 102 -196.5 102c-80 0 -145.5 -33.833 -196.5 -101.5s-76.5 -154.5 -76.5 -260.5s25.5 -192.833 76.5 -260.5
s116.5 -101.5 196.5 -101.5z" />
    <glyph glyph-name="oe" unicode="&#x153;" horiz-adv-x="961" 
d="M496 179c-14.667 -57.333 -41.667 -103.333 -81 -138s-83.333 -52 -132 -52c-62 0 -114.833 25.833 -158.5 77.5s-65.5 116.834 -65.5 195.501c0 80.667 21.667 146.5 65 197.5s96.333 76.5 159 76.5c49.333 0 93.666 -17 132.999 -51s66 -79.667 80 -137
c13.333 61.333 39.333 108.166 78 140.499s81.334 48.5 128.001 48.5c58 0 106 -23.167 144 -69.5s57 -111.833 57 -196.5v-3h-395v-7c0 -67.333 17 -125.833 51 -175.5s80.667 -74.5 140 -74.5c66.667 0 128.667 40.333 186 121l18 -13
c-61.333 -86.667 -129.333 -130 -204 -130c-52.667 0 -96.667 17.833 -132 53.5s-59 81.167 -71 136.5zM509 289h369.999c-2.66699 71.333 -20.5 126.833 -53.5 166.5s-74.167 59.5 -123.5 59.5s-92.666 -19.667 -129.999 -59s-58.333 -95 -63 -167zM282.999 11
c56 0 103.668 23.833 143.001 71.5s59 107.5 59 179.5c0 73.333 -19.667 133.666 -59 180.999s-87 71 -143 71c-56.667 0 -104.334 -23.667 -143.001 -71s-58 -107.666 -58 -180.999c0 -72 19.5 -131.833 58.5 -179.5s86.5 -71.5 142.5 -71.5z" />
    <glyph glyph-name="Scaron" unicode="&#x160;" horiz-adv-x="633" 
d="M327 -15c-78.667 0 -138.171 17.3311 -178.504 51.998s-70.166 83.667 -89.499 147l24 8c18.667 -60 46.5 -105.667 83.5 -137s90.5 -47 160.5 -47c65.333 0 117.333 15 156 45s58 70.333 58 121c0 52.667 -15.167 92.834 -45.5 120.501s-87.166 55.167 -170.499 82.5
c-87.333 28.667 -146.166 56.5 -176.499 83.5s-45.5 68.833 -45.5 125.5c0 46.667 19.167 86.5 57.5 119.5s89.5 49.5 153.5 49.5c62.667 0 113.167 -15.667 151.5 -47s66.5 -72.666 84.5 -123.999l-24 -8c-38 104 -108.667 156 -212 156
c-57.333 0 -102.666 -14.167 -135.999 -42.5s-50 -62.833 -50 -103.5c0 -48.667 14.333 -85.334 43 -110.001s83 -50 163 -76c84.667 -27.333 144.5 -56.166 179.5 -86.499s52.5 -76.833 52.5 -139.5c0 -58 -22.167 -104 -66.5 -138s-101.833 -51 -172.5 -51z
M460.996 942.998l-137 -156h-16l-137 156h21l125 -124l123 124h21z" />
    <glyph glyph-name="scaron" unicode="&#x161;" 
d="M74 99c46.667 -58.667 104.332 -88 172.999 -88c51.333 0 92.166 11 122.499 33s45.5 52 45.5 90s-13.5 66.333 -40.5 85s-71.167 35.667 -132.5 51c-60.667 15.333 -104.167 32.833 -130.5 52.5s-39.5 49.834 -39.5 90.501c0 35.333 14.333 64.666 43 87.999
s68.667 35 120 35c76 0 137 -26.333 183 -79l-18 -14c-41.333 47.333 -96.333 71 -165 71c-46.667 0 -81.667 -9.66699 -105 -29s-35 -43.333 -35 -72c0 -34.667 11.833 -60.167 35.5 -76.5s63.167 -31.5 118.5 -45.5c32 -8 57.833 -15.5 77.5 -22.5
s38.834 -16.5 57.501 -28.5s32.334 -26.667 41.001 -44s13 -38 13 -62c0 -44 -17.5 -79.167 -52.5 -105.5s-81.167 -39.5 -138.5 -39.5c-79.333 0 -143 32 -191 96zM394.998 738l-137 -156h-16l-137 156h21l125 -124l123 124h21z" />
    <glyph glyph-name="Ydieresis" unicode="&#x178;" horiz-adv-x="597" 
d="M286 0v337l-252 403h27l238 -380l239 380h26l-253 -403v-337h-25zM355 787v49h33v-49h-33zM208 787v49h33v-49h-33z" />
    <glyph glyph-name="Zcaron" unicode="&#x17d;" horiz-adv-x="613" 
d="M556 0h-509v23l484 695h-458v22h486v-23l-482 -695h479v-22zM451 943l-137 -156h-16l-137 156h21l125 -124l123 124h21z" />
    <glyph glyph-name="zcaron" unicode="&#x17e;" horiz-adv-x="499" 
d="M443 0h-384v20l345 484h-327v21h354v-20l-345 -484h357v-21zM394 738l-137 -156h-16l-137 156h21l125 -124l123 124h21z" />
    <glyph glyph-name="florin" unicode="&#x192;" horiz-adv-x="353" 
d="M-39 -181c-6.66699 0 -18 0.999023 -34 2.99902l2 21c10.667 -1.33301 21.334 -2 32.001 -2c60.667 0 94.667 27 102 81l79 564h-93l3 22h93l15 106c12 84.667 66 127 162 127h26v-22h-26c-42.667 0 -75.334 -8.5 -98.001 -25.5s-36.667 -44.833 -42 -83.5l-14 -102h140
l-3 -22h-140l-80 -568c-4.66699 -33.333 -18 -58.166 -40 -74.499s-50 -24.5 -84 -24.5z" />
    <glyph glyph-name="circumflex" unicode="&#x2c6;" 
d="M105 577l137 156h16l137 -156h-21l-125 124l-123 -124h-21z" />
    <glyph glyph-name="caron" unicode="&#x2c7;" 
d="M395 738l-137 -156h-16l-137 156h21l125 -124l123 124h21z" />
    <glyph glyph-name="breve" unicode="&#x2d8;" 
d="M129 740c2.66699 -41.333 15.667 -74.499 39 -99.499s51.333 -37.5 84 -37.5c32 0 59.167 12.5 81.5 37.5s34.833 58.167 37.5 99.5h19c-2.66699 -48.667 -17 -87.334 -43 -116.001s-57.667 -43 -95 -43c-38 0 -70.5 14.5 -97.5 43.5s-41.833 67.5 -44.5 115.5h19z" />
    <glyph glyph-name="dotaccent" unicode="&#x2d9;" 
d="M234 662v42h32v-42h-32z" />
    <glyph glyph-name="ring" unicode="&#x2da;" 
d="M250 584c-25.333 0 -46.333 8.33301 -63 25s-25 37.334 -25 62.001s8.33301 45.167 25 61.5s37.667 24.5 63 24.5s46.333 -8.16699 63 -24.5s25 -36.833 25 -61.5s-8.33301 -45.334 -25 -62.001s-37.667 -25 -63 -25zM250 606c18.667 0 34.167 6 46.5 18
s18.5 27.667 18.5 47c0 18.667 -6.16699 34 -18.5 46s-27.833 18 -46.5 18s-34.167 -6 -46.5 -18s-18.5 -27.333 -18.5 -46c0 -19.333 6.16699 -35 18.5 -47s27.833 -18 46.5 -18z" />
    <glyph glyph-name="ogonek" unicode="&#x2db;" 
d="M276 0c-24.667 -13.333 -46.5 -30.168 -65.5 -50.501s-28.5 -41.5 -28.5 -63.5c0 -17.333 6.16699 -30.333 18.5 -39s28.5 -13 48.5 -13c36 0 71.333 11.667 106 35l10 -17c-37.333 -24.667 -76 -37 -116 -37c-26.667 0 -48.5 6.16699 -65.5 18.5
s-25.5 29.833 -25.5 52.5c0 20.667 8.83301 41.334 26.5 62.001s39.167 38 64.5 52h27z" />
    <glyph glyph-name="tilde" unicode="&#x2dc;" 
d="M399 666c0 -29.333 -5.66797 -50.666 -17.001 -63.999s-29 -20 -53 -20c-18 0 -46.333 11 -85 33c-34.667 19.333 -59 29 -73 29c-16.667 0 -28.667 -4.83301 -36 -14.5s-11 -25.5 -11 -47.5h-23c0 29.333 5.66699 50.666 17 63.999s29 20 53 20
c19.333 0 47.333 -10.667 84 -32c34.667 -20 59.334 -30 74.001 -30c16.667 0 28.667 4.83301 36 14.5s11 25.5 11 47.5h23z" />
    <glyph glyph-name="hungarumlaut" unicode="&#x2dd;" 
d="M249 582l106 151h43l-133 -151h-16zM102 582l106 151h43l-133 -151h-16z" />
    <glyph glyph-name="Delta" unicode="&#x394;" horiz-adv-x="519" 
d="M396 662v42h32v-42h-32zM128 0l0.000976562 503h-92v22h92v103c0 40 12.167 68.833 36.5 86.5s63.166 26.834 116.499 27.501v-22c-46.667 0 -80 -6.83301 -100 -20.5s-30 -36.834 -30 -69.501v-105h126v-22h-126v-503h-23zM355.001 -201c-7.33301 0 -17 1 -29 3v22
c10.667 -2.66699 19.667 -4 27 -4c31.333 0 47 18.333 47 55v650h23v-645c0 -54 -22.667 -81 -68 -81z" />
    <glyph glyph-name="Omega" unicode="&#x3a9;" horiz-adv-x="780" 
d="M378 0l2 199l-141 -2l1 -43h-23v43h-43v23l43 -1l2 141l-199 -3v25l199 -2l-2 141l-43 -1v23h43v43h23l-1 -44l141 -1l-2 199h25l-3 -199l141 1l-1 44h23l-1 -44l44 1v-23h-44l-1 -140l199 2v-25l-199 3l1 -141l44 1v-23h-44l1 -43h-23v44l-140 1l3 -199h-25zM400 380
h142l-2 140l-140 2v-142zM238 380h142v142l-141 -1zM400 218l140 1l2 141h-142v-142zM380 218v142h-142l1 -141z" />
    <glyph glyph-name="mu" unicode="&#x3bc;" horiz-adv-x="563" 
d="M77 -200v725h23v-370c0 -96 46 -144 138 -144c68.667 0 140.667 35.667 216 107v407h23v-525h-23v92c-76.667 -68.667 -148.667 -103 -216 -103s-113.333 21 -138 63v-252h-23z" />
    <glyph glyph-name="pi" unicode="&#x3c0;" horiz-adv-x="862" 
d="M431 -14c-106 0 -196 37.5 -270 112.5s-111 165.5 -111 271.5s37 196.5 111 271.5s164 112.5 270 112.5s196 -37.5 270 -112.5s111 -165.5 111 -271.5s-37 -196.5 -111 -271.5s-164 -112.5 -270 -112.5zM431 8c100 0 184.833 35.333 254.5 106s104.5 156 104.5 256
s-34.833 185.333 -104.5 256s-154.5 106 -254.5 106s-184.833 -35.333 -254.5 -106s-104.5 -156 -104.5 -256s34.833 -185.333 104.5 -256s154.5 -106 254.5 -106zM309 158v425h140c46.667 0 82.5 -9.83301 107.5 -29.5s37.5 -47.5 37.5 -83.5
c0 -39.333 -13.167 -68.833 -39.5 -88.5s-62.833 -29.5 -109.5 -29.5h-114v-194h-22zM331 373h113.999c84.667 0 127 32.333 127 97c0 30 -10.667 52.833 -32 68.5s-51.666 23.5 -90.999 23.5h-118v-189z" />
    <glyph glyph-name="endash" unicode="&#x2013;" horiz-adv-x="580" 
d="M74 304v23h432v-23h-432z" />
    <glyph glyph-name="emdash" unicode="&#x2014;" horiz-adv-x="920" 
d="M74 304v23h772v-23h-772z" />
    <glyph glyph-name="quoteleft" unicode="&#x2018;" horiz-adv-x="255" 
d="M148 740l-18 -93h19v-52h-43v46l27 99h15z" />
    <glyph glyph-name="quoteright" unicode="&#x2019;" horiz-adv-x="255" 
d="M107 595l18 93h-19v52h43v-46l-27 -99h-15z" />
    <glyph glyph-name="quotesinglbase" unicode="&#x201a;" horiz-adv-x="255" 
d="M107 -93l18 93h-19v52h43v-46l-27 -99h-15z" />
    <glyph glyph-name="quotedblleft" unicode="&#x201c;" horiz-adv-x="385" 
d="M278 740l-18 -93h19v-52h-43v46l27 99h15zM148 740l-18 -93h19v-52h-43v46l27 99h15z" />
    <glyph glyph-name="quotedblright" unicode="&#x201d;" horiz-adv-x="385" 
d="M237 595l18 93h-19v52h43v-46l-27 -99h-15zM107 595l18 93h-19v52h43v-46l-27 -99h-15z" />
    <glyph glyph-name="quotedblbase" unicode="&#x201e;" horiz-adv-x="385" 
d="M237 -93l18 93h-19v52h43v-46l-27 -99h-15zM107 -93l18 93h-19v52h43v-46l-27 -99h-15z" />
    <glyph glyph-name="dagger" unicode="&#x2020;" horiz-adv-x="543" 
d="M282 463l206 2v-23l-206 2l3 -644h-25l2 644l-206 -2v23l206 -2l-2 277h25z" />
    <glyph glyph-name="daggerdbl" unicode="&#x2021;" horiz-adv-x="544" 
d="M262 472l-206 -2v23l206 -2l-2 249h25l-3 -249l206 2v-23l-206 2l3 -202l-3 -202l206 2v-23l-206 2l3 -249h-25l2 249l-206 -2v23l206 -2l-2 202z" />
    <glyph glyph-name="bullet" unicode="&#x2022;" horiz-adv-x="461" 
d="M229 253c-28.667 0 -52 9 -70 27s-27 41.333 -27 70s9 52.167 27 70.5s41.333 27.5 70 27.5c29.333 0 53.166 -9.16699 71.499 -27.5s27.5 -41.833 27.5 -70.5s-9.16699 -52 -27.5 -70s-42.166 -27 -71.499 -27z" />
    <glyph glyph-name="ellipsis" unicode="&#x2026;" horiz-adv-x="622" 
d="M497 0v52h43v-52h-43zM290 0v52h43v-52h-43zM82 0v52h43v-52h-43z" />
    <glyph glyph-name="perthousand" unicode="&#x2030;" horiz-adv-x="1332" 
d="M227 311c-47.333 0 -84.832 19.333 -112.499 58s-41.5 91.667 -41.5 159s14.167 120.5 42.5 159.5s66.166 58.5 113.499 58.5s85.333 -19.5 114 -58.5s43 -92.167 43 -159.5s-14.5 -120.333 -43.5 -159s-67.5 -58 -115.5 -58zM697.001 740l-441 -740h-25l441 740h25z
M1100 -6c-47.333 0 -84.832 19.333 -112.499 58s-41.5 91.667 -41.5 159s14.167 120.5 42.5 159.5s66.166 58.5 113.499 58.5s85.333 -19.5 114 -58.5s43 -92.167 43 -159.5s-14.5 -120.333 -43.5 -159s-67.5 -58 -115.5 -58zM701.002 -6
c-47.333 0 -84.832 19.333 -112.499 58s-41.5 91.667 -41.5 159s14.167 120.5 42.5 159.5s66.166 58.5 113.499 58.5s85.333 -19.5 114 -58.5s43 -92.167 43 -159.5s-14.5 -120.333 -43.5 -159s-67.5 -58 -115.5 -58zM229.003 723c-40.667 0 -72.667 -17.667 -96 -53
s-35 -82.666 -35 -141.999s11.333 -106.5 34 -141.5s54.334 -52.5 95.001 -52.5s73.167 17.5 97.5 52.5s36.5 82.167 36.5 141.5s-11.833 106.666 -35.5 141.999s-55.834 53 -96.501 53zM1102 406c-40.667 0 -72.667 -17.667 -96 -53s-35 -82.666 -35 -141.999
s11.333 -106.5 34 -141.5s54.334 -52.5 95.001 -52.5s73.167 17.5 97.5 52.5s36.5 82.167 36.5 141.5s-11.833 106.666 -35.5 141.999s-55.834 53 -96.501 53zM703.003 406c-40.667 0 -72.667 -17.667 -96 -53s-35 -82.666 -35 -141.999s11.333 -106.5 34 -141.5
s54.334 -52.5 95.001 -52.5s73.167 17.5 97.5 52.5s36.5 82.167 36.5 141.5s-11.833 106.666 -35.5 141.999s-55.834 53 -96.501 53z" />
    <glyph glyph-name="guilsinglleft" unicode="&#x2039;" horiz-adv-x="313" 
d="M205 0l-143 263l143 262h25l-144 -262l144 -263h-25z" />
    <glyph glyph-name="guilsinglright" unicode="&#x203a;" horiz-adv-x="313" 
d="M108 525l143 -263l-143 -262h-25l144 262l-144 263h25z" />
    <glyph glyph-name="fraction" unicode="&#x2044;" horiz-adv-x="466" 
d="M466 740l-441 -740h-25l441 740h25z" />
    <glyph glyph-name="Euro" unicode="&#x20ac;" horiz-adv-x="722" 
d="M130 436h-110v23h113c13.333 88.667 45 160.167 95 214.5s109.667 81.5 179 81.5c34.667 0 65.834 -6 93.501 -18s50.667 -29.167 69 -51.5s33.5 -45.5 45.5 -69.5s23 -52 33 -84l-24 -8c-9.33301 30 -19.166 56 -29.499 78s-23.833 43.667 -40.5 65
s-37.334 37.5 -62.001 48.5s-53 16.5 -85 16.5c-63.333 0 -117.5 -25.167 -162.5 -75.5s-73.833 -116.166 -86.5 -197.499h255v-23h-258c-2 -18.667 -3 -38.667 -3 -60c0 -25.333 1.33301 -47.666 4 -66.999h257v-23h-254c13.333 -82.667 42.666 -149.667 87.999 -201
s100.666 -77 165.999 -77c34.667 0 65.167 6.33301 91.5 19s48 30.667 65 54s30.333 45.833 40 67.5s18.834 46.834 27.501 75.501l24 -6c-6.66699 -25.333 -15.167 -49.333 -25.5 -72s-24.833 -47.334 -43.5 -74.001s-43.334 -47.834 -74.001 -63.501
s-65.667 -23.5 -105 -23.5c-72 0 -133.167 27.667 -183.5 83s-82.166 128 -95.499 218h-114v23h111c-2.66699 19.333 -4 41.666 -4 66.999c0 21.333 1 41.333 3 60z" />
    <glyph glyph-name="trademark" unicode="&#x2122;" horiz-adv-x="861" 
d="M772 686l-158 -369h-21l-154 366v-366h-19v423h18l167 -398l170 398h19v-423h-22v369zM171 718h-141v22h307v-22h-143v-401h-23v401z" />
    <glyph glyph-name="partialdiff" unicode="&#x2202;" horiz-adv-x="780" 
d="M378 0l2 199l-141 -2l1 -43h-23v43h-43v23l43 -1l2 141l-199 -3v25l199 -2l-2 141l-43 -1v23h43v43h23l-1 -44l141 -1l-2 199h25l-3 -199l141 1l-1 44h23l-1 -44l44 1v-23h-44l-1 -140l199 2v-25l-199 3l1 -141l44 1v-23h-44l1 -43h-23v44l-140 1l3 -199h-25zM400 380
h142l-2 140l-140 2v-142zM238 380h142v142l-141 -1zM400 218l140 1l2 141h-142v-142zM380 218v142h-142l1 -141z" />
    <glyph glyph-name="product" unicode="&#x220f;" horiz-adv-x="571" 
d="M286 289c-64.667 0 -119.5 22.667 -164.5 68s-67.5 100.333 -67.5 165s22.5 119.667 67.5 165s99.833 68 164.5 68s119.334 -22.667 164.001 -68s67 -100.333 67 -165s-22.333 -119.667 -67 -165s-99.334 -68 -164.001 -68zM286 308c58.667 0 108.667 20.833 150 62.5
s62 92.167 62 151.5s-20.667 109.833 -62 151.5s-91.333 62.5 -150 62.5s-108.834 -20.833 -150.501 -62.5s-62.5 -92.167 -62.5 -151.5s20.833 -109.833 62.5 -151.5s91.834 -62.5 150.501 -62.5zM209 392v260.999h87c60 0 90 -23.667 90 -71
c0 -43.333 -25 -67.666 -75 -72.999l75 -117h-23l-73 116h-61v-116h-20zM229 526.999h65c48.667 0 73 18.333 73 55c0 34.667 -23.667 52 -71 52h-67v-107z" />
    <glyph glyph-name="summation" unicode="&#x2211;" horiz-adv-x="780" 
d="M378 0l2 199l-141 -2l1 -43h-23v43h-43v23l43 -1l2 141l-199 -3v25l199 -2l-2 141l-43 -1v23h43v43h23l-1 -44l141 -1l-2 199h25l-3 -199l141 1l-1 44h23l-1 -44l44 1v-23h-44l-1 -140l199 2v-25l-199 3l1 -141l44 1v-23h-44l1 -43h-23v44l-140 1l3 -199h-25zM400 380
h142l-2 140l-140 2v-142zM238 380h142v142l-141 -1zM400 218l140 1l2 141h-142v-142zM380 218v142h-142l1 -141z" />
    <glyph glyph-name="minus" unicode="&#x2212;" horiz-adv-x="624" 
d="M65 313v23h494v-23h-494z" />
    <glyph glyph-name="radical" unicode="&#x221a;" horiz-adv-x="582" 
d="M238 -4l-201 529h24l190 -500l271 715h23l-282 -744h-25z" />
    <glyph glyph-name="infinity" unicode="&#x221e;" horiz-adv-x="791" 
d="M668 662v42h32v-42h-32zM400 525l0.00195312 103c0 40 12.167 68.833 36.5 86.5s63.166 26.834 116.499 27.501v-22c-46.667 0 -80 -6.83301 -100 -20.5s-30 -36.834 -30 -69.501v-105h126v-22h-126v-503h-23v503h-249v-503h-23v503h-92v22h92v103
c0 40 12.167 68.833 36.5 86.5s63.166 26.834 116.499 27.501v-22c-46.667 0 -80 -6.83301 -100 -20.5s-30 -36.834 -30 -69.501v-105h249zM672.002 0v525h23v-525h-23z" />
    <glyph glyph-name="integral" unicode="&#x222b;" horiz-adv-x="780" 
d="M378 0l2 199l-141 -2l1 -43h-23v43h-43v23l43 -1l2 141l-199 -3v25l199 -2l-2 141l-43 -1v23h43v43h23l-1 -44l141 -1l-2 199h25l-3 -199l141 1l-1 44h23l-1 -44l44 1v-23h-44l-1 -140l199 2v-25l-199 3l1 -141l44 1v-23h-44l1 -43h-23v44l-140 1l3 -199h-25zM400 380
h142l-2 140l-140 2v-142zM238 380h142v142l-141 -1zM400 218l140 1l2 141h-142v-142zM380 218v142h-142l1 -141z" />
    <glyph glyph-name="approxequal" unicode="&#x2248;" horiz-adv-x="780" 
d="M378 0l2 199l-141 -2l1 -43h-23v43h-43v23l43 -1l2 141l-199 -3v25l199 -2l-2 141l-43 -1v23h43v43h23l-1 -44l141 -1l-2 199h25l-3 -199l141 1l-1 44h23l-1 -44l44 1v-23h-44l-1 -140l199 2v-25l-199 3l1 -141l44 1v-23h-44l1 -43h-23v44l-140 1l3 -199h-25zM400 380
h142l-2 140l-140 2v-142zM238 380h142v142l-141 -1zM400 218l140 1l2 141h-142v-142zM380 218v142h-142l1 -141z" />
    <glyph glyph-name="notequal" unicode="&#x2260;" horiz-adv-x="577" 
d="M400 525l0.00195312 103c0 40 12.167 68.833 36.5 86.5s63.166 26.834 116.499 27.501v-22c-46.667 0 -80 -6.83301 -100 -20.5s-30 -36.834 -30 -69.501v-105h126v-22h-126v-503h-23v503h-249v-503h-23v503h-92v22h92v103c0 40 12.167 68.833 36.5 86.5
s63.166 26.834 116.499 27.501v-22c-46.667 0 -80 -6.83301 -100 -20.5s-30 -36.834 -30 -69.501v-105h249z" />
    <glyph glyph-name="lessequal" unicode="&#x2264;" horiz-adv-x="780" 
d="M378 0l2 199l-141 -2l1 -43h-23v43h-43v23l43 -1l2 141l-199 -3v25l199 -2l-2 141l-43 -1v23h43v43h23l-1 -44l141 -1l-2 199h25l-3 -199l141 1l-1 44h23l-1 -44l44 1v-23h-44l-1 -140l199 2v-25l-199 3l1 -141l44 1v-23h-44l1 -43h-23v44l-140 1l3 -199h-25zM400 380
h142l-2 140l-140 2v-142zM238 380h142v142l-141 -1zM400 218l140 1l2 141h-142v-142zM380 218v142h-142l1 -141z" />
    <glyph glyph-name="greaterequal" unicode="&#x2265;" horiz-adv-x="780" 
d="M378 0l2 199l-141 -2l1 -43h-23v43h-43v23l43 -1l2 141l-199 -3v25l199 -2l-2 141l-43 -1v23h43v43h23l-1 -44l141 -1l-2 199h25l-3 -199l141 1l-1 44h23l-1 -44l44 1v-23h-44l-1 -140l199 2v-25l-199 3l1 -141l44 1v-23h-44l1 -43h-23v44l-140 1l3 -199h-25zM400 380
h142l-2 140l-140 2v-142zM238 380h142v142l-141 -1zM400 218l140 1l2 141h-142v-142zM380 218v142h-142l1 -141z" />
    <glyph glyph-name="lozenge" unicode="&#x25ca;" horiz-adv-x="780" 
d="M378 0l2 199l-141 -2l1 -43h-23v43h-43v23l43 -1l2 141l-199 -3v25l199 -2l-2 141l-43 -1v23h43v43h23l-1 -44l141 -1l-2 199h25l-3 -199l141 1l-1 44h23l-1 -44l44 1v-23h-44l-1 -140l199 2v-25l-199 3l1 -141l44 1v-23h-44l1 -43h-23v44l-140 1l3 -199h-25zM400 380
h142l-2 140l-140 2v-142zM238 380h142v142l-141 -1zM400 218l140 1l2 141h-142v-142zM380 218v142h-142l1 -141z" />
    <glyph glyph-name="fi" unicode="&#xfb01;" horiz-adv-x="519" 
d="M396 662v42h32v-42h-32zM128 503h-91.999v22h92v103c0 40 12.167 68.833 36.5 86.5s63.166 26.834 116.499 27.501v-22c-46.667 0 -80 -6.83301 -100 -20.5s-30 -36.834 -30 -69.501v-105h126v-22h-126v-503h-23v503zM400.001 0v525h23v-525h-23z" />
    <glyph glyph-name="fl" unicode="&#xfb02;" horiz-adv-x="514" 
d="M128 503h-91.999v22h92v103c0 40 12.167 68.833 36.5 86.5s63.166 26.834 116.499 27.501v-22c-46.667 0 -80 -6.83301 -100 -20.5s-30 -36.834 -30 -69.501v-105h126v-22h-126v-503h-23v503zM400.001 0v740h23v-740h-23z" />
    <glyph glyph-name=".null" horiz-adv-x="0" 
 />
    <glyph glyph-name="nonmarkingreturn" horiz-adv-x="333" 
 />
    <glyph glyph-name="NUL" horiz-adv-x="0" 
 />
    <glyph glyph-name="apple" horiz-adv-x="780" 
d="M378 0l2 199l-141 -2l1 -43h-23v43h-43v23l43 -1l2 141l-199 -3v25l199 -2l-2 141l-43 -1v23h43v43h23l-1 -44l141 -1l-2 199h25l-3 -199l141 1l-1 44h23l-1 -44l44 1v-23h-44l-1 -140l199 2v-25l-199 3l1 -141l44 1v-23h-44l1 -43h-23v44l-140 1l3 -199h-25zM400 380
h142l-2 140l-140 2v-142zM238 380h142v142l-141 -1zM400 218l140 1l2 141h-142v-142zM380 218v142h-142l1 -141z" />
  </font>
</defs>
</svg>
