<?xml version="1.0" standalone="no"?>
<!DOCTYPE svg PUBLIC "-//W3C//DTD SVG 1.1//EN" "http://www.w3.org/Graphics/SVG/1.1/DTD/svg11.dtd" >
<svg>
<metadata>
Created by FontForge 20090914 at Tue Aug 20 07:28:25 2013
 By www-data
[c] Copyright 2000-2003, The Font Bureau, Inc. Designed by Cyrus Highsmith, Tobias Frere-Jones, and Font Bureau. All rights reserved.
</metadata>
<defs>
<font id="BentonSans-Light" horiz-adv-x="500" >
  <font-face 
    font-family="BentonSans"
    font-weight="200"
    font-stretch="normal"
    units-per-em="1000"
    panose-1="2 0 3 3 0 0 0 0 0 0"
    ascent="800"
    descent="-200"
    x-height="525"
    cap-height="740"
    bbox="-97 -205 1272 953"
    underline-thickness="20"
    underline-position="-133"
    unicode-range="U+0020-U+FFFD"
  />
<missing-glyph 
 />
    <glyph glyph-name=".notdef" unicode="&#xfffd;" 
 />
    <glyph glyph-name="space" unicode=" " horiz-adv-x="216" 
 />
    <glyph glyph-name="exclam" unicode="!" horiz-adv-x="303" 
d="M140 194l-18 546h59l-18 -546h-23zM118 0v80h67v-80h-67z" />
    <glyph glyph-name="quotedbl" unicode="&#x22;" horiz-adv-x="392" 
d="M269 493l-17 196v51h54v-51l-17 -196h-20zM103 493l-17 196v51h54v-51l-17 -196h-20z" />
    <glyph glyph-name="numbersign" unicode="#" horiz-adv-x="695" 
d="M119 0l47 224h-118v43h127l43 206h-127v43h136l47 224h46l-47 -224h210l47 224h46l-47 -224h118v-43h-127l-43 -206h127v-43h-136l-47 -224h-46l47 224h-210l-47 -224h-46zM221 267h210l43 206h-210z" />
    <glyph glyph-name="dollar" unicode="$" horiz-adv-x="639" 
d="M296 -3c-60 3.33301 -109.332 18.666 -147.999 45.999s-67 57.333 -85 90l40 25c23.333 -36.667 50.166 -64.667 80.499 -84s68.166 -30.333 113.499 -33v328c-33.333 10.667 -60.833 20.667 -82.5 30s-43.334 21.5 -65.001 36.5s-37.834 33.333 -48.501 55
s-16 46.834 -16 75.501c0 48.667 18.833 90 56.5 124s89.167 52.333 154.5 55v74h44v-75c90 -7.33301 156.667 -48.333 200 -123l-40 -27c-21.333 34 -43.666 59.333 -66.999 76s-54.666 26.334 -93.999 29.001v-294l69 -22.5c16.667 -5.66699 37.167 -14.834 61.5 -27.501
s42.833 -25.667 55.5 -39s23.834 -31 33.501 -53s14.5 -46.667 14.5 -74c0 -56 -21.167 -101.333 -63.5 -136s-98.833 -53.667 -169.5 -57v-89h-44v90zM297.001 700c-53.333 -2.66699 -93.668 -16.167 -121.001 -40.5s-41 -54.5 -41 -90.5c0 -40 13.833 -70.833 41.5 -92.5
s67.834 -41.167 120.501 -58.5v282zM338.999 42c54.667 2.66699 99.001 15.334 133.001 38.001s51 58 51 106c0 25.333 -4.66699 47.5 -14 66.5s-23.833 35 -43.5 48s-38.334 23.167 -56.001 30.5s-41.167 15.666 -70.5 24.999v-314z" />
    <glyph glyph-name="percent" unicode="%" horiz-adv-x="938" 
d="M224 315c-50 0 -88.834 19.668 -116.501 59.001s-41.5 91.333 -41.5 156c0 67.333 14.5 120.833 43.5 160.5s67.833 59.5 116.5 59.5s87 -19.5 115 -58.5s42 -91.5 42 -157.5c0 -64.667 -14.167 -117.334 -42.5 -158.001s-67.166 -61 -116.499 -61zM223.999 0.000976562
l442 740h48l-442 -740h-48zM712.999 -9.99902c-50 0 -88.834 19.668 -116.501 59.001s-41.5 91.333 -41.5 156c0 67.333 14.5 120.833 43.5 160.5s67.833 59.5 116.5 59.5s87 -19.5 115 -58.5s42 -91.5 42 -157.5c0 -64.667 -14.167 -117.334 -42.5 -158.001
s-67.166 -61 -116.499 -61zM224.998 358.002c34 0 60.833 16.668 80.5 50.001s29.5 74.666 29.5 123.999c0 52.667 -9.83301 95 -29.5 127s-46.834 48 -81.501 48c-34 0 -60.833 -16.5 -80.5 -49.5s-29.5 -74.167 -29.5 -123.5c0 -52.667 9.83301 -95.167 29.5 -127.5
s46.834 -48.5 81.501 -48.5zM713.998 33.0029c34 0 60.833 16.668 80.5 50.001s29.5 74.666 29.5 123.999c0 52.667 -9.83301 95 -29.5 127s-46.834 48 -81.501 48c-34 0 -60.833 -16.5 -80.5 -49.5s-29.5 -74.167 -29.5 -123.5c0 -52.667 9.83301 -95.167 29.5 -127.5
s46.834 -48.5 81.501 -48.5z" />
    <glyph glyph-name="ampersand" unicode="&#x26;" horiz-adv-x="716" 
d="M286 -14c-80 0 -140.168 17.3359 -180.501 52.0029s-60.5 83 -60.5 145c0 88 58.333 164 175 228c-34.667 59.333 -52 116.666 -52 171.999c0 47.333 14.5 87.666 43.5 120.999s69.167 50 120.5 50c46 0 82 -12.833 108 -38.5s39 -58.834 39 -99.501
c0 -46 -16.667 -86 -50 -120s-80.666 -66.667 -141.999 -98c14 -21.333 38.667 -55 74 -101c52 -67.333 98.333 -121 139 -161c45.333 58 73.666 135 84.999 231h51c-14.667 -106 -49 -192.667 -103 -260c54 -46 105 -69 153 -69v-48c-34.667 2 -66.167 9.16699 -94.5 21.5
s-58.833 32.833 -91.5 61.5c-61.333 -58 -132.666 -87 -213.999 -87zM264.999 433.003c52 26.667 92.333 53.832 121 81.499s43 60.834 43 99.501c0 27.333 -8 50 -24 68s-40.667 27 -74 27c-36.667 0 -64.667 -11.667 -84 -35s-29 -53 -29 -89
c0 -50 15.667 -100.667 47 -152zM286.999 31.001c72 0 132.668 23.668 182.001 71.001c-40 39.333 -90 96.333 -150 171c-37.333 47.333 -63 81.333 -77 102c-98 -54.667 -147 -118.334 -147 -191.001c0 -48 16.167 -85.5 48.5 -112.5s80.166 -40.5 143.499 -40.5z" />
    <glyph glyph-name="quotesingle" unicode="'" horiz-adv-x="226" 
d="M103 493l-17 196v51h54v-51l-17 -196h-20z" />
    <glyph glyph-name="parenleft" unicode="(" horiz-adv-x="396" 
d="M315 -205c-165.333 138.667 -248 297 -248 475s82.667 336.333 248 475l21 -25c-67.333 -59.333 -119.833 -127.333 -157.5 -204s-56.5 -158.667 -56.5 -246s18.833 -169.333 56.5 -246s90.167 -144.667 157.5 -204z" />
    <glyph glyph-name="parenright" unicode=")" horiz-adv-x="396" 
d="M81 -205l-21 25c67.333 59.333 119.833 127.333 157.5 204s56.5 158.667 56.5 246s-18.833 169.333 -56.5 246s-90.167 144.667 -157.5 204l21 25c165.333 -138.667 248 -297 248 -475s-82.667 -336.333 -248 -475z" />
    <glyph glyph-name="asterisk" unicode="*" horiz-adv-x="508" 
d="M173 364l-42 25l107 154l-188 -13v46l188 -13l-107 154l42 25l81 -170l81 170l42 -25l-107 -154l188 13v-46l-188 13l107 -154l-42 -25l-81 170z" />
    <glyph glyph-name="plus" unicode="+" horiz-adv-x="634" 
d="M294 72v230h-229v44h229v230h46v-230h229v-44h-229v-230h-46z" />
    <glyph glyph-name="comma" unicode="," horiz-adv-x="265" 
d="M105 -97l20 97h-26v80h67v-74l-39 -103h-22z" />
    <glyph glyph-name="hyphen" unicode="-" horiz-adv-x="357" 
d="M70 290v48h217v-48h-217z" />
    <glyph glyph-name="period" unicode="." horiz-adv-x="265" 
d="M99 0v80h67v-80h-67z" />
    <glyph glyph-name="slash" unicode="/" horiz-adv-x="528" 
d="M23 0l430 740h52l-430 -740h-52z" />
    <glyph glyph-name="zero" unicode="0" horiz-adv-x="643" 
d="M322 -14c-83.333 0 -148 34.667 -194 104s-69 162.666 -69 279.999s23 210.666 69 279.999s110.667 104 194 104s147.833 -34.667 193.5 -104s68.5 -162.666 68.5 -279.999s-22.833 -210.666 -68.5 -279.999s-110.167 -104 -193.5 -104zM322 30
c66.667 0 118.832 29.667 156.499 89s56.5 143 56.5 251c0 107.333 -19.167 190.833 -57.5 250.5s-90.166 89.5 -155.499 89.5c-67.333 0 -119.833 -29.667 -157.5 -89s-56.5 -143 -56.5 -251c0 -107.333 19.333 -190.833 58 -250.5s90.667 -89.5 156 -89.5z" />
    <glyph glyph-name="one" unicode="1" horiz-adv-x="426" 
d="M66 0v46h141v637c-42.667 -22.667 -89 -34 -139 -34v43c63.333 2 111 18 143 48h45v-694h128v-46h-318z" />
    <glyph glyph-name="two" unicode="2" horiz-adv-x="581" 
d="M53 0v16c0 56 18.833 109.667 56.5 161s103.5 107 197.5 167c56 35.333 95.833 68.666 119.5 99.999s35.5 67 35.5 107c0 48 -14.167 86.5 -42.5 115.5s-68.833 43.5 -121.5 43.5c-83.333 0 -146 -45 -188 -135l-41 20c48.667 106 125.667 159 231 159
c64 0 115.167 -18.667 153.5 -56s57.5 -85.333 57.5 -144c0 -51.333 -14.667 -95.666 -44 -132.999s-80.333 -79 -153 -125c-68 -43.333 -119.5 -86.5 -154.5 -129.5s-53.167 -83.167 -54.5 -120.5h409v-46h-461z" />
    <glyph glyph-name="three" unicode="3" horiz-adv-x="583" 
d="M281 -14c-52.667 0 -100.499 12.332 -143.499 36.999s-77.5 59.334 -103.5 104.001l41 25c51.333 -81.333 120.333 -122 207 -122c57.333 0 102.833 15.333 136.5 46s50.5 70.334 50.5 119.001c0 60 -19 104.5 -57 133.5s-102.333 43.5 -193 43.5h-26v44h32
c80 0 138.167 12.333 174.5 37s54.5 62.667 54.5 114c0 42.667 -13.833 77.167 -41.5 103.5s-69.834 39.5 -126.501 39.5c-70 0 -129.333 -32.333 -178 -97l-40 26c60 76.667 133 115 219 115c72 0 126 -18 162 -54s54 -79.333 54 -130c0 -48 -13.5 -87.5 -40.5 -118.5
s-63.833 -50.167 -110.5 -57.5c110.667 -22.667 166 -88.334 166 -197.001c0 -60 -21.5 -110.167 -64.5 -150.5s-100.5 -60.5 -172.5 -60.5z" />
    <glyph glyph-name="four" unicode="4" horiz-adv-x="590" 
d="M391 0v190h-355v35l337 515h66v-505h125v-45h-125v-190h-48zM95 235h296v448h-2z" />
    <glyph glyph-name="five" unicode="5" horiz-adv-x="576" 
d="M281 -14c-51.333 0 -97.501 12.834 -138.501 38.501s-73.5 59.834 -97.5 102.501l41 25c48.667 -81.333 114 -122 196 -122c62.667 0 110.834 20.833 144.501 62.5s50.5 91.167 50.5 148.5c0 62 -16.667 110.667 -50 146s-76 53 -128 53
c-72.667 0 -131.667 -33.667 -177 -101l-41 17l28 384h378l-5 -48h-328l-22 -282c42 49.333 98 74 168 74c65.333 0 119.333 -21.833 162 -65.5s64 -101.834 64 -174.501c0 -74.667 -22.333 -136.334 -67 -185.001s-104 -73 -178 -73z" />
    <glyph glyph-name="six" unicode="6" horiz-adv-x="601" 
d="M312 -14c-73.333 0 -133.833 31.332 -181.5 93.999s-71.5 155 -71.5 277c0 72 11.167 138 33.5 198s55 108.167 98 144.5s91.833 54.5 146.5 54.5c69.333 0 126.333 -18.333 171 -55l-28 -39c-21.333 17.333 -42.5 30 -63.5 38s-47.833 12 -80.5 12
c-70 0 -126 -34.167 -168 -102.5s-62.333 -153.166 -61 -254.499c60.667 71.333 133 107 217 107c76.667 0 134 -21.5 172 -64.5s57 -98.167 57 -165.5c0 -70 -21.833 -128.167 -65.5 -174.5s-102.167 -69.5 -175.5 -69.5zM315 29.999c56.667 0 102.167 17.499 136.5 52.499
s51.5 84.167 51.5 147.5c0 56.667 -15.167 101.834 -45.5 135.501s-75.833 50.5 -136.5 50.5c-41.333 0 -80.333 -11.167 -117 -33.5s-68 -52.5 -94 -90.5c8 -86.667 30.833 -152 68.5 -196s83.167 -66 136.5 -66z" />
    <glyph glyph-name="seven" unicode="7" horiz-adv-x="551" 
d="M128 0l318 692h-387v48h440v-45l-319 -695h-52z" />
    <glyph glyph-name="eight" unicode="8" horiz-adv-x="600" 
d="M300 -14c-78 0 -140.166 18.334 -186.499 55.001s-69.5 81.667 -69.5 135c0 50 16.5 91.333 49.5 124s84.167 64 153.5 94c-56.667 24.667 -99 51 -127 79s-42 63 -42 105c0 47.333 20.5 88.5 61.5 123.5s94.5 52.5 160.5 52.5c67.333 0 121.166 -17.5 161.499 -52.5
s60.5 -76.167 60.5 -123.5c0 -42.667 -13.5 -76.834 -40.5 -102.501s-70.833 -52.167 -131.5 -79.5c72 -31.333 124.333 -63 157 -95s49 -73.667 49 -125c0 -52 -23.167 -96.667 -69.5 -134s-108.5 -56 -186.5 -56zM301.001 417.001
c64.667 27.333 109.499 52.002 134.499 74.002s37.5 51 37.5 87c0 35.333 -15 66.166 -45 92.499s-72.667 39.5 -128 39.5c-53.333 0 -95.5 -13 -126.5 -39s-46.5 -56 -46.5 -90c0 -35.333 12.833 -64.333 38.5 -87s70.834 -48.334 135.501 -77.001zM300 30.0029
c60 0 109.5 13.668 148.5 41.001s58.5 63.333 58.5 108c0 42 -16.667 77.167 -50 105.5s-86.333 57.833 -159 88.5c-75.333 -33.333 -128.333 -63.833 -159 -91.5s-46 -61.834 -46 -102.501c0 -43.333 19.5 -79 58.5 -107s88.5 -42 148.5 -42z" />
    <glyph glyph-name="nine" unicode="9" horiz-adv-x="601" 
d="M264 -14c-75.333 0 -138.001 22.668 -188.001 68.001l27 38c26 -22 50.333 -37.833 73 -47.5s52.334 -14.5 89.001 -14.5c70 0 126 34.167 168 102.5s62.333 153.166 61 254.499c-60.667 -71.333 -133 -107 -217 -107c-76.667 0 -134 21.5 -172 64.5
s-57 98.167 -57 165.5c0 70 21.833 128.167 65.5 174.5s102.167 69.5 175.5 69.5s133.833 -31.333 181.5 -94s71.5 -155 71.5 -277c0 -72 -11.167 -138 -33.5 -198s-55 -108.167 -98 -144.5s-91.833 -54.5 -146.5 -54.5zM279.999 324.001c41.333 0 80.333 11.168 117 33.501
s68 52.5 94 90.5c-8 86.667 -30.833 152 -68.5 196s-83.167 66 -136.5 66c-56.667 0 -102.167 -17.5 -136.5 -52.5s-51.5 -84.167 -51.5 -147.5c0 -56.667 15.167 -101.834 45.5 -135.501s75.833 -50.5 136.5 -50.5z" />
    <glyph glyph-name="colon" unicode=":" horiz-adv-x="265" 
d="M99 445v80h67v-80h-67zM99 0v80h67v-80h-67z" />
    <glyph glyph-name="semicolon" unicode=";" horiz-adv-x="265" 
d="M99 445v80h67v-80h-67zM105 -97l20 97h-26v80h67v-74l-39 -103h-22z" />
    <glyph glyph-name="less" unicode="&#x3c;" horiz-adv-x="634" 
d="M578 78l-529 225v42l529 225v-49l-470 -197l470 -197v-49z" />
    <glyph glyph-name="equal" unicode="=" horiz-adv-x="634" 
d="M64 415v46h505v-46h-505zM64 187v46h505v-46h-505z" />
    <glyph glyph-name="greater" unicode="&#x3e;" horiz-adv-x="634" 
d="M56 78v49l470 197l-470 197v49l529 -225v-42z" />
    <glyph glyph-name="question" unicode="?" horiz-adv-x="526" 
d="M214 194c-1.33301 24 -1.99902 45.667 -1.99902 65c0 35.333 6.16699 64.166 18.5 86.499s34.833 43.5 67.5 63.5c47.333 29.333 79.833 54.5 97.5 75.5s26.5 50.5 26.5 88.5c0 42 -14.333 75.167 -43 99.5s-68 36.5 -118 36.5c-42 0 -76.667 -8.83301 -104 -26.5
s-53.333 -44.5 -78 -80.5l-38 26c30 40.667 61.833 71.834 95.5 93.501s75.5 32.5 125.5 32.5c61.333 0 111.666 -16.667 150.999 -50s59 -76.333 59 -129c0 -45.333 -10.833 -81.5 -32.5 -108.5s-54.167 -53.5 -97.5 -79.5c-39.333 -24 -64 -47.5 -74 -70.5
s-15 -63.833 -15 -122.5h-39zM200.001 0v80h67v-80h-67z" />
    <glyph glyph-name="at" unicode="@" horiz-adv-x="868" 
d="M434 -14c-112 0 -204.001 35.333 -276.001 106s-108 163.334 -108 278.001c0 114 36.333 206.5 109 277.5s164.334 106.5 275.001 106.5c110 0 201.5 -35 274.5 -105s109.5 -159.667 109.5 -269c0 -68.667 -15.333 -123 -46 -163s-69 -60 -115 -60
c-29.333 0 -53.833 7.33301 -73.5 22s-33.167 32.667 -40.5 54c-57.333 -50.667 -113.666 -76 -168.999 -76c-46 0 -83.167 13.667 -111.5 41s-42.5 67.666 -42.5 120.999c0 76 20 140.333 60 193s91.333 79 154 79c50 0 94.333 -18.667 133 -56l7 47h43l-42 -294
c-4 -27.333 1.66699 -50 17 -68s37.666 -27 66.999 -27c36 0 65.5 15.833 88.5 47.5s34.5 78.167 34.5 139.5c0 100 -33 181.667 -99 245s-149 95 -249 95s-182.833 -32.667 -248.5 -98s-98.5 -149.333 -98.5 -252s32.833 -186.667 98.5 -252s148.5 -98 248.5 -98
c69.333 0 138.333 17.667 207 53l15 -30c-71.333 -38 -145.333 -57 -222 -57zM371.999 196c55.333 0 107.667 23.333 157 70l32 222c-35.333 42 -81 63 -137 63c-46 0 -84 -22.333 -114 -67s-45 -98.667 -45 -162c0 -84 35.667 -126 107 -126z" />
    <glyph glyph-name="A" unicode="A" horiz-adv-x="663" 
d="M40 0l262 743h59l262 -743h-53l-86 248h-307l-86 -248h-51zM193 293h275l-137 394h-2z" />
    <glyph glyph-name="B" unicode="B" horiz-adv-x="679" 
d="M99 0v740h248c84 0 146.333 -16.667 187 -50s61 -79 61 -137c0 -46.667 -13.5 -84.5 -40.5 -113.5s-61.167 -48.167 -102.5 -57.5v-2c49.333 -9.33301 89.833 -29.333 121.5 -60s47.5 -70.667 47.5 -120c0 -59.333 -20.5 -107.5 -61.5 -144.5
s-103.833 -55.5 -188.5 -55.5h-272zM149 403h194c64.667 0 114.5 12.333 149.5 37s52.5 61.334 52.5 110.001c0 49.333 -16 85.666 -48 108.999s-82.333 35 -151 35h-197v-291zM149 46h224.999c131.333 0 197 51.333 197 154c0 52.667 -19.667 92.167 -59 118.5
s-93.666 39.5 -162.999 39.5h-200v-312z" />
    <glyph glyph-name="C" unicode="C" horiz-adv-x="692" 
d="M364 -14c-91.333 0 -164.335 35.8311 -219.002 107.498s-82 165.167 -82 280.5c0 109.333 27.667 200 83 272s128 108 218 108c136 0 223 -74.667 261 -224l-48 -11c-18 64.667 -43.667 112.5 -77 143.5s-79 46.5 -137 46.5c-74.667 0 -135 -30.667 -181 -92
s-69 -141.666 -69 -240.999c0 -107.333 22.833 -191.666 68.5 -252.999s106.834 -92 183.501 -92c115.333 0 190.333 66.333 225 199l47 -11c-18 -73.333 -50.667 -130.5 -98 -171.5s-105.666 -61.5 -174.999 -61.5z" />
    <glyph glyph-name="D" unicode="D" horiz-adv-x="702" 
d="M99 0v740h178c120.667 0 211.167 -31.5 271.5 -94.5s90.5 -154.833 90.5 -275.5c0 -119.333 -30.5 -210.833 -91.5 -274.5s-151.167 -95.5 -270.5 -95.5h-178zM149 46h138.999c96.667 0 171 26.667 223 80s78 134.666 78 243.999
c0 108.667 -26.167 189.834 -78.5 243.501s-127.166 80.5 -224.499 80.5h-137v-648z" />
    <glyph glyph-name="E" unicode="E" horiz-adv-x="597" 
d="M99 0v740h428v-46h-378v-278h284v-46h-284v-324h400v-46h-450z" />
    <glyph glyph-name="F" unicode="F" horiz-adv-x="560" 
d="M99 0v740h421v-46h-371v-278h277v-46h-277v-370h-50z" />
    <glyph glyph-name="G" unicode="G" horiz-adv-x="714" 
d="M363 -14c-92 0 -165.001 36.333 -219.001 109s-81 165.334 -81 278.001c0 114 28.5 206 85.5 276s129.5 105 217.5 105c68.667 0 124.834 -19.5 168.501 -58.5s74.5 -94.167 92.5 -165.5l-48 -11c-18.667 64.667 -44.667 112.5 -78 143.5s-78.666 46.5 -135.999 46.5
c-73.333 0 -133.666 -30 -180.999 -90s-71 -141 -71 -243c0 -104 22.667 -187.5 68 -250.5s106.666 -94.5 183.999 -94.5c68 0 121.833 23.667 161.5 71s58.5 111.666 56.5 192.999h-191v46h240v-341h-49v116h-2c-44.667 -86.667 -117.334 -130 -218.001 -130z" />
    <glyph glyph-name="H" unicode="H" horiz-adv-x="724" 
d="M99 0v740h50v-325h426v325h50v-740h-50v369h-426v-369h-50z" />
    <glyph glyph-name="I" unicode="I" horiz-adv-x="270" 
d="M110 0v740h50v-740h-50z" />
    <glyph glyph-name="J" unicode="J" horiz-adv-x="490" 
d="M207 -14c-78 0 -136.999 36.332 -176.999 108.999l40 23c18 -29.333 37.333 -51.166 58 -65.499s46.667 -21.5 78 -21.5c93.333 0 140 53 140 159v550h50v-545c0 -68.667 -16.833 -120.667 -50.5 -156s-79.834 -53 -138.501 -53z" />
    <glyph glyph-name="K" unicode="K" horiz-adv-x="657" 
d="M99 0v740h50v-420l379 420h63l-255 -278l295 -462h-59l-271 423l-152 -166v-257h-50z" />
    <glyph glyph-name="L" unicode="L" horiz-adv-x="560" 
d="M99 0v740h50v-694h370v-46h-420z" />
    <glyph glyph-name="M" unicode="M" horiz-adv-x="863" 
d="M99 0v740h64l267 -672h2l268 672h64v-740h-51v647h-2l-47 -122l-211 -525h-46l-211 525c-27.333 70 -43 110.667 -47 122h-2v-647h-48z" />
    <glyph glyph-name="N" unicode="N" horiz-adv-x="735" 
d="M99 0v740h57l430 -642h2v642h48v-740h-43l-444 664h-2v-664h-48z" />
    <glyph glyph-name="O" unicode="O" horiz-adv-x="733" 
d="M367 -14c-89.333 0 -162.333 35.6709 -219 107.004s-85 163.666 -85 276.999s28.333 205.666 85 276.999s129.667 107 219 107s162.166 -35.833 218.499 -107.5s84.5 -163.834 84.5 -276.501s-28.167 -204.834 -84.5 -276.501s-129.166 -107.5 -218.499 -107.5z
M367 31.0039c74 0 134.667 30.5 182 91.5s71 143.5 71 247.5s-23.667 186.5 -71 247.5s-108 91.5 -182 91.5c-74.667 0 -135.667 -30.5 -183 -91.5s-71 -143.5 -71 -247.5s23.667 -186.5 71 -247.5s108.333 -91.5 183 -91.5z" />
    <glyph glyph-name="P" unicode="P" horiz-adv-x="635" 
d="M99 0v739.999h241c80 0 141.5 -16.667 184.5 -50s64.5 -80.666 64.5 -141.999c0 -67.333 -22.5 -117.833 -67.5 -151.5s-108.167 -50.5 -189.5 -50.5h-183v-346h-50zM149 391.999h186.999c67.333 0 118 11.833 152 35.5s51 63.167 51 118.5
c0 52 -17.167 89.667 -51.5 113s-85.166 35 -152.499 35h-186v-302z" />
    <glyph glyph-name="Q" unicode="Q" horiz-adv-x="733" 
d="M555 -183c-70.667 0 -124.166 15.501 -160.499 46.501s-54.5 72.167 -54.5 123.5c-82.667 7.33301 -149.5 46.333 -200.5 117s-76.5 159.334 -76.5 266.001c0 113.333 28.333 205.666 85 276.999s129.667 107 219 107s162.166 -35.833 218.499 -107.5
s84.5 -163.834 84.5 -276.501c0 -108 -25.833 -197.167 -77.5 -267.5s-119.167 -108.833 -202.5 -115.5c4.66699 -82.667 60 -124 166 -124h51v-46h-52zM367.001 31.001c74 0 134.667 30.5 182 91.5s71 143.5 71 247.5s-23.667 186.5 -71 247.5s-108 91.5 -182 91.5
c-74.667 0 -135.667 -30.5 -183 -91.5s-71 -143.5 -71 -247.5s23.667 -186.5 71 -247.5s108.333 -91.5 183 -91.5z" />
    <glyph glyph-name="R" unicode="R" horiz-adv-x="663" 
d="M99 0v739.999h241c80 0 141.5 -16.667 184.5 -50s64.5 -80.666 64.5 -141.999c0 -110 -60.333 -175 -181 -195l191 -353h-58l-188 347h-204v-347h-50zM149 391.999h186.999c67.333 0 118 11.833 152 35.5s51 63.167 51 118.5c0 52 -17.167 89.667 -51.5 113
s-85.166 35 -152.499 35h-186v-302z" />
    <glyph glyph-name="S" unicode="S" horiz-adv-x="639" 
d="M325 -14c-67.333 0 -124.002 17.667 -170.002 53s-76.667 84 -92 146l49 12c14 -54.667 39.667 -96 77 -124s83.333 -42 138 -42c60 0 107.667 13.5 143 40.5s53 62.833 53 107.5c0 42.667 -13.5 76.667 -40.5 102s-81.833 51.333 -164.5 78
c-86.667 28 -147.167 56.667 -181.5 86s-51.5 71.333 -51.5 126c0 50.667 21 93.834 63 129.501s95 53.5 159 53.5c65.333 0 118.5 -15.5 159.5 -46.5s69.5 -73.5 85.5 -127.5l-48 -14c-17.333 50.667 -42.166 87.167 -74.499 109.5s-73.5 33.5 -123.5 33.5
c-51.333 0 -92.666 -13 -123.999 -39s-47 -58 -47 -96c0 -43.333 14.333 -76 43 -98s86.667 -47.333 174 -76c81.333 -26.667 138.5 -55.834 171.5 -87.501s49.5 -75.167 49.5 -130.5c0 -60 -23.667 -107.667 -71 -143s-106.333 -53 -177 -53z" />
    <glyph glyph-name="T" unicode="T" horiz-adv-x="610" 
d="M280 0v694h-243v46h536v-46h-243v-694h-50z" />
    <glyph glyph-name="U" unicode="U" horiz-adv-x="713" 
d="M356 -14c-83.333 0 -147.834 24.5 -193.501 73.5s-68.5 109.833 -68.5 182.5v498h50v-486c0 -66 17.833 -119.667 53.5 -161s88.834 -62 159.501 -62c70 0 122.833 20.333 158.5 61s53.5 94 53.5 160v488h50v-495c0 -73.333 -23 -134.833 -69 -184.5
s-110.667 -74.5 -194 -74.5z" />
    <glyph glyph-name="V" unicode="V" horiz-adv-x="650" 
d="M302 -3l-262 743h52l233 -673h2l233 673h50l-262 -743h-46z" />
    <glyph glyph-name="W" unicode="W" horiz-adv-x="918" 
d="M241 0l-197.001 739.999h51l124 -475c14.667 -56 30.334 -119.667 47.001 -191h2c12 58 27 121.333 45 190l118 476h58l119 -480c25.333 -102.667 40 -164.667 44 -186h2c6.66699 30.667 21.667 91.334 45 182.001l126 484h49l-197 -740h-51l-166 671h-2l-167 -671h-50z
" />
    <glyph glyph-name="X" unicode="X" horiz-adv-x="642" 
d="M32 0l263 398l-227 342h58l196 -302l197 302h55l-226 -341l262 -399h-53l-236 360l-238 -360h-51z" />
    <glyph glyph-name="Y" unicode="Y" horiz-adv-x="601" 
d="M275 0v329l-246 411h56l217 -368l216 368h54l-247 -411v-329h-50z" />
    <glyph glyph-name="Z" unicode="Z" horiz-adv-x="615" 
d="M45 0v37l457 660h-427v43h486v-37l-457 -660h457v-43h-516z" />
    <glyph glyph-name="bracketleft" unicode="[" horiz-adv-x="376" 
d="M92 -200v940h233v-40h-184v-860h184v-40h-233z" />
    <glyph glyph-name="backslash" unicode="\" horiz-adv-x="528" 
d="M453 0l-430 740h52l430 -740h-52z" />
    <glyph glyph-name="bracketright" unicode="]" horiz-adv-x="376" 
d="M51 -200v40h184v859h-184v41h233v-940h-233z" />
    <glyph glyph-name="asciicircum" unicode="^" 
d="M101 577l129 156h40l129 -156h-33l-117 104l-117 -104h-31z" />
    <glyph glyph-name="underscore" unicode="_" 
d="M0 -119v44h500v-44h-500z" />
    <glyph glyph-name="grave" unicode="`" 
d="M295 582l-139 151h75l95 -151h-31z" />
    <glyph glyph-name="a" unicode="a" horiz-adv-x="540" 
d="M201 -9c-47.333 0 -83.8291 11.501 -109.496 34.501s-38.5 54.833 -38.5 95.5c0 53.333 27.167 98 81.5 134s147.5 65 279.5 87v32c0 39.333 -9.83301 69.166 -29.5 89.499s-47.834 30.5 -84.501 30.5c-40.667 0 -76.834 -7.33301 -108.501 -22
s-63.5 -36.334 -95.5 -65.001l-28 30c35.333 32.667 71.166 57.334 107.499 74.001s78.166 25 125.499 25c53.333 0 93.5 -14 120.5 -42s40.5 -67 40.5 -117v-247c0 -62 5 -105.333 15 -130h-51c-8 25.333 -12 51.333 -12 78c-67.333 -58 -138.333 -87 -213 -87z
M205.004 33.001c76 0 145.667 30.668 209 92.001v181c-119.333 -20.667 -201.333 -45.834 -246 -75.501s-67 -65.167 -67 -106.5c0 -29.333 9.16699 -51.833 27.5 -67.5s43.833 -23.5 76.5 -23.5z" />
    <glyph glyph-name="b" unicode="b" horiz-adv-x="586" 
d="M309 -9c-59.333 0 -118.332 28.667 -176.999 86v-77h-48v740h48v-294c55.333 60 115 90 179 90s116.667 -23.5 158 -70.5s62 -114.5 62 -202.5s-20.833 -155.333 -62.5 -202s-94.834 -70 -159.501 -70zM312.001 33c49.333 0 90.167 19.167 122.5 57.5
s48.5 95.5 48.5 171.5c0 75.333 -16.5 132.833 -49.5 172.5s-74.167 59.5 -123.5 59.5c-33.333 0 -63.333 -7.5 -90 -22.5s-56 -38.833 -88 -71.5v-273c61.333 -62.667 121.333 -94 180 -94z" />
    <glyph glyph-name="c" unicode="c" horiz-adv-x="526" 
d="M274 -11c-62 0 -114.166 25.167 -156.499 75.5s-63.5 116.166 -63.5 197.499c0 87.333 22 154.833 66 202.5s97.667 71.5 161 71.5c88.667 0 153.667 -46.667 195 -140l-41 -22c-17.333 40 -38 70 -62 90s-55.333 30 -94 30c-21.333 0 -42 -4.16699 -62 -12.5
s-38.833 -21.166 -56.5 -38.499s-31.834 -41.5 -42.501 -72.5s-16 -66.833 -16 -107.5c0 -71.333 16.667 -127.833 50 -169.5s75 -62.5 125 -62.5c38.667 0 70 9.66699 94 29s46.667 50 68 92l38 -19c-23.333 -48 -51 -84 -83 -108s-72 -36 -120 -36z" />
    <glyph glyph-name="d" unicode="d" horiz-adv-x="586" 
d="M275 -9c-64 0 -116.668 23.168 -158.001 69.501s-62 113.5 -62 201.5s20.833 155.667 62.5 203s94.834 71 159.501 71c65.333 0 124.333 -29.333 177 -88v292h48v-610c0 -62.667 5.33301 -106 16 -130h-52c-8 25.333 -12 51.666 -12 78.999
c-56 -58.667 -115.667 -88 -179 -88zM275.999 33.001c33.333 0 63.332 7.5 89.999 22.5s56 38.833 88 71.5v273c-61.333 62.667 -121.333 94 -180 94c-49.333 0 -90.166 -19.5 -122.499 -58.5s-48.5 -96.5 -48.5 -172.5c0 -75.333 16.5 -132.5 49.5 -171.5
s74.167 -58.5 123.5 -58.5z" />
    <glyph glyph-name="e" unicode="e" horiz-adv-x="539" 
d="M275 -11c-61.333 0 -113.5 24.833 -156.5 74.5s-64.5 116.167 -64.5 199.5c0 86 22 153 66 201s96.333 72 157 72c62.667 0 113 -24.333 151 -73s57 -114 57 -196v-7h-383c0 -69.333 16.833 -124.833 50.5 -166.5s75.5 -62.5 125.5 -62.5c39.333 0 72 9 98 27
s49.667 45.333 71 82l35 -22c-46.667 -86 -115.667 -129 -207 -129zM103 300h332c-4 57.333 -19.5 104 -46.5 140s-64.5 54 -112.5 54c-43.333 0 -81.5 -16.833 -114.5 -50.5s-52.5 -81.5 -58.5 -143.5z" />
    <glyph glyph-name="f" unicode="f" horiz-adv-x="313" 
d="M120 0v482h-92v43h92v89c0 84 48 126 144 126h26v-44c-5.33301 0.666992 -16 1 -32 1c-60 0 -90 -26.333 -90 -79v-93h116v-43h-116v-482h-48z" />
    <glyph glyph-name="g" unicode="g" horiz-adv-x="555" 
d="M273 -200c-81.333 0 -142.834 11.4971 -184.501 34.4971s-62.5 55.5 -62.5 97.5c0 56 33.667 97 101 123c-33.333 12.667 -50 35.334 -50 68.001c0 28 20.333 52 61 72c-52 34.667 -78 85 -78 151c0 55.333 19.333 100.833 58 136.5s86.334 53.5 143.001 53.5
c58.667 0 107 -18 145 -54c36 25.333 75.667 41 119 47v-52c-38 0 -70.667 -6.33301 -98 -19c24 -31.333 36 -68.666 36 -111.999c0 -56.667 -19.5 -102 -58.5 -136s-86.5 -51 -142.5 -51c-32 0 -62 5.66699 -90 17c-31.333 -12 -47 -28.333 -47 -49
c0 -23.333 28 -37.666 84 -42.999l123 -11c116 -10.667 174 -54 174 -130c0 -44.667 -21.5 -79.667 -64.5 -105s-99.167 -38 -168.5 -38zM261.999 199.997c46.667 0 84 13.5 112 40.5s42 62.167 42 105.5c0 45.333 -13.667 81.5 -41 108.5s-65.333 40.5 -114 40.5
c-46.667 0 -84 -13.667 -112 -41s-42 -63.333 -42 -108c0 -43.333 14.167 -78.5 42.5 -105.5s65.833 -40.5 112.5 -40.5zM274.999 -160.003c56.667 0 101.5 9.16699 134.5 27.5s49.5 42.166 49.5 71.499c0 27.333 -11.833 48.5 -35.5 63.5s-61.167 24.833 -112.5 29.5
l-109 9c-12 1.33301 -20.667 2.33301 -26 3c-33.333 -10 -58.833 -24.667 -76.5 -44s-26.5 -40.666 -26.5 -63.999c0 -64 67.333 -96 202 -96z" />
    <glyph glyph-name="h" unicode="h" horiz-adv-x="573" 
d="M84 0v740h48v-302c68.667 65.333 136.334 98 203.001 98c53.333 0 93.166 -13.667 119.499 -41s39.5 -65.333 39.5 -114v-381h-48v375c0 40.667 -9.33301 70.667 -28 90s-47.667 29 -87 29c-62.667 0 -129 -33.333 -199 -100v-394h-48z" />
    <glyph glyph-name="i" unicode="i" horiz-adv-x="228" 
d="M88 659v61h52v-61h-52zM90 0v525h48v-525h-48z" />
    <glyph glyph-name="j" unicode="j" horiz-adv-x="228" 
d="M88 659v61h52v-61h-52zM42 -200c-10.667 0 -20 0.666992 -28 2v43c8 -2 17.333 -3 28 -3c32 0 48 18.333 48 55v628h48v-622c0 -68.667 -32 -103 -96 -103z" />
    <glyph glyph-name="k" unicode="k" horiz-adv-x="517" 
d="M84 0v740h48v-511l271 296h60l-172 -183l195 -342h-54l-175 305l-125 -134v-171h-48z" />
    <glyph glyph-name="l" unicode="l" horiz-adv-x="228" 
d="M90 0v740h48v-740h-48z" />
    <glyph glyph-name="m" unicode="m" horiz-adv-x="909" 
d="M84 0l-0.000976562 525h48v-87c68.667 65.333 134.334 98 197.001 98c80 0 128.667 -33 146 -99c72 66 139.667 99 203 99c101.333 0 152 -51.667 152 -155v-381h-48v375c0 40.667 -8.33301 70.667 -25 90s-44.667 29 -84 29c-58 0 -122 -33.333 -192 -100v-394h-48v375
c0 41.333 -8.33301 71.5 -25 90.5s-44.667 28.5 -84 28.5c-58 0 -122 -33.333 -192 -100v-394h-48z" />
    <glyph glyph-name="n" unicode="n" horiz-adv-x="573" 
d="M84 0v525h48v-87c68.667 65.333 136.334 98 203.001 98c53.333 0 93.166 -13.667 119.499 -41s39.5 -65.333 39.5 -114v-381h-48v375c0 40.667 -9.33301 70.667 -28 90s-47.667 29 -87 29c-62.667 0 -129 -33.333 -199 -100v-394h-48z" />
    <glyph glyph-name="o" unicode="o" horiz-adv-x="570" 
d="M285 -11c-66 0 -121.001 25 -165.001 75s-66 116 -66 198c0 82.667 21.833 149 65.5 199s98.834 75 165.501 75c66 0 121 -25 165 -75s66 -116.333 66 -199c0 -82 -22 -148 -66 -198s-99 -75 -165 -75zM284.999 31c55.333 0 99.668 21.667 133.001 65s50 99 50 167
c0 64.667 -16.333 119.334 -49 164.001s-77.334 67 -134.001 67c-55.333 0 -99.666 -21.833 -132.999 -65.5s-50 -98.834 -50 -165.501c0 -65.333 16.167 -120.333 48.5 -165s77.166 -67 134.499 -67z" />
    <glyph glyph-name="p" unicode="p" horiz-adv-x="586" 
d="M84 -200l0.000976562 725h48v-77c56 58.667 115.667 88 179 88c64 0 116.667 -23.5 158 -70.5s62 -114.5 62 -202.5s-20.833 -155.333 -62.5 -202s-94.834 -70 -159.501 -70c-59.333 0 -118.333 28.667 -177 86v-277h-48zM312.001 33c49.333 0 90.167 19.167 122.5 57.5
s48.5 95.5 48.5 171.5c0 75.333 -16.5 132.833 -49.5 172.5s-74.167 59.5 -123.5 59.5c-33.333 0 -63.333 -7.5 -90 -22.5s-56 -38.833 -88 -71.5v-273c61.333 -62.667 121.333 -94 180 -94z" />
    <glyph glyph-name="q" unicode="q" horiz-adv-x="586" 
d="M454 -200l-0.000976562 279c-56 -58.667 -115.667 -88 -179 -88c-64 0 -116.667 23.167 -158 69.5s-62 113.5 -62 201.5s20.833 155.667 62.5 203s94.834 71 159.501 71c59.333 0 118.333 -28.667 177 -86v75h48v-725h-48zM275.999 33c33.333 0 63.332 7.5 89.999 22.5
s56 38.833 88 71.5v273c-61.333 62.667 -121.333 94 -180 94c-49.333 0 -90.166 -19.5 -122.499 -58.5s-48.5 -96.5 -48.5 -172.5c0 -75.333 16.5 -132.5 49.5 -171.5s74.167 -58.5 123.5 -58.5z" />
    <glyph glyph-name="r" unicode="r" horiz-adv-x="388" 
d="M84 0v525h48v-110h2c51.333 80.667 123.333 121 216 121h14l-8 -45h-17c-44.667 0 -85 -12.5 -121 -37.5s-64.667 -60.833 -86 -107.5v-346h-48z" />
    <glyph glyph-name="s" unicode="s" 
d="M245 -9c-86.667 0 -152.334 32.334 -197.001 97.001l35 27c42.667 -54.667 97 -82 163 -82c48.667 0 85.834 9.16699 111.501 27.5s38.5 43.833 38.5 76.5c0 32 -11.167 56.333 -33.5 73s-63.166 32 -122.499 46c-66.667 16.667 -112.834 35.667 -138.501 57
s-38.5 52 -38.5 92c0 36 15.333 66.833 46 92.5s73 38.5 127 38.5c74.667 0 136.667 -25.667 186 -77l-32 -33c-42 45.333 -93.667 68 -155 68c-40.667 0 -71.5 -8.5 -92.5 -25.5s-31.5 -37.5 -31.5 -61.5c0 -27.333 9.33301 -48.333 28 -63s53.667 -28.334 105 -41.001
c76 -18.667 128.333 -39.5 157 -62.5s43 -57.5 43 -103.5c0 -44.667 -18.333 -80.167 -55 -106.5s-84.667 -39.5 -144 -39.5z" />
    <glyph glyph-name="t" unicode="t" horiz-adv-x="350" 
d="M247 -7c-44 0 -76.499 9.66699 -97.499 29s-31.5 51 -31.5 95v365h-92v43h92v191h48v-191h137v-43h-137v-358c0 -30 6.33301 -52.167 19 -66.5s34.667 -21.5 66 -21.5c22.667 0 41 2.33301 55 7v-45c-18.667 -3.33301 -38.334 -5 -59.001 -5z" />
    <glyph glyph-name="u" unicode="u" horiz-adv-x="573" 
d="M238 -11c-53.333 0 -93.166 13.667 -119.499 41s-39.5 65.333 -39.5 114v381h48v-375c0 -40.667 9.33301 -70.667 28 -90s47.667 -29 87 -29c62.667 0 129 33.333 199 100v394h48v-525h-48v87c-68.667 -65.333 -136.334 -98 -203.001 -98z" />
    <glyph glyph-name="v" unicode="v" horiz-adv-x="502" 
d="M227 -3l-195 528h53l166 -465h2l165 465h52l-195 -528h-48z" />
    <glyph glyph-name="w" unicode="w" horiz-adv-x="741" 
d="M196 0l-163 524.999h51l81 -276l52 -183h2c18 68.667 34.667 129.334 50 182.001l78 277h49l79 -283l48 -176h2c24 85.333 40.667 143.333 50 174l84 285h49l-163 -525h-45l-128 458h-2l-130 -458h-44z" />
    <glyph glyph-name="x" unicode="x" horiz-adv-x="503" 
d="M35 0l191 272l-177 253h55l148 -216l149 216h54l-178 -252l191 -273h-55l-162 235l-162 -235h-54z" />
    <glyph glyph-name="y" unicode="y" horiz-adv-x="519" 
d="M87 -200c-28 0 -52 3 -72 9l12 40c17.333 -4.66699 39.333 -7 66 -7c30.667 0 55 7 73 21s33 37 45 69l25 65l-204 528h53l174 -467h2l174 467h52l-227 -587c-19.333 -50 -41 -85.5 -65 -106.5s-60 -31.5 -108 -31.5z" />
    <glyph glyph-name="z" unicode="z" 
d="M44 0v33l335 450h-308v42h370v-33l-336 -450h348v-42h-409z" />
    <glyph glyph-name="braceleft" unicode="{" horiz-adv-x="366" 
d="M275 -200c-44.667 0 -77 10.998 -97 32.998s-30 55.333 -30 100v198c0 46.667 -8.5 78.334 -25.5 95.001s-45.5 25 -85.5 25v38c40 0 68.5 8.33301 85.5 25s25.5 48.334 25.5 95.001v198c0 44.667 10 78 30 100s52.333 33 97 33h44v-40h-44c-52 0 -78 -25.333 -78 -76
v-214c0 -45.333 -6.66699 -77.333 -20 -96s-35 -33 -65 -43v-2c30 -10 51.667 -24.333 65 -43s20 -50.667 20 -96v-214c0 -50.667 26 -76 78 -76h44v-40h-44z" />
    <glyph glyph-name="bar" unicode="|" horiz-adv-x="332" 
d="M143 -200v940h46v-940h-46z" />
    <glyph glyph-name="braceright" unicode="}" horiz-adv-x="366" 
d="M47 -200v40.002h44c52 0 78 25.333 78 76v214c0 45.333 6.66699 77.333 20 96s35 33 65 43v2c-30 10 -51.667 24.333 -65 43s-20 50.667 -20 96v214c0 53.333 -24.667 80 -74 80h-44l-4 36h44c44.667 0 77 -11 97 -33s30 -55.333 30 -100v-198
c0 -46.667 8.5 -78.334 25.5 -95.001s45.5 -25 85.5 -25v-38c-40 0 -68.5 -8.33301 -85.5 -25s-25.5 -48.334 -25.5 -95.001v-198c0 -44.667 -10 -78 -30 -100s-52.333 -33 -97 -33h-44z" />
    <glyph glyph-name="asciitilde" unicode="~" 
d="M323 424c-18 0 -44.002 9.33301 -78.002 28s-57.333 28 -70 28c-14.667 0 -25.167 -4.16699 -31.5 -12.5s-9.5 -22.166 -9.5 -41.499h-34c0 66 25.667 99 77 99c18.667 0 44.834 -9.33301 78.501 -28s56.834 -28 69.501 -28c14.667 0 25.167 4.16699 31.5 12.5
s9.5 22.166 9.5 41.499h34c0 -66 -25.667 -99 -77 -99z" />
    <glyph glyph-name="nbspace" unicode="&#xa0;" horiz-adv-x="108" 
 />
    <glyph glyph-name="exclamdown" unicode="&#xa1;" horiz-adv-x="303" 
d="M118 660v80h67v-80h-67zM122 0l18 546h23l18 -546h-59z" />
    <glyph glyph-name="cent" unicode="&#xa2;" horiz-adv-x="526" 
d="M173 17c-36.667 21.333 -65.666 53.332 -86.999 95.999s-32 92.334 -32 149.001c0 87.333 22 154.833 66 202.5s97.667 71.5 161 71.5c7.33301 0 17.666 -0.666992 30.999 -2l28 104h40l-31 -113c54.667 -18 97 -61 127 -129l-41 -22
c-24.667 58.667 -57.667 95.667 -99 111l-119 -442c19.333 -8 39.333 -12 60 -12c38.667 0 70 9.66699 94 29s46.667 50 68 92l38 -19c-23.333 -48 -51 -84 -83 -108s-72 -36 -120 -36c-22 0 -44 3.66699 -66 11l-35 -129h-40zM303.001 492.999
c-5.33301 0.666992 -13.332 0.999023 -23.999 0.999023c-21.333 0 -42 -4.16699 -62 -12.5s-38.833 -21.166 -56.5 -38.499s-31.834 -41.5 -42.501 -72.5s-16 -66.833 -16 -107.5c0 -94 28 -161.667 84 -203z" />
    <glyph glyph-name="sterling" unicode="&#xa3;" horiz-adv-x="591" 
d="M209 372l-122.999 -0.00390625v44h100c-33.333 62.667 -50 114.334 -50 155.001c0 54.667 16.167 98.834 48.5 132.501s77.166 50.5 134.499 50.5c59.333 0 104.333 -17.667 135 -53s47.334 -78.666 50.001 -129.999l-49 -3c-6 94.667 -52.333 142 -139 142
c-41.333 0 -73.5 -12.167 -96.5 -36.5s-34.5 -58.166 -34.5 -101.499c0 -5.33301 0.333008 -10.833 1 -16.5s1.33398 -10.834 2.00098 -15.501s1.83398 -10 3.50098 -16s3.16699 -11 4.5 -15s3.33301 -9.33301 6 -16s4.66699 -11.5 6 -14.5s3.83301 -8.33301 7.5 -16
s6.16699 -12.667 7.5 -15s4 -7.66602 8 -15.999s6.66699 -13.5 8 -15.5h171v-44h-148c24.667 -54 37 -104.333 37 -151c0 -41.333 -4.66699 -78.666 -14 -111.999c19.333 -18 34 -31.167 44 -39.5s23.833 -17 41.5 -26s34.5 -13.5 50.5 -13.5c30.667 0 53.5 11.667 68.5 35
s24.167 60.333 27.5 111h46c-6.66699 -126.667 -54.334 -190 -143.001 -190c-18.667 0 -37.667 4.5 -57 13.5s-35.166 18.5 -47.499 28.5s-27.833 23.667 -46.5 41c-29.333 -55.333 -73.333 -83 -132 -83c-26.667 0 -50.334 8.5 -71.001 25.5s-31 40.167 -31 69.5
c0 31.333 9.66699 57.166 29 77.499s45.666 30.5 78.999 30.5c31.333 0 65.666 -15 102.999 -45c4 21.333 6 46 6 74c0 46.667 -14.333 98 -43 154zM234.001 99.9961c-35.333 32 -66.333 48 -93 48c-18.667 0 -33.667 -6 -45 -18s-17 -27.667 -17 -47
c0 -17.333 5.66699 -31 17 -41s25.333 -15 42 -15c46.667 0 78.667 24.333 96 73z" />
    <glyph glyph-name="currency" unicode="&#xa4;" horiz-adv-x="712" 
d="M145 423l-124 -0.000976562v45h129c12.667 94 43.667 165.167 93 213.5s106.333 72.5 171 72.5c116 0 192 -71.333 228 -214l-48 -11c-17.333 62 -38.666 107.5 -63.999 136.5s-64.333 43.5 -117 43.5c-54 0 -100.5 -20.333 -139.5 -61s-64.167 -100.667 -75.5 -180h243
v-45h-248c-0.666992 -9.33301 -1 -24 -1 -44c0 -15.333 0.666992 -35.666 2 -60.999h247v-46h-242c11.333 -78.667 35.666 -138.5 72.999 -179.5s85 -61.5 143 -61.5c52.667 0 93.667 15.667 123 47s52.333 78.666 69 141.999l47 -11c-38 -148.667 -118 -223 -240 -223
c-69.333 0 -127.333 24.167 -174 72.5s-76.667 119.5 -90 213.5h-129v46h125c-1.33301 24 -2 43 -2 57c0 6 0.166992 14.333 0.5 25s0.5 18.334 0.5 23.001z" />
    <glyph glyph-name="yen" unicode="&#xa5;" horiz-adv-x="601" 
d="M275 0v137h-194v46h194v105h-194v45h192l-244 407h56l217 -368l216 368h54l-245 -407h194v-45h-196v-105h196v-46h-196v-137h-50z" />
    <glyph glyph-name="brokenbar" unicode="&#xa6;" horiz-adv-x="332" 
d="M143 331v409h46v-409h-46zM143 -200v409h46v-409h-46z" />
    <glyph glyph-name="section" unicode="&#xa7;" horiz-adv-x="518" 
d="M260 -200c-104 0 -166.335 49 -187.002 147l46 10c9.33301 -37.333 25 -65.5 47 -84.5s53 -28.5 93 -28.5s69.667 9.5 89 28.5s29 42.167 29 69.5c0 26 -8.16699 49.167 -24.5 69.5s-49.166 44.833 -98.499 73.5c-80 46.667 -133.167 83.334 -159.5 110.001
s-39.5 59.334 -39.5 98.001c0 68 45 123.333 135 166c-40 27.333 -67.167 52 -81.5 74s-21.5 47.667 -21.5 77c0 38 15.667 71.5 47 100.5s72.666 43.5 123.999 43.5c106.667 0 170.334 -49 191.001 -147l-46 -10c-9.33301 37.333 -25.166 65.5 -47.499 84.5
s-54.5 28.5 -96.5 28.5c-40 0 -70.333 -9.5 -91 -28.5s-31 -42.167 -31 -69.5c0 -25.333 8.66699 -48.166 26 -68.499s51 -45.166 101 -74.499c80 -46.667 133.167 -83.334 159.5 -110.001s39.5 -59.334 39.5 -98.001c0 -38 -13 -71 -39 -99s-57.667 -50.667 -95 -68
c39.333 -26.667 65.5 -50.834 78.5 -72.501s19.5 -47.5 19.5 -77.5c0 -38.667 -15 -72.334 -45 -101.001s-70.667 -43 -122 -43zM287.998 120c84 36 126 82.667 126 140c0 28 -11.167 52.5 -33.5 73.5s-70.166 53.167 -143.499 96.5c-0.666992 0 -1.83398 0.5 -3.50098 1.5
s-2.83398 1.83301 -3.50098 2.5c-84 -36 -126 -82.667 -126 -140c0 -28 11.167 -52.5 33.5 -73.5s70.166 -53.167 143.499 -96.5c0.666992 0 1.83398 -0.666992 3.50098 -2s2.83398 -2 3.50098 -2z" />
    <glyph glyph-name="dieresis" unicode="&#xa8;" 
d="M302 582v67h64v-67h-64zM134 582v67h64v-67h-64z" />
    <glyph glyph-name="copyright" unicode="&#xa9;" horiz-adv-x="862" 
d="M431 -14c-106 0 -196 37.5 -270 112.5s-111 165.5 -111 271.5s37 196.5 111 271.5s164 112.5 270 112.5s196 -37.5 270 -112.5s111 -165.5 111 -271.5s-37 -196.5 -111 -271.5s-164 -112.5 -270 -112.5zM431 20c96 0 177.5 34.333 244.5 103s100.5 151 100.5 247
s-33.5 178.333 -100.5 247s-148.5 103 -244.5 103s-177.5 -34.333 -244.5 -103s-100.5 -151 -100.5 -247s33.5 -178.333 100.5 -247s148.5 -103 244.5 -103zM429 156c-52.667 0 -94.667 20.501 -126 61.501s-47 94.5 -47 160.5c0 62.667 15.833 114.667 47.5 156
s73.5 62 125.5 62c78.667 0 130 -44.667 154 -134l-36 -9c-10.667 37.333 -25.167 64.666 -43.5 81.999s-43.166 26 -74.499 26c-40.667 0 -73.334 -16.833 -98.001 -50.5s-37 -77.5 -37 -131.5c0 -58 12.167 -103.833 36.5 -137.5s57.5 -50.5 99.5 -50.5
c62 0 103 37.667 123 113c20 -5.33301 32 -8.33301 36 -9c-11.333 -44.667 -30.833 -79 -58.5 -103s-61.5 -36 -101.5 -36z" />
    <glyph glyph-name="ordfeminine" unicode="&#xaa;" horiz-adv-x="408" 
d="M162 371c-34.667 0 -61.333 8.33301 -80 25s-28 39.334 -28 68.001c0 37.333 19 68.666 57 93.999s103.333 46 196 62v19c0 52.667 -25.333 79 -76 79c-51.333 0 -97.666 -20 -138.999 -60l-29 24c51.333 48 107.666 72 168.999 72c38.667 0 67.667 -10 87 -30
s29 -47.667 29 -83v-169c0 -42.667 4.66699 -73.667 14 -93h-46c-5.33301 16 -8.33301 32.333 -9 49c-48 -38 -96.333 -57 -145 -57zM165.001 408c49.333 0 96.667 21 142 63v116c-80 -13.333 -135.167 -29.833 -165.5 -49.5s-45.5 -43.5 -45.5 -71.5
c0 -38.667 23 -58 69 -58z" />
    <glyph glyph-name="guillemotleft" unicode="&#xab;" horiz-adv-x="496" 
d="M378 0l-145 263l145 262h53l-143 -262l143 -263h-53zM194 0l-144 263l144 262h53l-142 -262l142 -263h-53z" />
    <glyph glyph-name="logicalnot" unicode="&#xac;" horiz-adv-x="760" 
d="M562 552l32 2v-49l-34 1l-6 -119l196 10v-55l-196 10l6 -118l34 2v-49l-32 2l2 -33h-49l1 35l-118 6l10 -197h-55l10 197l-119 -6l2 -35h-49l2 33l-32 -2v49l34 -1l6 117l-197 -10v55l197 -10l-6 120l-34 -2v49l32 -2l-2 31h49l-1 -33l118 -6l-10 196h55l-10 -196l119 6
l-2 33h49zM519 508l-121 6v-127h126zM243 509l-6 -122h126v127zM518 232l6 120h-126v-125zM242 233l121 -6v125h-126z" />
    <glyph glyph-name="registered" unicode="&#xae;" horiz-adv-x="862" 
d="M431 -14c-106 0 -196 37.5 -270 112.5s-111 165.5 -111 271.5s37 196.5 111 271.5s164 112.5 270 112.5s196 -37.5 270 -112.5s111 -165.5 111 -271.5s-37 -196.5 -111 -271.5s-164 -112.5 -270 -112.5zM431 20c96 0 177.5 34.333 244.5 103s100.5 151 100.5 247
s-33.5 178.333 -100.5 247s-148.5 103 -244.5 103s-177.5 -34.333 -244.5 -103s-100.5 -151 -100.5 -247s33.5 -178.333 100.5 -247s148.5 -103 244.5 -103zM296 165v424h140c46.667 0 82.5 -9.66699 107.5 -29s37.5 -47 37.5 -83c0 -63.333 -33.333 -101 -100 -113
l108 -199h-42l-106 194h-107v-194h-38zM334 394h100c36 0 63.167 6.16699 81.5 18.5s27.5 33.5 27.5 63.5c0 51.333 -36.667 77 -110 77h-99v-159z" />
    <glyph glyph-name="macron" unicode="&#xaf;" 
d="M114 623v46h272v-46h-272z" />
    <glyph glyph-name="degree" unicode="&#xb0;" horiz-adv-x="400" 
d="M200 484c-39.333 0 -72 12.833 -98 38.5s-39 57.834 -39 96.501s13 70.834 39 96.501s58.667 38.5 98 38.5s72 -12.833 98 -38.5s39 -57.834 39 -96.501s-13 -70.834 -39 -96.501s-58.667 -38.5 -98 -38.5zM200 522c27.333 0 49.833 9 67.5 27s26.5 41.333 26.5 70
s-8.83301 52 -26.5 70s-40.167 27 -67.5 27s-49.833 -9 -67.5 -27s-26.5 -41.333 -26.5 -70s8.83301 -52 26.5 -70s40.167 -27 67.5 -27z" />
    <glyph glyph-name="plusminus" unicode="&#xb1;" horiz-adv-x="832" 
d="M120 0v482h-92v43h92v89c0 84 48 126 144 126h26v-44c-5.33301 0.666992 -16 1 -32 1c-60 0 -90 -26.333 -90 -79v-93h239v89c0 84 48 126 144 126h26v-44c-5.33301 0.666992 -16 1 -32 1c-60 0 -90 -26.333 -90 -79v-93h116v-43h-116v-482h-48v482h-239v-482h-48zM694 0
v739h48v-739h-48z" />
    <glyph glyph-name="twosuperior" unicode="&#xb2;" horiz-adv-x="439" 
d="M70 282v17.9971c0 34.667 11.5 67.834 34.5 99.501s63.5 66.167 121.5 103.5c32 20.667 54.833 39.834 68.5 57.501s20.5 37.834 20.5 60.501c0 26 -7.83301 47 -23.5 63s-37.834 24 -66.501 24c-24.667 0 -45.5 -6.5 -62.5 -19.5s-32.5 -34.167 -46.5 -63.5l-39 19
c32.667 70.667 82.334 106 149.001 106c40.667 0 73.167 -11.833 97.5 -35.5s36.5 -54.5 36.5 -92.5c0 -32 -9 -59.667 -27 -83s-49.667 -49.333 -95 -78c-74.667 -47.333 -114.667 -92.333 -120 -135h244v-44h-292z" />
    <glyph glyph-name="threesuperior" unicode="&#xb3;" horiz-adv-x="439" 
d="M218 273c-68.667 0 -121.334 32 -158.001 96l36 24c30.667 -51.333 71.667 -77 123 -77c32 0 57.333 8.33301 76 25s28 38.667 28 66c0 34 -11 59.167 -33 75.5s-58.333 24.5 -109 24.5h-23v38h27c86 0 129 28.333 129 85c0 23.333 -7.66699 42.166 -23 56.499
s-38.666 21.5 -69.999 21.5c-39.333 0 -74.666 -20 -105.999 -60l-35 23c39.333 52.667 86.666 79 141.999 79c46 0 80.5 -11.5 103.5 -34.5s34.5 -50.833 34.5 -83.5c0 -53.333 -26.333 -88.666 -79 -105.999c58.667 -18 88 -57.333 88 -118c0 -38 -13.667 -70 -41 -96
s-64 -39 -110 -39z" />
    <glyph glyph-name="acute" unicode="&#xb4;" 
d="M174 582l95 151h75l-139 -151h-31z" />
    <glyph glyph-name="paragraph" unicode="&#xb6;" horiz-adv-x="615" 
d="M309 -200v543c-162 3.33301 -243 69 -243 197c0 59.333 20.167 107.5 60.5 144.5s96.5 55.5 168.5 55.5h218v-940h-48v895h-108v-895h-48z" />
    <glyph glyph-name="periodcentered" unicode="&#xb7;" horiz-adv-x="265" 
d="M99 274v80h67v-80h-67z" />
    <glyph glyph-name="cedilla" unicode="&#xb8;" 
d="M248 -193c-42 0 -81.3311 12 -117.998 36l16 25c30 -20 62 -30 96 -30c53.333 0 80 17 80 51c0 24.667 -14.667 37 -44 37c-18.667 0 -37 -7 -55 -21l-25 12l25 83h37l-17 -56c15.333 10 32.666 15 51.999 15s35.833 -5.83301 49.5 -17.5s20.5 -28.167 20.5 -49.5
c0 -29.333 -10.833 -50.833 -32.5 -64.5s-49.834 -20.5 -84.501 -20.5z" />
    <glyph glyph-name="onesuperior" unicode="&#xb9;" horiz-adv-x="401" 
d="M102 282l0.000976562 42h85v361c-24.667 -10.667 -52.334 -16 -83.001 -16v42c42 1.33301 71.667 11 89 29h39v-416h77v-42h-207z" />
    <glyph glyph-name="ordmasculine" unicode="&#xba;" horiz-adv-x="421" 
d="M210 371c-47.333 0 -86.667 17.333 -118 52s-47 81 -47 139c0 58.667 15.5 105.334 46.5 140.001s70.5 52 118.5 52s87.667 -17.333 119 -52s47 -81.334 47 -140.001c0 -58 -15.833 -104.333 -47.5 -139s-71.167 -52 -118.5 -52zM209.999 408c38 0 68.333 14.5 91 43.5
s34 66.167 34 111.5c0 43.333 -11 80 -33 110s-52.667 45 -92 45c-37.333 0 -67.333 -14.667 -90 -44s-34 -66.333 -34 -111c0 -43.333 10.833 -80 32.5 -110s52.167 -45 91.5 -45z" />
    <glyph glyph-name="guillemotright" unicode="&#xbb;" horiz-adv-x="496" 
d="M249 0l142 263l-142 262h53l144 -262l-144 -263h-53zM65 0l143 263l-143 262h53l145 -262l-145 -263h-53z" />
    <glyph glyph-name="onequarter" unicode="&#xbc;" horiz-adv-x="907" 
d="M102 282l0.000976562 42h85v361c-24.667 -10.667 -52.334 -16 -83.001 -16v42c42 1.33301 71.667 11 89 29h39v-416h77v-42h-207zM221.001 0l443 740h48l-443 -740h-48zM720.001 0v114h-213v31l206 315h52v-303h75v-43h-75v-114h-45zM565.001 157h155v236z" />
    <glyph glyph-name="onehalf" unicode="&#xbd;" horiz-adv-x="947" 
d="M102 282l0.000976562 42h85v361c-24.667 -10.667 -52.334 -16 -83.001 -16v42c42 1.33301 71.667 11 89 29h39v-416h77v-42h-207zM221.001 0l443 740h48l-443 -740h-48zM576.001 0v17.9971c0 34.667 11.5 67.834 34.5 99.501s63.5 66.167 121.5 103.5
c32 20.667 54.833 39.834 68.5 57.501s20.5 37.834 20.5 60.501c0 26 -7.83301 47 -23.5 63s-37.834 24 -66.501 24c-24.667 0 -45.5 -6.5 -62.5 -19.5s-32.5 -34.167 -46.5 -63.5l-39 19c32.667 70.667 82.334 106 149.001 106c40.667 0 73.167 -11.833 97.5 -35.5
s36.5 -54.5 36.5 -92.5c0 -32 -9 -59.667 -27 -83s-49.667 -49.333 -95 -78c-74.667 -47.333 -114.667 -92.333 -120 -135h244v-44h-292z" />
    <glyph glyph-name="threequarters" unicode="&#xbe;" horiz-adv-x="931" 
d="M218 273c-68.667 0 -121.334 32 -158.001 96l36 24c30.667 -51.333 71.667 -77 123 -77c32 0 57.333 8.33301 76 25s28 38.667 28 66c0 34 -11 59.167 -33 75.5s-58.333 24.5 -109 24.5h-23v38h27c86 0 129 28.333 129 85c0 23.333 -7.66699 42.166 -23 56.499
s-38.666 21.5 -69.999 21.5c-39.333 0 -74.666 -20 -105.999 -60l-35 23c39.333 52.667 86.666 79 141.999 79c46 0 80.5 -11.5 103.5 -34.5s34.5 -50.833 34.5 -83.5c0 -53.333 -26.333 -88.666 -79 -105.999c58.667 -18 88 -57.333 88 -118c0 -38 -13.667 -70 -41 -96
s-64 -39 -110 -39zM246 0l443 740h48l-443 -740h-48zM744 0v114h-213v31l206 315h52v-303h75v-43h-75v-114h-45zM589 157h155v236z" />
    <glyph glyph-name="questiondown" unicode="&#xbf;" horiz-adv-x="526" 
d="M259 660v80h67v-80h-67zM264 -14c-61.333 0 -111.667 16.667 -151 50s-59 76.333 -59 129c0 45.333 10.833 81.5 32.5 108.5s54.167 53.5 97.5 79.5c39.333 24 64 47.5 74 70.5s15 63.833 15 122.5h39c1.33301 -24 2 -45.667 2 -65
c0 -35.333 -6.16699 -64.166 -18.5 -86.499s-34.833 -43.5 -67.5 -63.5c-47.333 -29.333 -79.833 -54.5 -97.5 -75.5s-26.5 -50.5 -26.5 -88.5c0 -42 14.333 -75.167 43 -99.5s68 -36.5 118 -36.5c42 0 76.667 8.83301 104 26.5s53.333 44.5 78 80.5l38 -26
c-30 -40.667 -61.833 -71.834 -95.5 -93.501s-75.5 -32.5 -125.5 -32.5z" />
    <glyph glyph-name="Agrave" unicode="&#xc0;" horiz-adv-x="663" 
d="M40 0l262 743h59l262 -743h-53l-86 248h-307l-86 -248h-51zM193 293h275l-137 394h-2zM316 787l-139 151h75l95 -151h-31z" />
    <glyph glyph-name="Aacute" unicode="&#xc1;" horiz-adv-x="663" 
d="M40 0l262 743h59l262 -743h-53l-86 248h-307l-86 -248h-51zM193 293h275l-137 394h-2zM318 787l95 151h75l-139 -151h-31z" />
    <glyph glyph-name="Acircumflex" unicode="&#xc2;" horiz-adv-x="663" 
d="M40 0l262 743h59l262 -743h-53l-86 248h-307l-86 -248h-51zM193 293h275l-137 394h-2zM182 782l129 156h40l129 -156h-33l-117 104l-117 -104h-31z" />
    <glyph glyph-name="Atilde" unicode="&#xc3;" horiz-adv-x="663" 
d="M40 0l262 743h59l262 -743h-53l-86 248h-307l-86 -248h-51zM193 293h275l-137 394h-2zM405 785c-18 0 -44.002 9.33301 -78.002 28s-57.333 28 -70 28c-14.667 0 -25.167 -4.16699 -31.5 -12.5s-9.5 -22.166 -9.5 -41.499h-34c0 66 25.667 99 77 99
c18.667 0 44.834 -9.33301 78.501 -28s56.834 -28 69.501 -28c14.667 0 25.167 4.16699 31.5 12.5s9.5 22.166 9.5 41.499h34c0 -66 -25.667 -99 -77 -99z" />
    <glyph glyph-name="Adieresis" unicode="&#xc4;" horiz-adv-x="663" 
d="M40 0l262 743h59l262 -743h-53l-86 248h-307l-86 -248h-51zM193 293h275l-137 394h-2zM383 787v67h64v-67h-64zM215 787v67h64v-67h-64z" />
    <glyph glyph-name="Aring" unicode="&#xc5;" horiz-adv-x="663" 
d="M368 724l254.997 -724h-53l-86 248h-307l-86 -248h-51l255 723c-15.333 6.66699 -27.666 17 -36.999 31s-14 30.333 -14 49c0 24.667 8.33301 45.167 25 61.5s37.334 24.5 62.001 24.5s45.334 -8.16699 62.001 -24.5s25 -36.833 25 -61.5c0 -38 -16.667 -64.333 -50 -79z
M330.997 745c16 0 29.167 5.5 39.5 16.5s15.5 24.833 15.5 41.5s-5.16699 30.334 -15.5 41.001s-23.5 16 -39.5 16s-29.167 -5.33301 -39.5 -16s-15.5 -24.334 -15.5 -41.001s5.16699 -30.5 15.5 -41.5s23.5 -16.5 39.5 -16.5zM192.997 293h275l-137 394h-2z" />
    <glyph glyph-name="AE" unicode="&#xc6;" horiz-adv-x="978" 
d="M30 0l421 740h457v-46h-378v-278h284v-46h-284v-324h400v-46h-450v248h-258l-141 -248h-51zM248 293h232v408h-1z" />
    <glyph glyph-name="Ccedilla" unicode="&#xc7;" horiz-adv-x="692" 
d="M363 -193c-42 0 -81.334 11.998 -118.001 35.998l16 25c30 -20 62 -30 96 -30c53.333 0 80 17 80 51c0 24.667 -14.667 37 -44 37c-18.667 0 -37 -7 -55 -21l-25 12l21 70c-83.333 8.66699 -149.333 48.167 -198 118.5s-73 159.833 -73 268.5
c0 109.333 27.667 200 83 272s128 108 218 108c136 0 223 -74.667 261 -224l-48 -11c-18 64.667 -43.667 112.5 -77 143.5s-79 46.5 -137 46.5c-74.667 0 -135 -30.667 -181 -92s-69 -141.666 -69 -240.999c0 -107.333 22.833 -191.666 68.5 -252.999
s106.834 -92 183.501 -92c115.333 0 190.333 66.333 225 199l47 -11c-17.333 -72 -49.166 -128.5 -95.499 -169.5s-103.166 -62.167 -170.499 -63.5l-13 -42c15.333 10 32.666 15 51.999 15s35.833 -5.83301 49.5 -17.5s20.5 -28.167 20.5 -49.5
c0 -29.333 -10.833 -50.833 -32.5 -64.5s-49.834 -20.5 -84.501 -20.5z" />
    <glyph glyph-name="Egrave" unicode="&#xc8;" horiz-adv-x="597" 
d="M99 0v740h428v-46h-378v-278h284v-46h-284v-324h400v-46h-450zM317 787l-139 151h75l95 -151h-31z" />
    <glyph glyph-name="Eacute" unicode="&#xc9;" horiz-adv-x="597" 
d="M99 0v740h428v-46h-378v-278h284v-46h-284v-324h400v-46h-450zM282 787l95 151h75l-139 -151h-31z" />
    <glyph glyph-name="Ecircumflex" unicode="&#xca;" horiz-adv-x="597" 
d="M99 0v740h428v-46h-378v-278h284v-46h-284v-324h400v-46h-450zM164 782l129 156h40l129 -156h-33l-117 104l-117 -104h-31z" />
    <glyph glyph-name="Edieresis" unicode="&#xcb;" horiz-adv-x="597" 
d="M99 0v740h428v-46h-378v-278h284v-46h-284v-324h400v-46h-450zM370 787v67h64v-67h-64zM202 787v67h64v-67h-64z" />
    <glyph glyph-name="Igrave" unicode="&#xcc;" horiz-adv-x="270" 
d="M110 0v740h50v-740h-50zM127 787l-139 151h75l95 -151h-31z" />
    <glyph glyph-name="Iacute" unicode="&#xcd;" horiz-adv-x="270" 
d="M110 0v740h50v-740h-50zM124 787l95 151h75l-139 -151h-31z" />
    <glyph glyph-name="Icircumflex" unicode="&#xce;" horiz-adv-x="270" 
d="M110 0v740h50v-740h-50zM-14 782l129 156h40l129 -156h-33l-117 104l-117 -104h-31z" />
    <glyph glyph-name="Idieresis" unicode="&#xcf;" horiz-adv-x="270" 
d="M110 0v740h50v-740h-50zM187 787v67h64v-67h-64zM19 787v67h64v-67h-64z" />
    <glyph glyph-name="Eth" unicode="&#xd0;" horiz-adv-x="702" 
d="M99 0v370h-87v46h87v324h178c120.667 0 211.167 -31.5 271.5 -94.5s90.5 -154.833 90.5 -275.5c0 -119.333 -30.5 -210.833 -91.5 -274.5s-151.167 -95.5 -270.5 -95.5h-178zM149 46h138.999c96.667 0 171 26.667 223 80s78 134.666 78 243.999
c0 108.667 -26.167 189.834 -78.5 243.501s-127.166 80.5 -224.499 80.5h-137v-278h162v-46h-162v-324z" />
    <glyph glyph-name="Ntilde" unicode="&#xd1;" horiz-adv-x="735" 
d="M99 0v740h57l430 -642h2v642h48v-740h-43l-444 664h-2v-664h-48zM452 785c-18 0 -44.002 9.33301 -78.002 28s-57.333 28 -70 28c-14.667 0 -25.167 -4.16699 -31.5 -12.5s-9.5 -22.166 -9.5 -41.499h-34c0 66 25.667 99 77 99c18.667 0 44.834 -9.33301 78.501 -28
s56.834 -28 69.501 -28c14.667 0 25.167 4.16699 31.5 12.5s9.5 22.166 9.5 41.499h34c0 -66 -25.667 -99 -77 -99z" />
    <glyph glyph-name="Ograve" unicode="&#xd2;" horiz-adv-x="733" 
d="M367 -14c-89.333 0 -162.333 35.6709 -219 107.004s-85 163.666 -85 276.999s28.333 205.666 85 276.999s129.667 107 219 107s162.166 -35.833 218.499 -107.5s84.5 -163.834 84.5 -276.501s-28.167 -204.834 -84.5 -276.501s-129.166 -107.5 -218.499 -107.5z
M367 31.0039c74 0 134.667 30.5 182 91.5s71 143.5 71 247.5s-23.667 186.5 -71 247.5s-108 91.5 -182 91.5c-74.667 0 -135.667 -30.5 -183 -91.5s-71 -143.5 -71 -247.5s23.667 -186.5 71 -247.5s108.333 -91.5 183 -91.5zM356 787.004l-139 151h75l95 -151h-31z" />
    <glyph glyph-name="Oacute" unicode="&#xd3;" horiz-adv-x="733" 
d="M367 -14c-89.333 0 -162.333 35.6709 -219 107.004s-85 163.666 -85 276.999s28.333 205.666 85 276.999s129.667 107 219 107s162.166 -35.833 218.499 -107.5s84.5 -163.834 84.5 -276.501s-28.167 -204.834 -84.5 -276.501s-129.166 -107.5 -218.499 -107.5z
M367 31.0039c74 0 134.667 30.5 182 91.5s71 143.5 71 247.5s-23.667 186.5 -71 247.5s-108 91.5 -182 91.5c-74.667 0 -135.667 -30.5 -183 -91.5s-71 -143.5 -71 -247.5s23.667 -186.5 71 -247.5s108.333 -91.5 183 -91.5zM342 787.004l95 151h75l-139 -151h-31z" />
    <glyph glyph-name="Ocircumflex" unicode="&#xd4;" horiz-adv-x="733" 
d="M367 -14c-89.333 0 -162.333 35.6709 -219 107.004s-85 163.666 -85 276.999s28.333 205.666 85 276.999s129.667 107 219 107s162.166 -35.833 218.499 -107.5s84.5 -163.834 84.5 -276.501s-28.167 -204.834 -84.5 -276.501s-129.166 -107.5 -218.499 -107.5z
M367 31.0039c74 0 134.667 30.5 182 91.5s71 143.5 71 247.5s-23.667 186.5 -71 247.5s-108 91.5 -182 91.5c-74.667 0 -135.667 -30.5 -183 -91.5s-71 -143.5 -71 -247.5s23.667 -186.5 71 -247.5s108.333 -91.5 183 -91.5zM217 782.004l129 156h40l129 -156h-33l-117 104
l-117 -104h-31z" />
    <glyph glyph-name="Otilde" unicode="&#xd5;" horiz-adv-x="733" 
d="M367 -14c-89.333 0 -162.333 35.6709 -219 107.004s-85 163.666 -85 276.999s28.333 205.666 85 276.999s129.667 107 219 107s162.166 -35.833 218.499 -107.5s84.5 -163.834 84.5 -276.501s-28.167 -204.834 -84.5 -276.501s-129.166 -107.5 -218.499 -107.5z
M367 31.0039c74 0 134.667 30.5 182 91.5s71 143.5 71 247.5s-23.667 186.5 -71 247.5s-108 91.5 -182 91.5c-74.667 0 -135.667 -30.5 -183 -91.5s-71 -143.5 -71 -247.5s23.667 -186.5 71 -247.5s108.333 -91.5 183 -91.5zM439 785.004c-18 0 -44.002 9.33301 -78.002 28
s-57.333 28 -70 28c-14.667 0 -25.167 -4.16699 -31.5 -12.5s-9.5 -22.166 -9.5 -41.499h-34c0 66 25.667 99 77 99c18.667 0 44.834 -9.33301 78.501 -28s56.834 -28 69.501 -28c14.667 0 25.167 4.16699 31.5 12.5s9.5 22.166 9.5 41.499h34c0 -66 -25.667 -99 -77 -99z
" />
    <glyph glyph-name="Odieresis" unicode="&#xd6;" horiz-adv-x="733" 
d="M367 -14c-89.333 0 -162.333 35.6709 -219 107.004s-85 163.666 -85 276.999s28.333 205.666 85 276.999s129.667 107 219 107s162.166 -35.833 218.499 -107.5s84.5 -163.834 84.5 -276.501s-28.167 -204.834 -84.5 -276.501s-129.166 -107.5 -218.499 -107.5z
M367 31.0039c74 0 134.667 30.5 182 91.5s71 143.5 71 247.5s-23.667 186.5 -71 247.5s-108 91.5 -182 91.5c-74.667 0 -135.667 -30.5 -183 -91.5s-71 -143.5 -71 -247.5s23.667 -186.5 71 -247.5s108.333 -91.5 183 -91.5zM418 787.004v67h64v-67h-64zM250 787.004v67h64
v-67h-64z" />
    <glyph glyph-name="multiply" unicode="&#xd7;" horiz-adv-x="634" 
d="M141 111l-29 29l175 175l-175 176l29 29l175 -176l176 176l29 -29l-176 -176l176 -175l-29 -29l-176 176z" />
    <glyph glyph-name="Oslash" unicode="&#xd8;" horiz-adv-x="733" 
d="M592 638c52 -70 77.999 -159.33 77.999 -267.997c0 -112.667 -28.167 -204.834 -84.5 -276.501s-129.166 -107.5 -218.499 -107.5c-78 0 -144.333 28 -199 84l-64 -85l-34 22l71 95c-52 71.333 -78 160.666 -78 267.999c0 113.333 28.333 205.666 85 276.999
s129.667 107 219 107c77.333 0 143.333 -28 198 -84l64 85l34 -22zM171.999 140.003l366 491.001c-46 52 -103 78 -171 78c-74.667 0 -135.667 -30.5 -183 -91.5s-71 -143.5 -71 -247.5c0 -92.667 19.667 -169.334 59 -230.001zM561.999 599.004l-366.999 -488.999
c45.333 -52.667 102.666 -79 171.999 -79c74 0 134.667 30.5 182 91.5s71 143.5 71 247.5c0 91.333 -19.333 167.666 -58 228.999z" />
    <glyph glyph-name="Ugrave" unicode="&#xd9;" horiz-adv-x="713" 
d="M356 -14c-83.333 0 -147.834 24.5 -193.501 73.5s-68.5 109.833 -68.5 182.5v498h50v-486c0 -66 17.833 -119.667 53.5 -161s88.834 -62 159.501 -62c70 0 122.833 20.333 158.5 61s53.5 94 53.5 160v488h50v-495c0 -73.333 -23 -134.833 -69 -184.5
s-110.667 -74.5 -194 -74.5zM353.999 787l-139 151h75l95 -151h-31z" />
    <glyph glyph-name="Uacute" unicode="&#xda;" horiz-adv-x="713" 
d="M356 -14c-83.333 0 -147.834 24.5 -193.501 73.5s-68.5 109.833 -68.5 182.5v498h50v-486c0 -66 17.833 -119.667 53.5 -161s88.834 -62 159.501 -62c70 0 122.833 20.333 158.5 61s53.5 94 53.5 160v488h50v-495c0 -73.333 -23 -134.833 -69 -184.5
s-110.667 -74.5 -194 -74.5zM322.999 787l95 151h75l-139 -151h-31z" />
    <glyph glyph-name="Ucircumflex" unicode="&#xdb;" horiz-adv-x="713" 
d="M356 -14c-83.333 0 -147.834 24.5 -193.501 73.5s-68.5 109.833 -68.5 182.5v498h50v-486c0 -66 17.833 -119.667 53.5 -161s88.834 -62 159.501 -62c70 0 122.833 20.333 158.5 61s53.5 94 53.5 160v488h50v-495c0 -73.333 -23 -134.833 -69 -184.5
s-110.667 -74.5 -194 -74.5zM206.999 782l129 156h40l129 -156h-33l-117 104l-117 -104h-31z" />
    <glyph glyph-name="Udieresis" unicode="&#xdc;" horiz-adv-x="713" 
d="M356 -14c-83.333 0 -147.834 24.5 -193.501 73.5s-68.5 109.833 -68.5 182.5v498h50v-486c0 -66 17.833 -119.667 53.5 -161s88.834 -62 159.501 -62c70 0 122.833 20.333 158.5 61s53.5 94 53.5 160v488h50v-495c0 -73.333 -23 -134.833 -69 -184.5
s-110.667 -74.5 -194 -74.5zM407.999 787v67h64v-67h-64zM239.999 787v67h64v-67h-64z" />
    <glyph glyph-name="Yacute" unicode="&#xdd;" horiz-adv-x="601" 
d="M275 0v329l-246 411h56l217 -368l216 368h54l-247 -411v-329h-50zM224 797l95 151h75l-139 -151h-31z" />
    <glyph glyph-name="Thorn" unicode="&#xde;" horiz-adv-x="640" 
d="M99 0v740h50v-147h191c80 -0.666992 141.5 -17.5 184.5 -50.5s64.5 -80.167 64.5 -141.5c0 -67.333 -22.5 -117.833 -67.5 -151.5s-108.167 -50.5 -189.5 -50.5h-183v-199h-50zM149 245h186.999c67.333 0 118 11.833 152 35.5s51 63.167 51 118.5
c0 52 -17.167 89.667 -51.5 113s-85.166 35 -152.499 35h-186v-302z" />
    <glyph glyph-name="germandbls" unicode="&#xdf;" horiz-adv-x="597" 
d="M354 -11c-59.333 0 -106.335 18.332 -141.002 54.999l31 31c30.667 -29.333 68.334 -44 113.001 -44c40.667 0 73.5 15.667 98.5 47s37.5 74 37.5 128c0 64 -19.833 111 -59.5 141s-99.834 46.667 -180.501 50v40c58 0.666992 101.833 13.5 131.5 38.5
s44.5 57.167 44.5 96.5c0 40 -13.167 71 -39.5 93s-62.166 33 -107.499 33c-48 0 -85 -14.833 -111 -44.5s-39 -72.167 -39 -127.5v-526h-48v522c0 68 17.5 121.333 52.5 160s83.833 58 146.5 58c58.667 0 105.667 -14.667 141 -44s53 -70.333 53 -123
c0 -37.333 -11.167 -69.666 -33.5 -96.999s-54.166 -46.333 -95.499 -57c58.667 -8 105.5 -29 140.5 -63s52.5 -83 52.5 -147c0 -66 -16.833 -119.167 -50.5 -159.5s-79.167 -60.5 -136.5 -60.5z" />
    <glyph glyph-name="agrave" unicode="&#xe0;" horiz-adv-x="540" 
d="M201 -9c-47.333 0 -83.8291 11.501 -109.496 34.501s-38.5 54.833 -38.5 95.5c0 53.333 27.167 98 81.5 134s147.5 65 279.5 87v32c0 39.333 -9.83301 69.166 -29.5 89.499s-47.834 30.5 -84.501 30.5c-40.667 0 -76.834 -7.33301 -108.501 -22
s-63.5 -36.334 -95.5 -65.001l-28 30c35.333 32.667 71.166 57.334 107.499 74.001s78.166 25 125.499 25c53.333 0 93.5 -14 120.5 -42s40.5 -67 40.5 -117v-247c0 -62 5 -105.333 15 -130h-51c-8 25.333 -12 51.333 -12 78c-67.333 -58 -138.333 -87 -213 -87z
M205.004 33.001c76 0 145.667 30.668 209 92.001v181c-119.333 -20.667 -201.333 -45.834 -246 -75.501s-67 -65.167 -67 -106.5c0 -29.333 9.16699 -51.833 27.5 -67.5s43.833 -23.5 76.5 -23.5zM281.004 582.002l-139 151h75l95 -151h-31z" />
    <glyph glyph-name="aacute" unicode="&#xe1;" horiz-adv-x="540" 
d="M201 -9c-47.333 0 -83.8291 11.501 -109.496 34.501s-38.5 54.833 -38.5 95.5c0 53.333 27.167 98 81.5 134s147.5 65 279.5 87v32c0 39.333 -9.83301 69.166 -29.5 89.499s-47.834 30.5 -84.501 30.5c-40.667 0 -76.834 -7.33301 -108.501 -22
s-63.5 -36.334 -95.5 -65.001l-28 30c35.333 32.667 71.166 57.334 107.499 74.001s78.166 25 125.499 25c53.333 0 93.5 -14 120.5 -42s40.5 -67 40.5 -117v-247c0 -62 5 -105.333 15 -130h-51c-8 25.333 -12 51.333 -12 78c-67.333 -58 -138.333 -87 -213 -87z
M205.004 33.001c76 0 145.667 30.668 209 92.001v181c-119.333 -20.667 -201.333 -45.834 -246 -75.501s-67 -65.167 -67 -106.5c0 -29.333 9.16699 -51.833 27.5 -67.5s43.833 -23.5 76.5 -23.5zM252.004 582.002l95 151h75l-139 -151h-31z" />
    <glyph glyph-name="acircumflex" unicode="&#xe2;" horiz-adv-x="540" 
d="M201 -9c-47.333 0 -83.8291 11.501 -109.496 34.501s-38.5 54.833 -38.5 95.5c0 53.333 27.167 98 81.5 134s147.5 65 279.5 87v32c0 39.333 -9.83301 69.166 -29.5 89.499s-47.834 30.5 -84.501 30.5c-40.667 0 -76.834 -7.33301 -108.501 -22
s-63.5 -36.334 -95.5 -65.001l-28 30c35.333 32.667 71.166 57.334 107.499 74.001s78.166 25 125.499 25c53.333 0 93.5 -14 120.5 -42s40.5 -67 40.5 -117v-247c0 -62 5 -105.333 15 -130h-51c-8 25.333 -12 51.333 -12 78c-67.333 -58 -138.333 -87 -213 -87z
M205.004 33.001c76 0 145.667 30.668 209 92.001v181c-119.333 -20.667 -201.333 -45.834 -246 -75.501s-67 -65.167 -67 -106.5c0 -29.333 9.16699 -51.833 27.5 -67.5s43.833 -23.5 76.5 -23.5zM130.004 577.002l129 156h40l129 -156h-33l-117 104l-117 -104h-31z" />
    <glyph glyph-name="atilde" unicode="&#xe3;" horiz-adv-x="540" 
d="M201 -9c-47.333 0 -83.8291 11.501 -109.496 34.501s-38.5 54.833 -38.5 95.5c0 53.333 27.167 98 81.5 134s147.5 65 279.5 87v32c0 39.333 -9.83301 69.166 -29.5 89.499s-47.834 30.5 -84.501 30.5c-40.667 0 -76.834 -7.33301 -108.501 -22
s-63.5 -36.334 -95.5 -65.001l-28 30c35.333 32.667 71.166 57.334 107.499 74.001s78.166 25 125.499 25c53.333 0 93.5 -14 120.5 -42s40.5 -67 40.5 -117v-247c0 -62 5 -105.333 15 -130h-51c-8 25.333 -12 51.333 -12 78c-67.333 -58 -138.333 -87 -213 -87z
M205.004 33.001c76 0 145.667 30.668 209 92.001v181c-119.333 -20.667 -201.333 -45.834 -246 -75.501s-67 -65.167 -67 -106.5c0 -29.333 9.16699 -51.833 27.5 -67.5s43.833 -23.5 76.5 -23.5zM349.004 580.002c-18 0 -44.002 9.33301 -78.002 28s-57.333 28 -70 28
c-14.667 0 -25.167 -4.16699 -31.5 -12.5s-9.5 -22.166 -9.5 -41.499h-34c0 66 25.667 99 77 99c18.667 0 44.834 -9.33301 78.501 -28s56.834 -28 69.501 -28c14.667 0 25.167 4.16699 31.5 12.5s9.5 22.166 9.5 41.499h34c0 -66 -25.667 -99 -77 -99z" />
    <glyph glyph-name="adieresis" unicode="&#xe4;" horiz-adv-x="540" 
d="M201 -9c-47.333 0 -83.8291 11.501 -109.496 34.501s-38.5 54.833 -38.5 95.5c0 53.333 27.167 98 81.5 134s147.5 65 279.5 87v32c0 39.333 -9.83301 69.166 -29.5 89.499s-47.834 30.5 -84.501 30.5c-40.667 0 -76.834 -7.33301 -108.501 -22
s-63.5 -36.334 -95.5 -65.001l-28 30c35.333 32.667 71.166 57.334 107.499 74.001s78.166 25 125.499 25c53.333 0 93.5 -14 120.5 -42s40.5 -67 40.5 -117v-247c0 -62 5 -105.333 15 -130h-51c-8 25.333 -12 51.333 -12 78c-67.333 -58 -138.333 -87 -213 -87z
M205.004 33.001c76 0 145.667 30.668 209 92.001v181c-119.333 -20.667 -201.333 -45.834 -246 -75.501s-67 -65.167 -67 -106.5c0 -29.333 9.16699 -51.833 27.5 -67.5s43.833 -23.5 76.5 -23.5zM337.004 582.002v67h64v-67h-64zM169.004 582.002v67h64v-67h-64z" />
    <glyph glyph-name="aring" unicode="&#xe5;" horiz-adv-x="540" 
d="M201 -9c-47.333 0 -83.8291 11.501 -109.496 34.501s-38.5 54.833 -38.5 95.5c0 53.333 27.167 98 81.5 134s147.5 65 279.5 87v32c0 39.333 -9.83301 69.166 -29.5 89.499s-47.834 30.5 -84.501 30.5c-40.667 0 -76.834 -7.33301 -108.501 -22
s-63.5 -36.334 -95.5 -65.001l-28 30c35.333 32.667 71.166 57.334 107.499 74.001s78.166 25 125.499 25c53.333 0 93.5 -14 120.5 -42s40.5 -67 40.5 -117v-247c0 -62 5 -105.333 15 -130h-51c-8 25.333 -12 51.333 -12 78c-67.333 -58 -138.333 -87 -213 -87z
M205.004 33.001c76 0 145.667 30.668 209 92.001v181c-119.333 -20.667 -201.333 -45.834 -246 -75.501s-67 -65.167 -67 -106.5c0 -29.333 9.16699 -51.833 27.5 -67.5s43.833 -23.5 76.5 -23.5zM287.004 575.002c-25.333 0 -46.1699 8.16699 -62.5029 24.5
s-24.5 37.166 -24.5 62.499c0 24.667 8.33301 45.167 25 61.5s37.334 24.5 62.001 24.5s45.334 -8.16699 62.001 -24.5s25 -36.833 25 -61.5c0 -25.333 -8.16699 -46.166 -24.5 -62.499s-37.166 -24.5 -62.499 -24.5zM287 604.002c16 0 29.167 5.5 39.5 16.5
s15.5 24.833 15.5 41.5s-5.16699 30.334 -15.5 41.001s-23.5 16 -39.5 16s-29.167 -5.33301 -39.5 -16s-15.5 -24.334 -15.5 -41.001s5.16699 -30.5 15.5 -41.5s23.5 -16.5 39.5 -16.5z" />
    <glyph glyph-name="ae" unicode="&#xe6;" horiz-adv-x="893" 
d="M201 -11c-47.333 0 -83.833 11.499 -109.5 34.499s-38.5 54.833 -38.5 95.5c0 53.333 27 98.5 81 135.5s146.667 66.5 278 88.5v31c0 80 -37.667 120 -113 120c-40.667 0 -76.5 -7.16699 -107.5 -21.5s-62.833 -36.166 -95.5 -65.499l-28 30
c35.333 32.667 71 57.334 107 74.001s77.667 25 125 25c86 0 136 -39.333 150 -118c18 35.333 42.833 63.833 74.5 85.5s67.5 32.5 107.5 32.5c62.667 0 112.834 -24.333 150.501 -73s56.5 -114 56.5 -196v-7h-381c0 -69.333 16.667 -124.833 50 -166.5s75 -62.5 125 -62.5
c39.333 0 71.833 9 97.5 27s49.167 45.333 70.5 82l35 -22c-46.667 -86 -115.334 -129 -206.001 -129c-38 0 -73.333 10.167 -106 30.5s-59 49.166 -79 86.499c-78 -78 -159.333 -117 -244 -117zM459 299.999h330c-4 57.333 -19.333 104 -46 140s-64 54 -112 54
c-43.333 0 -81.333 -16.833 -114 -50.5s-52 -81.5 -58 -143.5zM205 30.999c79.333 0 154 37.001 224 111.001c-12.667 36.667 -19 77 -19 121c0 10 0.666992 24.333 2 43c-62 -10.667 -114 -22.834 -156 -36.501s-74 -28.667 -96 -45s-37.333 -32.5 -46 -48.5
s-13 -34 -13 -54c0 -29.333 9.16699 -51.833 27.5 -67.5s43.833 -23.5 76.5 -23.5z" />
    <glyph glyph-name="ccedilla" unicode="&#xe7;" horiz-adv-x="526" 
d="M272 -193c-42 0 -81.3301 11.999 -117.997 35.999l16 25c30 -20 62 -30 96 -30c53.333 0 80 17 80 51c0 24.667 -14.667 37 -44 37c-18.667 0 -37 -7 -55 -21l-25 12l22 74c-54.667 8 -100 36.5 -136 85.5s-54 110.833 -54 185.5c0 87.333 22 154.833 66 202.5
s97.667 71.5 161 71.5c88.667 0 153.667 -46.667 195 -140l-41 -22c-17.333 40 -38 70 -62 90s-55.333 30 -94 30c-21.333 0 -42 -4.16699 -62 -12.5s-38.833 -21.166 -56.5 -38.499s-31.834 -41.5 -42.501 -72.5s-16 -66.833 -16 -107.5
c0 -71.333 16.667 -127.833 50 -169.5s75 -62.5 125 -62.5c38.667 0 70 9.66699 94 29s46.667 50 68 92l38 -19c-22.667 -46.667 -49.5 -82.167 -80.5 -106.5s-69.5 -36.833 -115.5 -37.5l-14 -45c15.333 10 32.666 15 51.999 15s35.833 -5.83301 49.5 -17.5
s20.5 -28.167 20.5 -49.5c0 -29.333 -10.833 -50.833 -32.5 -64.5s-49.834 -20.5 -84.501 -20.5z" />
    <glyph glyph-name="egrave" unicode="&#xe8;" horiz-adv-x="539" 
d="M275 -11c-61.333 0 -113.5 24.833 -156.5 74.5s-64.5 116.167 -64.5 199.5c0 86 22 153 66 201s96.333 72 157 72c62.667 0 113 -24.333 151 -73s57 -114 57 -196v-7h-383c0 -69.333 16.833 -124.833 50.5 -166.5s75.5 -62.5 125.5 -62.5c39.333 0 72 9 98 27
s49.667 45.333 71 82l35 -22c-46.667 -86 -115.667 -129 -207 -129zM103 300h332c-4 57.333 -19.5 104 -46.5 140s-64.5 54 -112.5 54c-43.333 0 -81.5 -16.833 -114.5 -50.5s-52.5 -81.5 -58.5 -143.5zM264 582l-139 151h75l95 -151h-31z" />
    <glyph glyph-name="eacute" unicode="&#xe9;" horiz-adv-x="539" 
d="M275 -11c-61.333 0 -113.5 24.833 -156.5 74.5s-64.5 116.167 -64.5 199.5c0 86 22 153 66 201s96.333 72 157 72c62.667 0 113 -24.333 151 -73s57 -114 57 -196v-7h-383c0 -69.333 16.833 -124.833 50.5 -166.5s75.5 -62.5 125.5 -62.5c39.333 0 72 9 98 27
s49.667 45.333 71 82l35 -22c-46.667 -86 -115.667 -129 -207 -129zM103 300h332c-4 57.333 -19.5 104 -46.5 140s-64.5 54 -112.5 54c-43.333 0 -81.5 -16.833 -114.5 -50.5s-52.5 -81.5 -58.5 -143.5zM254 582l95 151h75l-139 -151h-31z" />
    <glyph glyph-name="ecircumflex" unicode="&#xea;" horiz-adv-x="539" 
d="M275 -11c-61.333 0 -113.5 24.833 -156.5 74.5s-64.5 116.167 -64.5 199.5c0 86 22 153 66 201s96.333 72 157 72c62.667 0 113 -24.333 151 -73s57 -114 57 -196v-7h-383c0 -69.333 16.833 -124.833 50.5 -166.5s75.5 -62.5 125.5 -62.5c39.333 0 72 9 98 27
s49.667 45.333 71 82l35 -22c-46.667 -86 -115.667 -129 -207 -129zM103 300h332c-4 57.333 -19.5 104 -46.5 140s-64.5 54 -112.5 54c-43.333 0 -81.5 -16.833 -114.5 -50.5s-52.5 -81.5 -58.5 -143.5zM129 577l129 156h40l129 -156h-33l-117 104l-117 -104h-31z" />
    <glyph glyph-name="edieresis" unicode="&#xeb;" horiz-adv-x="539" 
d="M275 -11c-61.333 0 -113.5 24.833 -156.5 74.5s-64.5 116.167 -64.5 199.5c0 86 22 153 66 201s96.333 72 157 72c62.667 0 113 -24.333 151 -73s57 -114 57 -196v-7h-383c0 -69.333 16.833 -124.833 50.5 -166.5s75.5 -62.5 125.5 -62.5c39.333 0 72 9 98 27
s49.667 45.333 71 82l35 -22c-46.667 -86 -115.667 -129 -207 -129zM103 300h332c-4 57.333 -19.5 104 -46.5 140s-64.5 54 -112.5 54c-43.333 0 -81.5 -16.833 -114.5 -50.5s-52.5 -81.5 -58.5 -143.5zM327 582v67h64v-67h-64zM159 582v67h64v-67h-64z" />
    <glyph glyph-name="igrave" unicode="&#xec;" horiz-adv-x="228" 
d="M90 0v525h48v-525h-48zM110 582l-139 151h75l95 -151h-31z" />
    <glyph glyph-name="iacute" unicode="&#xed;" horiz-adv-x="228" 
d="M90 0v525h48v-525h-48zM106 582l95 151h75l-139 -151h-31z" />
    <glyph glyph-name="icircumflex" unicode="&#xee;" horiz-adv-x="228" 
d="M90 0v525h48v-525h-48zM-35 577l129 156h40l129 -156h-33l-117 104l-117 -104h-31z" />
    <glyph glyph-name="idieresis" unicode="&#xef;" horiz-adv-x="228" 
d="M90 0v525h48v-525h-48zM166 582v67h64v-67h-64zM-2 582v67h64v-67h-64z" />
    <glyph glyph-name="eth" unicode="&#xf0;" horiz-adv-x="570" 
d="M285 -11c-66 0 -120.998 24.999 -164.998 74.999s-66 116 -66 198s21.667 146.5 65 193.5s98.666 70.5 165.999 70.5c35.333 0 68.166 -9.16699 98.499 -27.5s54.5 -42.166 72.5 -71.499c-18.667 76 -52 139 -100 189l-117 -42l-15 40l98 35c-20 18 -47 37 -81 57l24 36
c42.667 -23.333 77.667 -48.333 105 -75l105 38l15 -40l-87 -32c75.333 -87.333 113 -211 113 -371c0 -82 -22 -148 -66 -198s-99 -75 -165 -75zM285.002 30.999c55.333 0 99.668 21.667 133.001 65s50 99 50 167c0 63.333 -16.5 116 -49.5 158s-77.5 63 -133.5 63
s-100.5 -20.333 -133.5 -61s-49.5 -94 -49.5 -160c0 -65.333 16.167 -120.333 48.5 -165s77.166 -67 134.499 -67z" />
    <glyph glyph-name="ntilde" unicode="&#xf1;" horiz-adv-x="573" 
d="M84 0v525h48v-87c68.667 65.333 136.334 98 203.001 98c53.333 0 93.166 -13.667 119.499 -41s39.5 -65.333 39.5 -114v-381h-48v375c0 40.667 -9.33301 70.667 -28 90s-47.667 29 -87 29c-62.667 0 -129 -33.333 -199 -100v-394h-48zM368 580
c-18 0 -44.002 9.33301 -78.002 28s-57.333 28 -70 28c-14.667 0 -25.167 -4.16699 -31.5 -12.5s-9.5 -22.166 -9.5 -41.499h-34c0 66 25.667 99 77 99c18.667 0 44.834 -9.33301 78.501 -28s56.834 -28 69.501 -28c14.667 0 25.167 4.16699 31.5 12.5
s9.5 22.166 9.5 41.499h34c0 -66 -25.667 -99 -77 -99z" />
    <glyph glyph-name="ograve" unicode="&#xf2;" horiz-adv-x="570" 
d="M285 -11c-66 0 -121.001 25 -165.001 75s-66 116 -66 198c0 82.667 21.833 149 65.5 199s98.834 75 165.501 75c66 0 121 -25 165 -75s66 -116.333 66 -199c0 -82 -22 -148 -66 -198s-99 -75 -165 -75zM284.999 31c55.333 0 99.668 21.667 133.001 65s50 99 50 167
c0 64.667 -16.333 119.334 -49 164.001s-77.334 67 -134.001 67c-55.333 0 -99.666 -21.833 -132.999 -65.5s-50 -98.834 -50 -165.501c0 -65.333 16.167 -120.333 48.5 -165s77.166 -67 134.499 -67zM275.001 582l-139 151h75l95 -151h-31z" />
    <glyph glyph-name="oacute" unicode="&#xf3;" horiz-adv-x="570" 
d="M285 -11c-66 0 -121.001 25 -165.001 75s-66 116 -66 198c0 82.667 21.833 149 65.5 199s98.834 75 165.501 75c66 0 121 -25 165 -75s66 -116.333 66 -199c0 -82 -22 -148 -66 -198s-99 -75 -165 -75zM284.999 31c55.333 0 99.668 21.667 133.001 65s50 99 50 167
c0 64.667 -16.333 119.334 -49 164.001s-77.334 67 -134.001 67c-55.333 0 -99.666 -21.833 -132.999 -65.5s-50 -98.834 -50 -165.501c0 -65.333 16.167 -120.333 48.5 -165s77.166 -67 134.499 -67zM261.001 582l95 151h75l-139 -151h-31z" />
    <glyph glyph-name="ocircumflex" unicode="&#xf4;" horiz-adv-x="570" 
d="M285 -11c-66 0 -121.001 25 -165.001 75s-66 116 -66 198c0 82.667 21.833 149 65.5 199s98.834 75 165.501 75c66 0 121 -25 165 -75s66 -116.333 66 -199c0 -82 -22 -148 -66 -198s-99 -75 -165 -75zM284.999 31c55.333 0 99.668 21.667 133.001 65s50 99 50 167
c0 64.667 -16.333 119.334 -49 164.001s-77.334 67 -134.001 67c-55.333 0 -99.666 -21.833 -132.999 -65.5s-50 -98.834 -50 -165.501c0 -65.333 16.167 -120.333 48.5 -165s77.166 -67 134.499 -67zM136.001 577l129 156h40l129 -156h-33l-117 104l-117 -104h-31z" />
    <glyph glyph-name="otilde" unicode="&#xf5;" horiz-adv-x="570" 
d="M285 -11c-66 0 -121.001 25 -165.001 75s-66 116 -66 198c0 82.667 21.833 149 65.5 199s98.834 75 165.501 75c66 0 121 -25 165 -75s66 -116.333 66 -199c0 -82 -22 -148 -66 -198s-99 -75 -165 -75zM284.999 31c55.333 0 99.668 21.667 133.001 65s50 99 50 167
c0 64.667 -16.333 119.334 -49 164.001s-77.334 67 -134.001 67c-55.333 0 -99.666 -21.833 -132.999 -65.5s-50 -98.834 -50 -165.501c0 -65.333 16.167 -120.333 48.5 -165s77.166 -67 134.499 -67zM360.001 580c-18 0 -44.002 9.33301 -78.002 28s-57.333 28 -70 28
c-14.667 0 -25.167 -4.16699 -31.5 -12.5s-9.5 -22.166 -9.5 -41.499h-34c0 66 25.667 99 77 99c18.667 0 44.834 -9.33301 78.501 -28s56.834 -28 69.501 -28c14.667 0 25.167 4.16699 31.5 12.5s9.5 22.166 9.5 41.499h34c0 -66 -25.667 -99 -77 -99z" />
    <glyph glyph-name="odieresis" unicode="&#xf6;" horiz-adv-x="570" 
d="M285 -11c-66 0 -121.001 25 -165.001 75s-66 116 -66 198c0 82.667 21.833 149 65.5 199s98.834 75 165.501 75c66 0 121 -25 165 -75s66 -116.333 66 -199c0 -82 -22 -148 -66 -198s-99 -75 -165 -75zM284.999 31c55.333 0 99.668 21.667 133.001 65s50 99 50 167
c0 64.667 -16.333 119.334 -49 164.001s-77.334 67 -134.001 67c-55.333 0 -99.666 -21.833 -132.999 -65.5s-50 -98.834 -50 -165.501c0 -65.333 16.167 -120.333 48.5 -165s77.166 -67 134.499 -67zM336.001 582v67h64v-67h-64zM168.001 582v67h64v-67h-64z" />
    <glyph glyph-name="divide" unicode="&#xf7;" horiz-adv-x="634" 
d="M278 458v78h72v-78h-72zM65 302v44h504v-44h-504zM278 111v78h72v-78h-72z" />
    <glyph glyph-name="oslash" unicode="&#xf8;" horiz-adv-x="570" 
d="M449 462c44.667 -51.333 66.999 -117.999 66.999 -199.999s-22 -148 -66 -198s-99 -75 -165 -75c-50.667 0 -96 15.667 -136 47l-47 -67l-32 22l51 72c-44.667 51.333 -67 117.666 -67 198.999c0 82.667 21.833 149 65.5 199s98.834 75 165.501 75
c51.333 0 96.333 -15.333 135 -46l48 68l33 -23zM148.999 100.001l246.999 352c-30 28 -67 42 -111 42c-55.333 0 -99.666 -21.833 -132.999 -65.5s-50 -98.834 -50 -165.501c0 -65.333 15.667 -119.666 47 -162.999zM420.998 424.001l-247.998 -351.001
c31.333 -28 68.666 -42 111.999 -42c55.333 0 99.666 21.667 132.999 65s50 99 50 167c0 64.667 -15.667 118.334 -47 161.001z" />
    <glyph glyph-name="ugrave" unicode="&#xf9;" horiz-adv-x="573" 
d="M238 -11c-53.333 0 -93.166 13.667 -119.499 41s-39.5 65.333 -39.5 114v381h48v-375c0 -40.667 9.33301 -70.667 28 -90s47.667 -29 87 -29c62.667 0 129 33.333 199 100v394h48v-525h-48v87c-68.667 -65.333 -136.334 -98 -203.001 -98zM279 582l-139 151h75l95 -151
h-31z" />
    <glyph glyph-name="uacute" unicode="&#xfa;" horiz-adv-x="573" 
d="M238 -11c-53.333 0 -93.166 13.667 -119.499 41s-39.5 65.333 -39.5 114v381h48v-375c0 -40.667 9.33301 -70.667 28 -90s47.667 -29 87 -29c62.667 0 129 33.333 199 100v394h48v-525h-48v87c-68.667 -65.333 -136.334 -98 -203.001 -98zM261 582l95 151h75l-139 -151
h-31z" />
    <glyph glyph-name="ucircumflex" unicode="&#xfb;" horiz-adv-x="573" 
d="M238 -11c-53.333 0 -93.166 13.667 -119.499 41s-39.5 65.333 -39.5 114v381h48v-375c0 -40.667 9.33301 -70.667 28 -90s47.667 -29 87 -29c62.667 0 129 33.333 199 100v394h48v-525h-48v87c-68.667 -65.333 -136.334 -98 -203.001 -98zM135 577l129 156h40l129 -156
h-33l-117 104l-117 -104h-31z" />
    <glyph glyph-name="udieresis" unicode="&#xfc;" horiz-adv-x="573" 
d="M238 -11c-53.333 0 -93.166 13.667 -119.499 41s-39.5 65.333 -39.5 114v381h48v-375c0 -40.667 9.33301 -70.667 28 -90s47.667 -29 87 -29c62.667 0 129 33.333 199 100v394h48v-525h-48v87c-68.667 -65.333 -136.334 -98 -203.001 -98zM338 582v67h64v-67h-64z
M170 582v67h64v-67h-64z" />
    <glyph glyph-name="yacute" unicode="&#xfd;" horiz-adv-x="519" 
d="M87 -200c-28 0 -52 3 -72 9l12 40c17.333 -4.66699 39.333 -7 66 -7c30.667 0 55 7 73 21s33 37 45 69l25 65l-204 528h53l174 -467h2l174 467h52l-227 -587c-19.333 -50 -41 -85.5 -65 -106.5s-60 -31.5 -108 -31.5zM183 582l95 151h75l-139 -151h-31z" />
    <glyph glyph-name="thorn" unicode="&#xfe;" horiz-adv-x="586" 
d="M84 -200l0.000976562 940h48v-292c56 58.667 115.667 88 179 88c64 0 116.667 -23.5 158 -70.5s62 -114.5 62 -202.5s-20.833 -155.333 -62.5 -202s-94.834 -70 -159.501 -70c-59.333 0 -118.333 28.667 -177 86v-277h-48zM312.001 33c49.333 0 90.167 19.167 122.5 57.5
s48.5 95.5 48.5 171.5c0 75.333 -16.5 132.833 -49.5 172.5s-74.167 59.5 -123.5 59.5c-33.333 0 -63.333 -7.5 -90 -22.5s-56 -38.833 -88 -71.5v-273c61.333 -62.667 121.333 -94 180 -94z" />
    <glyph glyph-name="ydieresis" unicode="&#xff;" horiz-adv-x="519" 
d="M87 -200c-28 0 -52 3 -72 9l12 40c17.333 -4.66699 39.333 -7 66 -7c30.667 0 55 7 73 21s33 37 45 69l25 65l-204 528h53l174 -467h2l174 467h52l-227 -587c-19.333 -50 -41 -85.5 -65 -106.5s-60 -31.5 -108 -31.5zM312 582v67h64v-67h-64zM144 582v67h64v-67h-64z" />
    <glyph glyph-name="dotlessi" unicode="&#x131;" horiz-adv-x="228" 
d="M90 0v525h48v-525h-48z" />
    <glyph glyph-name="Lslash" unicode="&#x141;" horiz-adv-x="560" 
d="M100 0v353l-87 -23v46l87 23v341h50v-328l162 44v-46l-162 -43v-321h370v-46h-420z" />
    <glyph glyph-name="lslash" unicode="&#x142;" horiz-adv-x="286" 
d="M119 0v360l-99 -26v42l99 26v338h48v-326l102 27v-42l-102 -27v-372h-48z" />
    <glyph glyph-name="OE" unicode="&#x152;" horiz-adv-x="1116" 
d="M367 -14c-89.333 0 -162.332 35.668 -218.999 107.001s-85 163.666 -85 276.999s28.333 205.666 85 276.999s129.667 107 219 107c59.333 0 111 -15.667 155 -47s77 -73.666 99 -126.999v160h425v-46h-378v-278h284v-46h-284v-324h400v-46h-447v162
c-22.667 -53.333 -55.834 -96 -99.501 -128s-95.167 -48 -154.5 -48zM367.001 31.001c74 0 134.667 30.5 182 91.5s71 143.5 71 247.5s-23.667 186.5 -71 247.5s-108 91.5 -182 91.5c-74.667 0 -135.667 -30.5 -183 -91.5s-71 -143.5 -71 -247.5s23.667 -186.5 71 -247.5
s108.333 -91.5 183 -91.5z" />
    <glyph glyph-name="oe" unicode="&#x153;" horiz-adv-x="944" 
d="M283 -11c-66 0 -120.666 25 -163.999 75s-65 116 -65 198c0 82.667 21.5 149 64.5 199s97.833 75 164.5 75c48.667 0 90.834 -14 126.501 -42s61.5 -64.667 77.5 -110c16 45.333 41.5 82 76.5 110s75.167 42 120.5 42c62 0 111.833 -24.333 149.5 -73
s56.5 -114 56.5 -196v-7h-379c0 -70 16.5 -125.667 49.5 -167s74.5 -62 124.5 -62c39.333 0 71.666 8.83301 96.999 26.5s48.666 45.167 69.999 82.5l35 -22c-46.667 -86 -115 -129 -205 -129c-44 0 -83.667 14.167 -119 42.5s-61 64.833 -77 109.5
c-16 -46 -41.667 -82.833 -77 -110.5s-77.333 -41.5 -126 -41.5zM512.001 300h327.999c-4 57.333 -19.167 104 -45.5 140s-63.5 54 -111.5 54c-43.333 0 -81.166 -16.833 -113.499 -50.5s-51.5 -81.5 -57.5 -143.5zM283 31c55.333 0 99.333 21.665 132 64.998s49 99 49 167
c0 64.667 -16 119.334 -48 164.001s-76.333 67 -133 67c-55.333 0 -99.333 -21.667 -132 -65s-49 -98.666 -49 -165.999c0 -65.333 15.833 -120.333 47.5 -165s76.167 -67 133.5 -67z" />
    <glyph glyph-name="Scaron" unicode="&#x160;" horiz-adv-x="639" 
d="M325 -14c-67.333 0 -124.002 17.667 -170.002 53s-76.667 84 -92 146l49 12c14 -54.667 39.667 -96 77 -124s83.333 -42 138 -42c60 0 107.667 13.5 143 40.5s53 62.833 53 107.5c0 42.667 -13.5 76.667 -40.5 102s-81.833 51.333 -164.5 78
c-86.667 28 -147.167 56.667 -181.5 86s-51.5 71.333 -51.5 126c0 50.667 21 93.834 63 129.501s95 53.5 159 53.5c65.333 0 118.5 -15.5 159.5 -46.5s69.5 -73.5 85.5 -127.5l-48 -14c-17.333 50.667 -42.166 87.167 -74.499 109.5s-73.5 33.5 -123.5 33.5
c-51.333 0 -92.666 -13 -123.999 -39s-47 -58 -47 -96c0 -43.333 14.333 -76 43 -98s86.667 -47.333 174 -76c81.333 -26.667 138.5 -55.834 171.5 -87.501s49.5 -75.167 49.5 -130.5c0 -60 -23.667 -107.667 -71 -143s-106.333 -53 -177 -53zM298.998 797l-129 156h33
l117 -104l117 104h31l-129 -156h-40z" />
    <glyph glyph-name="scaron" unicode="&#x161;" 
d="M245 -9c-86.667 0 -152.334 32.334 -197.001 97.001l35 27c42.667 -54.667 97 -82 163 -82c48.667 0 85.834 9.16699 111.501 27.5s38.5 43.833 38.5 76.5c0 32 -11.167 56.333 -33.5 73s-63.166 32 -122.499 46c-66.667 16.667 -112.834 35.667 -138.501 57
s-38.5 52 -38.5 92c0 36 15.333 66.833 46 92.5s73 38.5 127 38.5c74.667 0 136.667 -25.667 186 -77l-32 -33c-42 45.333 -93.667 68 -155 68c-40.667 0 -71.5 -8.5 -92.5 -25.5s-31.5 -37.5 -31.5 -61.5c0 -27.333 9.33301 -48.333 28 -63s53.667 -28.334 105 -41.001
c76 -18.667 128.333 -39.5 157 -62.5s43 -57.5 43 -103.5c0 -44.667 -18.333 -80.167 -55 -106.5s-84.667 -39.5 -144 -39.5zM230 582.001l-129 156h33l117 -104l117 104h31l-129 -156h-40z" />
    <glyph glyph-name="Ydieresis" unicode="&#x178;" horiz-adv-x="601" 
d="M275 0v329l-246 411h56l217 -368l216 368h54l-247 -411v-329h-50zM352 787v67h64v-67h-64zM184 787v67h64v-67h-64z" />
    <glyph glyph-name="Zcaron" unicode="&#x17d;" horiz-adv-x="615" 
d="M45 0v37l457 660h-427v43h486v-37l-457 -660h457v-43h-516zM287 797l-129 156h33l117 -104l117 104h31l-129 -156h-40z" />
    <glyph glyph-name="zcaron" unicode="&#x17e;" 
d="M44 0v33l335 450h-308v42h370v-33l-336 -450h348v-42h-409zM230 582l-129 156h33l117 -104l117 104h31l-129 -156h-40z" />
    <glyph glyph-name="florin" unicode="&#x192;" horiz-adv-x="313" 
d="M-97 -200l7 44c4.66699 -0.666992 15 -1 31 -1c60.667 0 94.667 26.333 102 79l71 500h-92l6 43h92l20 149c12 84 66 126 162 126h26l-7 -44c-4.66699 0.666992 -15 1 -31 1c-60.667 0 -94.667 -26.333 -102 -79l-20 -153h116l-6 -43h-116l-71 -496
c-12 -84 -66 -126 -162 -126h-26z" />
    <glyph glyph-name="circumflex" unicode="&#x2c6;" 
d="M101 577l129 156h40l129 -156h-33l-117 104l-117 -104h-31z" />
    <glyph glyph-name="caron" unicode="&#x2c7;" 
d="M230 582l-129 156h33l117 -104l117 104h31l-129 -156h-40z" />
    <glyph glyph-name="breve" unicode="&#x2d8;" 
d="M250 579c-41.333 0 -75.002 14.167 -101.002 42.5s-40.333 67.166 -43 116.499h34c8.66699 -76 45.334 -114 110.001 -114s101.334 38 110.001 114h34c-2.66699 -49.333 -17 -88.166 -43 -116.499s-59.667 -42.5 -101 -42.5z" />
    <glyph glyph-name="dotaccent" unicode="&#x2d9;" 
d="M217 582v69h66v-69h-66z" />
    <glyph glyph-name="ring" unicode="&#x2da;" horiz-adv-x="540" 
d="M270 575c-25.333 0 -46.1699 8.16699 -62.5029 24.5s-24.5 37.166 -24.5 62.499c0 24.667 8.33301 45.167 25 61.5s37.334 24.5 62.001 24.5s45.334 -8.16699 62.001 -24.5s25 -36.833 25 -61.5c0 -25.333 -8.16699 -46.166 -24.5 -62.499s-37.166 -24.5 -62.499 -24.5z
M269.996 604c16 0 29.167 5.5 39.5 16.5s15.5 24.833 15.5 41.5s-5.16699 30.334 -15.5 41.001s-23.5 16 -39.5 16s-29.167 -5.33301 -39.5 -16s-15.5 -24.334 -15.5 -41.001s5.16699 -30.5 15.5 -41.5s23.5 -16.5 39.5 -16.5z" />
    <glyph glyph-name="ogonek" unicode="&#x2db;" 
d="M245 -187c-27.333 0 -49 6.83105 -65 20.498s-24 32.5 -24 56.5c0 38.667 27.333 75.334 82 110.001h38c-48.667 -33.333 -73 -67.666 -73 -102.999c0 -33.333 17.667 -50 53 -50c29.333 0 62 8 98 24l11 -21c-44.667 -24.667 -84.667 -37 -120 -37z" />
    <glyph glyph-name="tilde" unicode="&#x2dc;" 
d="M323 580c-18 0 -44.002 9.33301 -78.002 28s-57.333 28 -70 28c-14.667 0 -25.167 -4.16699 -31.5 -12.5s-9.5 -22.166 -9.5 -41.499h-34c0 66 25.667 99 77 99c18.667 0 44.834 -9.33301 78.501 -28s56.834 -28 69.501 -28c14.667 0 25.167 4.16699 31.5 12.5
s9.5 22.166 9.5 41.499h34c0 -66 -25.667 -99 -77 -99z" />
    <glyph glyph-name="hungarumlaut" unicode="&#x2dd;" 
d="M244 582l93 151h77l-137 -151h-33zM90 582l93 151h77l-137 -151h-33z" />
    <glyph glyph-name="Delta" unicode="&#x394;" horiz-adv-x="554" 
d="M405 659v61h52v-61h-52zM120 0v482h-92v43h92v89c0 84 48 126 144 126h26v-44c-5.33301 0.666992 -16 1 -32 1c-60 0 -90 -26.333 -90 -79v-93h116v-43h-116v-482h-48zM359 -200c-10.667 0 -20 0.666992 -28 2v43c8 -2 17.333 -3 28 -3c32 0 48 18.333 48 55v628h48v-622
c0 -68.667 -32 -103 -96 -103z" />
    <glyph glyph-name="Omega" unicode="&#x3a9;" horiz-adv-x="760" 
d="M562 552l32 2v-49l-34 1l-6 -119l196 10v-55l-196 10l6 -118l34 2v-49l-32 2l2 -33h-49l1 35l-118 6l10 -197h-55l10 197l-119 -6l2 -35h-49l2 33l-32 -2v49l34 -1l6 117l-197 -10v55l197 -10l-6 120l-34 -2v49l32 -2l-2 31h49l-1 -33l118 -6l-10 196h55l-10 -196l119 6
l-2 33h49zM519 508l-121 6v-127h126zM243 509l-6 -122h126v127zM518 232l6 120h-126v-125zM242 233l121 -6v125h-126z" />
    <glyph glyph-name="mu" unicode="&#x3bc;" horiz-adv-x="578" 
d="M84 -200l0.000976562 725h48v-375c0 -40.667 9.33301 -70.667 28 -90s47.667 -29 87 -29c62.667 0 129 33.333 199 100v394h48v-525h-48v87c-68.667 -65.333 -136.334 -98 -203.001 -98c-52 0 -89 14.333 -111 43v-232h-48z" />
    <glyph glyph-name="pi" unicode="&#x3c0;" horiz-adv-x="862" 
d="M431 -14c-106 0 -196 37.5 -270 112.5s-111 165.5 -111 271.5s37 196.5 111 271.5s164 112.5 270 112.5s196 -37.5 270 -112.5s111 -165.5 111 -271.5s-37 -196.5 -111 -271.5s-164 -112.5 -270 -112.5zM431 20c96 0 177.5 34.333 244.5 103s100.5 151 100.5 247
s-33.5 178.333 -100.5 247s-148.5 103 -244.5 103s-177.5 -34.333 -244.5 -103s-100.5 -151 -100.5 -247s33.5 -178.333 100.5 -247s148.5 -103 244.5 -103zM309 158v425h140c46.667 0 82.5 -9.83301 107.5 -29.5s37.5 -47.5 37.5 -83.5
c0 -39.333 -13.167 -68.833 -39.5 -88.5s-62.833 -29.5 -109.5 -29.5h-98v-194h-38zM347 388l100 0.000976562c36 0 63.167 6.16699 81.5 18.5s27.5 33.166 27.5 62.499c0 52 -36.667 78 -110 78h-99v-159z" />
    <glyph glyph-name="endash" unicode="&#x2013;" horiz-adv-x="640" 
d="M70 291v46h500v-46h-500z" />
    <glyph glyph-name="emdash" unicode="&#x2014;" horiz-adv-x="920" 
d="M70 291v46h780v-46h-780z" />
    <glyph glyph-name="quoteleft" unicode="&#x2018;" horiz-adv-x="265" 
d="M99 563v74l39 103h22l-20 -97h26v-80h-67z" />
    <glyph glyph-name="quoteright" unicode="&#x2019;" horiz-adv-x="265" 
d="M105 563l20 97h-26v80h67v-74l-39 -103h-22z" />
    <glyph glyph-name="quotesinglbase" unicode="&#x201a;" horiz-adv-x="265" 
d="M105 -97l20 97h-26v80h67v-74l-39 -103h-22z" />
    <glyph glyph-name="quotedblleft" unicode="&#x201c;" horiz-adv-x="437" 
d="M271 563v74l39 103h22l-20 -97h26v-80h-67zM99 563v74l39 103h22l-20 -97h26v-80h-67z" />
    <glyph glyph-name="quotedblright" unicode="&#x201d;" horiz-adv-x="437" 
d="M277 563l20 97h-26v80h67v-74l-39 -103h-22zM105 563l20 97h-26v80h67v-74l-39 -103h-22z" />
    <glyph glyph-name="quotedblbase" unicode="&#x201e;" horiz-adv-x="437" 
d="M277 -97l20 97h-26v80h67v-74l-39 -103h-22zM105 -97l20 97h-26v80h67v-74l-39 -103h-22z" />
    <glyph glyph-name="dagger" unicode="&#x2020;" horiz-adv-x="543" 
d="M244 -200l10 636l-201 -9v49l201 -10l-10 274h55l-10 -274l201 10v-49l-201 9l10 -636h-55z" />
    <glyph glyph-name="daggerdbl" unicode="&#x2021;" horiz-adv-x="543" 
d="M244 -200l10 247l-196 -10v49l196 -9l-6 196l6 191l-196 -9v49l196 -10l-10 246h55l-10 -246l196 10v-49l-196 9l6 -191l-6 -196l196 9v-49l-196 10l10 -247h-55z" />
    <glyph glyph-name="bullet" unicode="&#x2022;" horiz-adv-x="463" 
d="M231 237c-32.667 0 -59.667 10.665 -81 31.998s-32 48.333 -32 81s10.667 59.834 32 81.501s48.333 32.5 81 32.5s59.834 -10.667 81.501 -32s32.5 -48.666 32.5 -81.999c0 -32.667 -10.833 -59.667 -32.5 -81s-48.834 -32 -81.501 -32z" />
    <glyph glyph-name="ellipsis" unicode="&#x2026;" horiz-adv-x="795" 
d="M629 0v80h67v-80h-67zM364 0v80h67v-80h-67zM99 0v80h67v-80h-67z" />
    <glyph glyph-name="perthousand" unicode="&#x2030;" horiz-adv-x="1338" 
d="M224 315c-50 0 -88.834 19.668 -116.501 59.001s-41.5 91.333 -41.5 156c0 67.333 14.5 120.833 43.5 160.5s67.833 59.5 116.5 59.5s87 -19.5 115 -58.5s42 -91.5 42 -157.5c0 -64.667 -14.167 -117.334 -42.5 -158.001s-67.166 -61 -116.499 -61zM223.999 0.000976562
l442 740h48l-442 -740h-48zM1113 -9.99902c-50 0 -88.834 19.668 -116.501 59.001s-41.5 91.333 -41.5 156c0 67.333 14.5 120.833 43.5 160.5s67.833 59.5 116.5 59.5s87 -19.5 115 -58.5s42 -91.5 42 -157.5c0 -64.667 -14.167 -117.334 -42.5 -158.001
s-67.166 -61 -116.499 -61zM712.998 -9.99805c-50 0 -88.834 19.668 -116.501 59.001s-41.5 91.333 -41.5 156c0 67.333 14.5 120.833 43.5 160.5s67.833 59.5 116.5 59.5s87 -19.5 115 -58.5s42 -91.5 42 -157.5c0 -64.667 -14.167 -117.334 -42.5 -158.001
s-67.166 -61 -116.499 -61zM224.997 358.003c34 0 60.833 16.668 80.5 50.001s29.5 74.666 29.5 123.999c0 52.667 -9.83301 95 -29.5 127s-46.834 48 -81.501 48c-34 0 -60.833 -16.5 -80.5 -49.5s-29.5 -74.167 -29.5 -123.5c0 -52.667 9.83301 -95.167 29.5 -127.5
s46.834 -48.5 81.501 -48.5zM1114 33.0039c34 0 60.833 16.668 80.5 50.001s29.5 74.666 29.5 123.999c0 52.667 -9.83301 95 -29.5 127s-46.834 48 -81.501 48c-34 0 -60.833 -16.5 -80.5 -49.5s-29.5 -74.167 -29.5 -123.5c0 -52.667 9.83301 -95.167 29.5 -127.5
s46.834 -48.5 81.501 -48.5zM713.997 33.0049c34 0 60.833 16.668 80.5 50.001s29.5 74.666 29.5 123.999c0 52.667 -9.83301 95 -29.5 127s-46.834 48 -81.501 48c-34 0 -60.833 -16.5 -80.5 -49.5s-29.5 -74.167 -29.5 -123.5c0 -52.667 9.83301 -95.167 29.5 -127.5
s46.834 -48.5 81.501 -48.5z" />
    <glyph glyph-name="guilsinglleft" unicode="&#x2039;" horiz-adv-x="313" 
d="M194 0l-144 263l144 262h53l-142 -262l142 -263h-53z" />
    <glyph glyph-name="guilsinglright" unicode="&#x203a;" horiz-adv-x="313" 
d="M65 0l143 263l-143 262h53l145 -262l-145 -263h-53z" />
    <glyph glyph-name="fraction" unicode="&#x2044;" horiz-adv-x="448" 
d="M-15 0l430 740h48l-430 -740h-48z" />
    <glyph glyph-name="Euro" unicode="&#x20ac;" horiz-adv-x="712" 
d="M145 423l-124 -0.000976562v45h129c12.667 94 43.667 165.167 93 213.5s106.333 72.5 171 72.5c116 0 192 -71.333 228 -214l-48 -11c-17.333 62 -38.666 107.5 -63.999 136.5s-64.333 43.5 -117 43.5c-54 0 -100.5 -20.333 -139.5 -61s-64.167 -100.667 -75.5 -180h243
v-45h-248c-0.666992 -9.33301 -1 -24 -1 -44c0 -15.333 0.666992 -35.666 2 -60.999h247v-46h-242c11.333 -78.667 35.666 -138.5 72.999 -179.5s85 -61.5 143 -61.5c52.667 0 93.667 15.667 123 47s52.333 78.666 69 141.999l47 -11c-38 -148.667 -118 -223 -240 -223
c-69.333 0 -127.333 24.167 -174 72.5s-76.667 119.5 -90 213.5h-129v46h125c-1.33301 24 -2 43 -2 57c0 6 0.166992 14.333 0.5 25s0.5 18.334 0.5 23.001z" />
    <glyph glyph-name="trademark" unicode="&#x2122;" horiz-adv-x="865" 
d="M419 317v423h51l139 -370l140 370h52v-423h-42v345l-133 -345h-35l-133 345v-345h-39zM166 317v386h-135v37h310v-37h-135v-386h-40z" />
    <glyph glyph-name="partialdiff" unicode="&#x2202;" horiz-adv-x="760" 
d="M562 552l32 2v-49l-34 1l-6 -119l196 10v-55l-196 10l6 -118l34 2v-49l-32 2l2 -33h-49l1 35l-118 6l10 -197h-55l10 197l-119 -6l2 -35h-49l2 33l-32 -2v49l34 -1l6 117l-197 -10v55l197 -10l-6 120l-34 -2v49l32 -2l-2 31h49l-1 -33l118 -6l-10 196h55l-10 -196l119 6
l-2 33h49zM519 508l-121 6v-127h126zM243 509l-6 -122h126v127zM518 232l6 120h-126v-125zM242 233l121 -6v125h-126z" />
    <glyph glyph-name="product" unicode="&#x220f;" horiz-adv-x="551" 
d="M276 290c-64.667 0 -119.5 22.667 -164.5 68s-67.5 100.666 -67.5 165.999c0 64.667 22.5 119.667 67.5 165s99.833 68 164.5 68s119.334 -22.667 164.001 -68s67 -100.333 67 -165c0 -65.333 -22.333 -120.666 -67 -165.999s-99.334 -68 -164.001 -68zM276 317
c56.667 0 104.832 20.167 144.499 60.5s59.5 89.166 59.5 146.499c0 56.667 -20 105.334 -60 146.001s-88 61 -144 61s-104 -20.333 -144 -61s-60 -89.334 -60 -146.001c0 -57.333 19.833 -106.166 59.5 -146.499s87.834 -60.5 144.501 -60.5zM191.998 398l-0.000976562 260
h87c28.667 0 50.834 -6.16699 66.501 -18.5s23.5 -29.5 23.5 -51.5c0 -38.667 -19.333 -62 -58 -70l66 -120l-34 1l-63 115h-59v-116h-29zM220.997 541h57c41.333 0 62 15.333 62 46c0 28.667 -21 43 -63 43h-56v-89z" />
    <glyph glyph-name="summation" unicode="&#x2211;" horiz-adv-x="760" 
d="M562 552l32 2v-49l-34 1l-6 -119l196 10v-55l-196 10l6 -118l34 2v-49l-32 2l2 -33h-49l1 35l-118 6l10 -197h-55l10 197l-119 -6l2 -35h-49l2 33l-32 -2v49l34 -1l6 117l-197 -10v55l197 -10l-6 120l-34 -2v49l32 -2l-2 31h49l-1 -33l118 -6l-10 196h55l-10 -196l119 6
l-2 33h49zM519 508l-121 6v-127h126zM243 509l-6 -122h126v127zM518 232l6 120h-126v-125zM242 233l121 -6v125h-126z" />
    <glyph glyph-name="minus" unicode="&#x2212;" horiz-adv-x="634" 
d="M65 302v44h504v-44h-504z" />
    <glyph glyph-name="radical" unicode="&#x221a;" horiz-adv-x="582" 
d="M227 -3l-195 528h53l166 -465h2l245 680h52l-275 -743h-48z" />
    <glyph glyph-name="infinity" unicode="&#x221e;" horiz-adv-x="832" 
d="M692 659v61h52v-61h-52zM120 0v482h-92v43h92v89c0 84 48 126 144 126h26v-44c-5.33301 0.666992 -16 1 -32 1c-60 0 -90 -26.333 -90 -79v-93h239v89c0 84 48 126 144 126h26v-44c-5.33301 0.666992 -16 1 -32 1c-60 0 -90 -26.333 -90 -79v-93h116v-43h-116v-482h-48
v482h-239v-482h-48zM694 0v525h48v-525h-48z" />
    <glyph glyph-name="integral" unicode="&#x222b;" horiz-adv-x="760" 
d="M562 552l32 2v-49l-34 1l-6 -119l196 10v-55l-196 10l6 -118l34 2v-49l-32 2l2 -33h-49l1 35l-118 6l10 -197h-55l10 197l-119 -6l2 -35h-49l2 33l-32 -2v49l34 -1l6 117l-197 -10v55l197 -10l-6 120l-34 -2v49l32 -2l-2 31h49l-1 -33l118 -6l-10 196h55l-10 -196l119 6
l-2 33h49zM519 508l-121 6v-127h126zM243 509l-6 -122h126v127zM518 232l6 120h-126v-125zM242 233l121 -6v125h-126z" />
    <glyph glyph-name="approxequal" unicode="&#x2248;" horiz-adv-x="760" 
d="M562 552l32 2v-49l-34 1l-6 -119l196 10v-55l-196 10l6 -118l34 2v-49l-32 2l2 -33h-49l1 35l-118 6l10 -197h-55l10 197l-119 -6l2 -35h-49l2 33l-32 -2v49l34 -1l6 117l-197 -10v55l197 -10l-6 120l-34 -2v49l32 -2l-2 31h49l-1 -33l118 -6l-10 196h55l-10 -196l119 6
l-2 33h49zM519 508l-121 6v-127h126zM243 509l-6 -122h126v127zM518 232l6 120h-126v-125zM242 233l121 -6v125h-126z" />
    <glyph glyph-name="notequal" unicode="&#x2260;" horiz-adv-x="600" 
d="M120 0v482h-92v43h92v89c0 84 48 126 144 126h26v-44c-5.33301 0.666992 -16 1 -32 1c-60 0 -90 -26.333 -90 -79v-93h239v89c0 84 48 126 144 126h26v-44c-5.33301 0.666992 -16 1 -32 1c-60 0 -90 -26.333 -90 -79v-93h116v-43h-116v-482h-48v482h-239v-482h-48z" />
    <glyph glyph-name="lessequal" unicode="&#x2264;" horiz-adv-x="760" 
d="M562 552l32 2v-49l-34 1l-6 -119l196 10v-55l-196 10l6 -118l34 2v-49l-32 2l2 -33h-49l1 35l-118 6l10 -197h-55l10 197l-119 -6l2 -35h-49l2 33l-32 -2v49l34 -1l6 117l-197 -10v55l197 -10l-6 120l-34 -2v49l32 -2l-2 31h49l-1 -33l118 -6l-10 196h55l-10 -196l119 6
l-2 33h49zM519 508l-121 6v-127h126zM243 509l-6 -122h126v127zM518 232l6 120h-126v-125zM242 233l121 -6v125h-126z" />
    <glyph glyph-name="greaterequal" unicode="&#x2265;" horiz-adv-x="760" 
d="M562 552l32 2v-49l-34 1l-6 -119l196 10v-55l-196 10l6 -118l34 2v-49l-32 2l2 -33h-49l1 35l-118 6l10 -197h-55l10 197l-119 -6l2 -35h-49l2 33l-32 -2v49l34 -1l6 117l-197 -10v55l197 -10l-6 120l-34 -2v49l32 -2l-2 31h49l-1 -33l118 -6l-10 196h55l-10 -196l119 6
l-2 33h49zM519 508l-121 6v-127h126zM243 509l-6 -122h126v127zM518 232l6 120h-126v-125zM242 233l121 -6v125h-126z" />
    <glyph glyph-name="lozenge" unicode="&#x25ca;" horiz-adv-x="760" 
d="M562 552l32 2v-49l-34 1l-6 -119l196 10v-55l-196 10l6 -118l34 2v-49l-32 2l2 -33h-49l1 35l-118 6l10 -197h-55l10 197l-119 -6l2 -35h-49l2 33l-32 -2v49l34 -1l6 117l-197 -10v55l197 -10l-6 120l-34 -2v49l32 -2l-2 31h49l-1 -33l118 -6l-10 196h55l-10 -196l119 6
l-2 33h49zM519 508l-121 6v-127h126zM243 509l-6 -122h126v127zM518 232l6 120h-126v-125zM242 233l121 -6v125h-126z" />
    <glyph glyph-name="fi" unicode="&#xfb01;" horiz-adv-x="554" 
d="M405 659v61h52v-61h-52zM120 0v482h-92v43h92v89c0 84 48 126 144 126h26v-44c-5.33301 0.666992 -16 1 -32 1c-60 0 -90 -26.333 -90 -79v-93h116v-43h-116v-482h-48zM407 0v525h48v-525h-48z" />
    <glyph glyph-name="fl" unicode="&#xfb02;" horiz-adv-x="554" 
d="M407 0v740h48v-740h-48zM120 0v482h-92v43h92v89c0 84 48 126 144 126h26v-44c-5.33301 0.666992 -16 1 -32 1c-60 0 -90 -26.333 -90 -79v-93h116v-43h-116v-482h-48z" />
    <glyph glyph-name=".null" horiz-adv-x="0" 
 />
    <glyph glyph-name="nonmarkingreturn" horiz-adv-x="333" 
 />
    <glyph glyph-name="NUL" horiz-adv-x="0" 
 />
    <glyph glyph-name="apple" horiz-adv-x="760" 
d="M562 552l32 2v-49l-34 1l-6 -119l196 10v-55l-196 10l6 -118l34 2v-49l-32 2l2 -33h-49l1 35l-118 6l10 -197h-55l10 197l-119 -6l2 -35h-49l2 33l-32 -2v49l34 -1l6 117l-197 -10v55l197 -10l-6 120l-34 -2v49l32 -2l-2 31h49l-1 -33l118 -6l-10 196h55l-10 -196l119 6
l-2 33h49zM519 508l-121 6v-127h126zM243 509l-6 -122h126v127zM518 232l6 120h-126v-125zM242 233l121 -6v125h-126z" />
  </font>
</defs>
</svg>
